<?xml version="1.0" encoding="utf-8"?>
<!-- Generator: Adobe Illustrator 24.1.2, SVG Export Plug-In . SVG Version: 6.00 Build 0)  -->
<svg version="1.1" xmlns="http://www.w3.org/2000/svg" xmlns:xlink="http://www.w3.org/1999/xlink" x="0px" y="0px"
	 viewBox="0 0 1060 1060" style="enable-background:new 0 0 1060 1060;" xml:space="preserve">
<style type="text/css">
	.st0{fill:#AFE1EF;}
	.st1{fill:#FBAE5F;stroke:#000000;stroke-width:19.6664;stroke-miterlimit:10;}
	.st2{fill:#B93725;stroke:#000000;stroke-width:19.6664;stroke-miterlimit:10;}
	.st3{fill:#F7EF74;stroke:#000000;stroke-width:19.6664;stroke-miterlimit:10;}
	.st4{stroke:#000000;stroke-width:19.6664;stroke-miterlimit:10;}
	.st5{fill:#FFFFFF;stroke:#000000;stroke-width:10;stroke-miterlimit:10;}
	.st6{fill:#FFFFFF;}
</style>
<g id="Layer_2">
	<rect class="st0" width="1060" height="1060"/>
</g>
<g id="Layer_3">
	<path class="st1" d="M156.16,643.65V882.6c0,0,93.32,109.65,333.92,106.57s413.75-98.43,413.75-98.43l0-247.09"/>
	<path class="st2" d="M156.16,427.65V666.6c0,0,93.32,109.65,333.92,106.57s413.75-98.43,413.75-98.43l0-247.09"/>
	<path class="st3" d="M156.16,187.65V426.6c0,0,93.32,109.65,333.92,106.57s413.75-98.43,413.75-98.43l0-247.09"/>
	<path class="st4" d="M903.84,187.65c0.33,59.24-200.07,120.04-372.15,120.35c-173.62,0.31-375.85-60.85-375.52-120.35
		c0.33-59.89,205.89-118.15,380.02-116.86C703.24,72.02,903.51,128.52,903.84,187.65z"/>
	<circle class="st5" cx="812.35" cy="373.25" r="38.95"/>
	<circle class="st5" cx="812.35" cy="599.63" r="38.95"/>
	<circle class="st5" cx="812.35" cy="827.63" r="38.95"/>
</g>
<g id="Layer_4">
	<g>
		<g>
			<path d="M310.68,403c4.79-11.58,9.59-23.15,14.38-34.73c2.22,0.92,4.45,1.82,6.69,2.71c-0.18,8.23-0.22,16.48-0.12,24.76
				c0.02,0.01,0.04,0.01,0.06,0.02c5.46-6.19,10.81-12.46,16.02-18.79c2.35,0.83,4.71,1.65,7.08,2.44
				c-3.99,11.88-7.98,23.75-11.98,35.63c-1.67-0.56-3.33-1.13-4.99-1.71c3.53-10.15,7.07-20.31,10.6-30.46
				c-0.02-0.01-0.04-0.01-0.06-0.02c-5.45,6.68-11.05,13.29-16.77,19.82c-1.68-0.62-3.35-1.25-5.02-1.89
				c-0.09-8.47-0.03-16.91,0.17-25.33c-0.02-0.01-0.04-0.02-0.06-0.02c-3.94,9.76-7.88,19.52-11.82,29.29
				C313.46,404.14,312.07,403.57,310.68,403z"/>
			<path d="M372.88,420.13c-4.49,1.82-8.65,2.17-12.36,1.07c-3.11-0.92-5.44-2.5-6.94-4.71c-1.51-2.21-1.85-4.53-1.08-6.95
				c1.01-3.14,3.34-5.18,6.95-6.17c3.62-0.99,7.86-0.76,12.81,0.63c1.23,0.34,2.46,0.68,3.69,1.02c0.24-0.88,0.48-1.75,0.72-2.63
				c0.59-2.17,0.5-3.85-0.26-5.05c-0.76-1.2-2.3-2.13-4.63-2.79c-3.37-0.97-7.12-1.11-11.29-0.45c0.49-1.58,0.99-3.15,1.48-4.73
				c4.53-0.12,8.57,0.32,12.17,1.34c4.04,1.15,6.7,2.69,7.97,4.68c1.27,1.99,1.44,4.89,0.45,8.69c-1.11,4.3-2.22,8.6-3.34,12.91
				c-0.48,1.85-0.59,3.17-0.32,3.96c0.26,0.78,1,1.33,2.22,1.64c0.4,0.1,1.07,0.17,2.01,0.2c-0.09,1.17-0.18,2.33-0.26,3.5
				c-2.23,0.1-3.88,0-4.95-0.28C374.86,425.22,373.17,423.25,372.88,420.13z M372.89,416.25c0.7-2.58,1.41-5.16,2.11-7.75
				c-0.6-0.16-1.2-0.33-1.8-0.49c-8.21-2.28-12.91-1.54-14.17,2.56c-0.45,1.48-0.28,2.83,0.52,4.05c0.8,1.22,2.1,2.1,3.88,2.62
				C366.11,418.02,369.28,417.7,372.89,416.25z"/>
			<path d="M390.22,428.42c2.38-10.34,4.75-20.67,7.13-31.01c1.95,0.45,3.9,0.88,5.85,1.31c-0.42,1.95-0.84,3.89-1.26,5.84
				c3.68-3.76,7.78-5.17,12.42-4.28c6.13,1.17,8.61,5.2,7.41,12.27c-1.22,7.15-2.45,14.3-3.67,21.46c-2.1-0.36-4.2-0.73-6.29-1.12
				c1.22-6.62,2.44-13.23,3.65-19.85c0.45-2.44,0.37-4.25-0.24-5.42c-0.61-1.18-1.84-1.94-3.71-2.3c-2.97-0.58-6.48,0.82-10.65,4.18
				c-1.47,6.78-2.93,13.55-4.4,20.33C394.39,429.37,392.31,428.9,390.22,428.42z"/>
			<path d="M450.95,434.65c-4.12,2.52-8.13,3.52-11.95,3.04c-3.2-0.41-5.72-1.6-7.53-3.54c-1.82-1.94-2.52-4.17-2.15-6.68
				c0.49-3.27,2.46-5.65,5.84-7.2c3.39-1.56,7.58-2.01,12.65-1.43c1.26,0.14,2.52,0.28,3.77,0.42c0.1-0.9,0.19-1.81,0.29-2.71
				c0.24-2.23-0.11-3.88-1.05-4.95c-0.93-1.06-2.59-1.73-4.97-2.02c-3.46-0.42-7.15,0.04-11.13,1.36c0.24-1.63,0.47-3.27,0.71-4.9
				c4.42-0.84,8.45-1.06,12.13-0.63c4.14,0.49,6.99,1.58,8.55,3.35c1.56,1.76,2.18,4.59,1.81,8.5c-0.41,4.42-0.83,8.85-1.24,13.27
				c-0.18,1.91-0.08,3.23,0.31,3.96c0.38,0.73,1.19,1.15,2.43,1.26c0.4,0.03,1.08,0,2.01-0.12c0.1,1.16,0.19,2.33,0.29,3.49
				c-2.17,0.45-3.81,0.62-4.9,0.52C453.7,439.36,451.73,437.68,450.95,434.65z M450.36,430.82c0.28-2.66,0.57-5.32,0.85-7.98
				c-0.61-0.07-1.23-0.13-1.84-0.2c-8.4-0.94-12.89,0.55-13.48,4.8c-0.21,1.53,0.17,2.83,1.15,3.91c0.98,1.08,2.38,1.73,4.21,1.96
				C443.99,433.65,447.05,432.82,450.36,430.82z"/>
			<path d="M469.56,450.75c0.34-1.6,0.67-3.21,1-4.81c3.76,1.71,7.33,2.62,10.65,2.76c6.93,0.28,10.45-2.62,10.56-8.49
				c0.14-1.91,0.28-3.82,0.41-5.73c-2.73,4.34-6.67,6.43-11.74,6.21c-4.01-0.18-7.12-1.74-9.28-4.65c-2.16-2.91-3.05-6.7-2.72-11.37
				c0.36-5.08,1.97-9.11,4.74-12.14c2.78-3.02,6.17-4.43,10.26-4.26c3.2,0.13,6.3,1.67,9.37,4.63c0.03-1.21,0.05-2.42,0.08-3.63
				c1.87,0.04,3.73,0.07,5.6,0.08c-0.07,8.49-0.15,16.97-0.22,25.46c-0.04,4.12-0.36,7.22-0.99,9.29c-0.63,2.07-1.79,3.9-3.51,5.47
				c-2.74,2.51-7.03,3.7-12.81,3.46C477.57,452.89,473.75,452.13,469.56,450.75z M492.1,429.79c0.09-4.17,0.18-8.34,0.27-12.51
				c-2.67-2.99-5.41-4.54-8.29-4.65c-2.62-0.1-4.71,0.89-6.3,3c-1.59,2.11-2.51,5.12-2.73,9.06c-0.19,3.33,0.32,5.98,1.56,7.93
				c1.23,1.95,3.07,2.99,5.48,3.09C485.81,435.87,489.18,433.89,492.1,429.79z"/>
			<path d="M538.64,438.63c-4.3,1.64-8.32,2.54-12.01,2.72c-6.04,0.29-10.74-1-14.01-3.75c-3.28-2.75-4.9-6.76-4.95-12
				c-0.05-4.94,1.41-9.01,4.29-12.25c2.88-3.24,6.52-4.93,11.01-5.12c4.53-0.2,7.93,0.91,10.26,3.41c2.33,2.49,3.72,6.5,4.12,12.05
				c0.04,0.61,0.09,1.23,0.13,1.84c-7.73,0.55-15.47,0.92-23.21,1.11c0.61,7.18,4.97,10.73,13.02,10.34
				c3.4-0.17,7.09-1.13,11.02-2.9C538.42,435.59,538.53,437.11,538.64,438.63z M514.34,422.29c5.43-0.13,10.86-0.35,16.29-0.67
				c-0.02-0.27-0.03-0.55-0.05-0.82c-0.34-5.74-3-8.44-7.97-8.22c-2.4,0.1-4.31,1-5.76,2.7
				C515.41,416.98,514.56,419.31,514.34,422.29z"/>
			<path d="M546.11,439.3c-0.92-10.57-1.84-21.13-2.76-31.7c1.74-0.15,3.48-0.31,5.22-0.48c0.19,1.98,0.39,3.97,0.58,5.95
				c2.15-4.69,4.32-7.16,6.63-7.42c2.94-0.34,5.1,1.63,6.52,5.94c0.07-0.01,0.14-0.02,0.21-0.03c1.55-4.69,3.68-7.21,6.48-7.61
				c2.04-0.29,3.62,0.2,4.77,1.5c1.14,1.3,1.97,3.55,2.47,6.75c1.19,7.67,2.39,15.34,3.58,23.01c-1.85,0.29-3.69,0.56-5.54,0.83
				c-1.1-7.61-2.19-15.21-3.29-22.82c-0.25-1.72-0.55-2.87-0.9-3.45c-0.35-0.58-0.89-0.82-1.62-0.72c-1.9,0.27-3.63,2.85-5.28,7.77
				c0.86,6.79,1.72,13.58,2.58,20.37c-1.85,0.23-3.71,0.46-5.56,0.67c-0.84-7.29-1.68-14.57-2.52-21.86
				c-0.25-2.17-0.55-3.61-0.9-4.31c-0.35-0.7-0.92-1-1.71-0.91c-0.85,0.09-1.79,0.87-2.82,2.32c-1.03,1.45-1.89,3.21-2.58,5.28
				c0.67,6.79,1.33,13.59,2,20.38C549.83,438.96,547.97,439.13,546.11,439.3z"/>
			<path d="M617.44,426.58c-4.01,2.31-7.86,3.84-11.49,4.6c-5.95,1.25-10.81,0.73-14.49-1.46c-3.69-2.19-5.93-5.9-6.81-11.06
				c-0.83-4.87-0.03-9.12,2.3-12.78c2.34-3.66,5.68-5.91,10.1-6.81c4.46-0.92,8.01-0.36,10.72,1.72c2.71,2.09,4.72,5.82,6,11.24
				c0.14,0.6,0.28,1.2,0.42,1.8c-7.59,1.78-15.2,3.38-22.85,4.8c1.75,7,6.62,9.8,14.55,8.13c3.34-0.71,6.86-2.25,10.48-4.63
				C616.74,423.61,617.09,425.1,617.44,426.58z M590.75,414.33c5.36-1,10.72-2.08,16.05-3.26c-0.06-0.27-0.12-0.53-0.18-0.8
				c-1.25-5.61-4.31-7.85-9.21-6.85c-2.36,0.48-4.12,1.67-5.29,3.58C590.96,408.92,590.5,411.36,590.75,414.33z"/>
			<path d="M627.78,425.33c-2.65-10.27-5.29-20.54-7.94-30.81c1.94-0.5,3.88-1.01,5.81-1.54c0.52,1.92,1.04,3.85,1.56,5.77
				c1.54-5.03,4.55-8.18,9.11-9.53c6.01-1.79,10.1,0.63,12.29,7.46c2.21,6.91,4.41,13.82,6.62,20.74c-2.05,0.65-4.09,1.29-6.15,1.92
				c-1.96-6.44-3.93-12.87-5.89-19.31c-0.72-2.37-1.63-3.94-2.72-4.7c-1.09-0.76-2.54-0.87-4.38-0.33
				c-2.92,0.86-5.41,3.72-7.57,8.62c1.82,6.69,3.63,13.38,5.45,20.08C631.92,424.25,629.85,424.79,627.78,425.33z"/>
			<path d="M694.61,402.97c-2.81,1.71-5.63,3.12-8.45,4.23c-4.93,1.93-8.6,2.39-10.96,1.46c-2.36-0.93-4.34-3.62-5.93-8.05
				c-1.74-4.81-3.48-9.63-5.22-14.44c-2.64,0.95-5.28,1.88-7.93,2.79c-0.47-1.37-0.93-2.74-1.4-4.1c2.63-0.9,5.25-1.82,7.86-2.76
				c-0.78-2.15-1.55-4.3-2.33-6.45c1.87-0.68,3.74-1.37,5.61-2.07c0.8,2.14,1.61,4.28,2.41,6.42c4.63-1.74,9.24-3.56,13.83-5.45
				c0.55,1.34,1.1,2.67,1.65,4.01c-4.63,1.91-9.29,3.75-13.96,5.5c1.91,5.08,3.82,10.16,5.73,15.25c0.64,1.7,1.19,2.83,1.67,3.38
				c0.48,0.55,1.19,0.92,2.14,1.1c1.69,0.3,3.87-0.07,6.5-1.11c2.5-0.99,4.86-2.24,7.09-3.76
				C693.49,400.26,694.05,401.62,694.61,402.97z"/>
		</g>
	</g>
	<g>
		<g>
			<path d="M339.07,637.59c10.13-9.36,19.82-19.04,29.05-29.01c1.91,0.7,3.83,1.39,5.75,2.06c0.82,13.55,2.15,27.17,4.01,40.82
				c-2.26-0.68-4.51-1.39-6.77-2.11c-0.35-3.4-0.67-6.81-0.95-10.2c-6.17-2.05-12.3-4.25-18.39-6.6c-2.41,2.43-4.85,4.84-7.31,7.24
				C342.66,639.06,340.86,638.33,339.07,637.59z M355.15,629.19c4.82,1.84,9.67,3.58,14.54,5.22c-0.53-6.5-0.95-12.98-1.25-19.45
				C364.11,619.76,359.68,624.51,355.15,629.19z"/>
			<path d="M384.23,653.32c2.91-10.2,5.82-20.4,8.73-30.6c1.98,0.56,3.96,1.11,5.95,1.65c-0.52,1.92-1.03,3.85-1.55,5.77
				c3.94-3.56,8.2-4.75,12.93-3.63c6.23,1.46,8.64,5.59,7.19,12.62c-1.49,7.1-2.98,14.2-4.47,21.3c-2.17-0.46-4.34-0.93-6.5-1.42
				c1.49-6.56,2.97-13.12,4.46-19.69c0.55-2.42,0.53-4.23-0.05-5.44c-0.58-1.21-1.82-2.03-3.73-2.49
				c-3.04-0.73-6.69,0.49-11.13,3.61c-1.8,6.7-3.59,13.39-5.39,20.09C388.52,654.53,386.37,653.93,384.23,653.32z"/>
			<path d="M447.1,662.26c-4.32,2.41-8.52,3.3-12.47,2.69c-3.31-0.51-5.91-1.8-7.75-3.8c-1.84-2.01-2.51-4.27-2.05-6.77
				c0.6-3.25,2.7-5.55,6.23-6.99c3.54-1.44,7.87-1.75,13.09-1.03c1.29,0.18,2.59,0.35,3.88,0.52c0.12-0.9,0.23-1.8,0.35-2.7
				c0.29-2.23-0.05-3.88-0.98-4.97c-0.94-1.09-2.62-1.8-5.07-2.16c-3.54-0.52-7.34-0.18-11.47,1c0.29-1.63,0.57-3.25,0.86-4.88
				c4.56-0.69,8.69-0.78,12.46-0.24c4.24,0.6,7.13,1.76,8.71,3.56c1.57,1.8,2.16,4.64,1.73,8.55c-0.49,4.42-0.99,8.83-1.48,13.25
				c-0.21,1.9-0.13,3.22,0.26,3.96c0.39,0.74,1.22,1.18,2.51,1.31c0.42,0.04,1.12,0.02,2.09-0.08c0.09,1.17,0.17,2.33,0.26,3.5
				c-2.26,0.41-3.97,0.54-5.1,0.41C449.87,667.03,447.85,665.3,447.1,662.26z M446.55,658.41c0.34-2.65,0.68-5.31,1.02-7.96
				c-0.63-0.08-1.26-0.16-1.9-0.25c-8.66-1.17-13.32,0.15-14.04,4.38c-0.25,1.52,0.11,2.84,1.1,3.95c0.99,1.11,2.43,1.82,4.32,2.1
				C439.89,661.06,443.08,660.32,446.55,658.41z"/>
			<path d="M479.82,668.89c0.63-13.96,1.26-27.92,1.89-41.88c-4.22-0.19-8.43-0.45-12.65-0.78c0.11-1.44,0.23-2.88,0.34-4.32
				c6.12,0.48,12.25,0.81,18.38,0.99c-0.45,15.41-0.9,30.83-1.35,46.24C484.23,669.07,482.03,668.99,479.82,668.89z"/>
			<path d="M506.38,680.82c-0.03-1.45-0.05-2.89-0.08-4.34c0.91-0.02,1.82-0.04,2.73-0.06c2.55-0.06,4.4-0.48,5.53-1.23
				c1.13-0.75,2.28-2.31,3.44-4.69c0.5-1.04,1-2.08,1.5-3.12c-5.6-9.87-10.82-19.85-15.68-29.92c2.11-0.03,4.23-0.07,6.34-0.14
				c3.91,7.77,8.04,15.48,12.39,23.13c3.46-8.1,6.7-16.25,9.7-24.43c1.83-0.16,3.65-0.33,5.47-0.52
				c-4.42,12.48-9.38,24.88-14.87,37.18c-1.28,2.87-2.93,4.91-4.92,6.11c-1.99,1.19-4.88,1.87-8.66,1.96
				C508.31,680.78,507.34,680.8,506.38,680.82z"/>
			<path d="M548.9,664.97c-0.21-1.73-0.42-3.45-0.63-5.18c5.26,1.31,9.77,1.64,13.45,1.07c2.64-0.41,4.75-1.24,6.31-2.47
				c1.56-1.23,2.2-2.56,1.95-3.98c-0.33-1.83-2.61-2.95-6.81-3.45c-2.37-0.3-4.74-0.62-7.1-0.96c-5.52-0.79-8.48-3.22-8.96-7.13
				c-0.36-2.87,0.54-5.23,2.63-7.1c2.09-1.88,5.21-3.11,9.38-3.77c3.13-0.5,6.83-0.66,11.13-0.54c0.29,1.54,0.58,3.07,0.87,4.61
				c-4.25-0.37-8.02-0.31-11.35,0.22c-2.23,0.36-3.96,1-5.19,1.95c-1.23,0.95-1.76,2.06-1.59,3.33c0.22,1.56,1.94,2.63,5.2,3.15
				c2.76,0.44,5.53,0.85,8.32,1.23c3.05,0.43,5.33,1.14,6.84,2.17c1.51,1.04,2.47,2.56,2.87,4.6c0.57,2.95-0.35,5.58-2.82,7.85
				c-2.47,2.27-6.11,3.82-10.87,4.56C558.35,665.77,553.79,665.73,548.9,664.97z"/>
			<path d="M602.58,656.14c-2.29-8.87-4.57-17.74-6.86-26.61c-4.03,1.04-8.08,2.01-12.14,2.92c-0.32-1.41-0.63-2.82-0.95-4.23
				c6.01-1.34,12-2.84,17.96-4.47c2.81,10.23,5.62,20.45,8.43,30.68C606.88,655.01,604.73,655.58,602.58,656.14z M592.1,618.54
				c-0.6-2.34-1.19-4.67-1.79-7.01c2.4-0.61,4.8-1.25,7.19-1.91c0.64,2.32,1.29,4.65,1.93,6.97
				C596.99,617.26,594.55,617.91,592.1,618.54z"/>
			<path d="M629.94,646.72c-0.55-1.65-1.1-3.3-1.65-4.95c5.47,0.22,10.01-0.38,13.54-1.68c2.54-0.94,4.47-2.18,5.77-3.71
				c1.31-1.52,1.68-2.96,1.15-4.3c-0.68-1.73-3.17-2.35-7.44-1.99c-2.41,0.19-4.82,0.36-7.23,0.51c-5.63,0.35-9.04-1.44-10.29-5.17
				c-0.92-2.74-0.5-5.23,1.2-7.5c1.7-2.26,4.55-4.1,8.56-5.61c3.01-1.13,6.64-2.04,10.94-2.81c0.59,1.45,1.18,2.89,1.77,4.34
				c-4.29,0.51-8.02,1.34-11.22,2.54c-2.15,0.8-3.73,1.79-4.77,2.97c-1.03,1.18-1.34,2.37-0.91,3.59c0.53,1.49,2.44,2.19,5.78,2.03
				c2.82-0.13,5.66-0.29,8.5-0.49c3.11-0.21,5.51,0.02,7.22,0.73c1.71,0.71,2.96,2.01,3.75,3.92c1.15,2.78,0.75,5.54-1.25,8.28
				c-2.01,2.73-5.32,5-9.89,6.69C639.46,645.59,634.93,646.48,629.94,646.72z"/>
		</g>
	</g>
	<g>
		<g>
			<path d="M252.43,865.23c-0.56-13.64-0.81-27.24-0.75-40.78c1.98,0.82,3.96,1.63,5.95,2.43c0.2,10.81,0.59,21.66,1.2,32.54
				c7.75-7.72,15.31-15.56,22.68-23.51c1.62,0.57,3.24,1.14,4.87,1.7c-9.01,10.14-18.31,20.12-27.89,29.91
				C256.46,866.77,254.45,866.01,252.43,865.23z"/>
			<path d="M292.14,879.08c2.74-8.74,5.47-17.48,8.21-26.23c-3.91-1.23-7.82-2.49-11.71-3.79c0.46-1.37,0.92-2.74,1.38-4.11
				c5.8,1.94,11.62,3.79,17.45,5.56c-3.07,10.15-6.14,20.3-9.21,30.46C296.22,880.34,294.18,879.71,292.14,879.08z M303.07,841.61
				c0.72-2.3,1.45-4.6,2.17-6.9c2.37,0.75,4.75,1.48,7.13,2.19c-0.7,2.31-1.39,4.62-2.09,6.93
				C307.87,843.1,305.47,842.36,303.07,841.61z"/>
			<path d="M319.07,885.54c0.45-1.68,0.9-3.36,1.35-5.04c4.24,3.13,8.13,5.12,11.61,5.97c2.5,0.62,4.68,0.65,6.54,0.11
				c1.85-0.54,2.94-1.51,3.26-2.92c0.42-1.81-1.18-3.72-4.75-5.79c-2.01-1.18-4.01-2.37-6-3.56c-4.67-2.79-6.46-6.14-5.45-9.95
				c0.74-2.79,2.43-4.66,5.06-5.61c2.62-0.95,5.95-0.92,10.01,0.07c3.05,0.74,6.48,2.02,10.33,3.83c-0.34,1.52-0.68,3.05-1.03,4.57
				c-3.68-2.01-7.12-3.41-10.35-4.19c-2.17-0.53-3.99-0.59-5.47-0.18c-1.48,0.41-2.38,1.24-2.7,2.49c-0.39,1.53,0.77,3.16,3.52,4.87
				c2.32,1.45,4.66,2.89,7.01,4.31c2.56,1.56,4.32,3.11,5.26,4.65c0.94,1.54,1.19,3.32,0.74,5.34c-0.65,2.94-2.49,4.99-5.55,6.12
				c-3.06,1.13-6.86,1.17-11.35,0.07C327.19,889.75,323.16,888.03,319.07,885.54z"/>
			<path d="M390.06,869.43c-1.66,10.48-3.32,20.95-4.98,31.43c-2.09-0.33-4.18-0.67-6.27-1.02c0.33-1.96,0.66-3.93,0.99-5.89
				c-3.6,3.93-7.94,5.45-12.92,4.52c-6.54-1.23-9.07-5.44-7.63-12.47c1.44-7.11,2.89-14.22,4.33-21.33c1.98,0.4,3.96,0.79,5.94,1.18
				c-1.27,6.61-2.55,13.21-3.82,19.82c-0.47,2.46-0.4,4.27,0.22,5.46c0.62,1.18,1.92,1.96,3.9,2.33c3.11,0.57,6.75-0.91,10.82-4.46
				c1.15-6.84,2.3-13.67,3.45-20.51C386.08,868.79,388.07,869.12,390.06,869.43z"/>
			<path d="M417.97,901.35c-4.11,2.51-8.1,3.52-11.9,3.04c-3.18-0.4-5.69-1.57-7.51-3.5c-1.82-1.93-2.54-4.15-2.18-6.67
				c0.47-3.27,2.41-5.67,5.79-7.24c3.38-1.57,7.6-2.04,12.69-1.46c1.26,0.15,2.53,0.29,3.79,0.42c0.1-0.9,0.2-1.81,0.29-2.71
				c0.24-2.23-0.11-3.88-1.05-4.95c-0.94-1.07-2.61-1.74-5.01-2.02c-3.49-0.42-7.21,0.05-11.21,1.39c0.22-1.64,0.45-3.27,0.67-4.91
				c4.46-0.87,8.52-1.09,12.25-0.65c4.19,0.49,7.06,1.6,8.64,3.37c1.57,1.77,2.18,4.61,1.79,8.51c-0.44,4.42-0.88,8.84-1.31,13.27
				c-0.19,1.91-0.1,3.23,0.28,3.96c0.38,0.73,1.18,1.16,2.42,1.28c0.4,0.04,1.07,0,2-0.11c0.09,1.16,0.17,2.33,0.26,3.49
				c-2.16,0.43-3.79,0.59-4.88,0.48C420.69,906.06,418.74,904.38,417.97,901.35z M417.39,897.52c0.29-2.66,0.58-5.32,0.87-7.98
				c-0.61-0.07-1.23-0.13-1.84-0.2c-8.42-0.95-12.91,0.57-13.48,4.82c-0.2,1.53,0.18,2.83,1.16,3.9c0.98,1.07,2.38,1.72,4.2,1.95
				C411.03,900.34,414.08,899.51,417.39,897.52z"/>
			<path d="M449.34,907.79c0.81-13.95,1.62-27.9,2.43-41.85c-4.2-0.24-8.39-0.53-12.59-0.86c0.11-1.44,0.23-2.88,0.34-4.32
				c6.12,0.48,12.25,0.87,18.38,1.17c-0.74,15.4-1.49,30.8-2.23,46.21C453.56,908.03,451.45,907.91,449.34,907.79z"/>
			<path d="M488.23,908.89c-0.01-9.16-0.03-18.32-0.04-27.48c-4.06,0.01-8.11-0.03-12.17-0.1c0.03-1.45,0.05-2.89,0.08-4.34
				c6.04,0.11,12.07,0.13,18.11,0.06c0.12,10.6,0.24,21.21,0.36,31.81C492.46,908.87,490.34,908.88,488.23,908.89z M487.42,869.87
				c0-2.41,0-4.82,0-7.24c2.46,0,4.92-0.02,7.38-0.05c0.03,2.41,0.06,4.82,0.09,7.24C492.39,869.85,489.9,869.86,487.42,869.87z"/>
			<path d="M514.01,908.34c-0.06-1.44-0.12-2.89-0.18-4.33c7.25-8.02,14.22-16.16,20.92-24.41c-7.03,0.54-14.06,0.95-21.1,1.25
				c-0.06-1.44-0.12-2.89-0.18-4.33c9.36-0.4,18.72-1,28.06-1.82c0.13,1.44,0.25,2.88,0.38,4.32c-6.61,8.33-13.51,16.55-20.67,24.65
				c7.76-0.41,15.52-0.96,23.27-1.64c0.13,1.44,0.26,2.88,0.38,4.32C534.62,907.25,524.32,907.92,514.01,908.34z"/>
			<path d="M575.44,899.03c-3.39,3.42-7.02,5.36-10.82,5.82c-3.18,0.38-5.9-0.16-8.13-1.59c-2.23-1.43-3.46-3.42-3.72-5.94
				c-0.33-3.28,0.97-6.08,3.87-8.42c2.9-2.34,6.88-3.81,11.96-4.47c1.26-0.16,2.52-0.33,3.78-0.5c-0.12-0.9-0.24-1.8-0.37-2.7
				c-0.3-2.22-1.04-3.74-2.21-4.55c-1.17-0.81-2.95-1.06-5.36-0.76c-3.49,0.43-6.98,1.78-10.54,4.05c-0.18-1.64-0.35-3.28-0.53-4.92
				c4.11-1.91,8.01-3.11,11.73-3.58c4.18-0.53,7.24-0.15,9.2,1.19c1.96,1.34,3.23,3.95,3.79,7.83c0.64,4.4,1.28,8.79,1.92,13.19
				c0.28,1.9,0.68,3.15,1.23,3.77c0.54,0.62,1.43,0.84,2.66,0.66c0.4-0.06,1.04-0.26,1.92-0.59c0.37,1.11,0.73,2.22,1.1,3.33
				c-2,0.94-3.55,1.49-4.63,1.65C579.21,902.95,576.92,901.78,575.44,899.03z M573.95,895.45c-0.36-2.65-0.72-5.3-1.08-7.95
				c-0.61,0.08-1.23,0.17-1.84,0.25c-8.41,1.11-12.39,3.66-11.92,7.92c0.17,1.53,0.86,2.7,2.07,3.51c1.21,0.8,2.72,1.1,4.55,0.88
				C568.46,899.72,571.22,898.18,573.95,895.45z"/>
			<path d="M623.66,894.45c-3.01,1.16-5.98,2.03-8.9,2.61c-5.1,1.01-8.73,0.82-10.87-0.51c-2.14-1.33-3.61-4.32-4.43-8.95
				c-0.9-5.04-1.79-10.08-2.69-15.11c-2.75,0.49-5.51,0.96-8.27,1.41c-0.23-1.43-0.47-2.85-0.7-4.28c2.74-0.45,5.48-0.92,8.21-1.4
				c-0.4-2.25-0.8-4.5-1.2-6.75c1.97-0.35,3.93-0.71,5.89-1.08c0.42,2.25,0.84,4.49,1.26,6.74c4.86-0.91,9.7-1.88,14.54-2.91
				c0.3,1.41,0.6,2.83,0.9,4.24c-4.87,1.04-9.75,2.01-14.64,2.93c1,5.34,2,10.67,3.01,16.01c0.34,1.79,0.68,2.99,1.05,3.62
				c0.37,0.63,1,1.11,1.89,1.46c1.59,0.59,3.76,0.62,6.5,0.07c2.59-0.52,5.1-1.32,7.52-2.4
				C623.05,891.58,623.35,893.01,623.66,894.45z"/>
			<path d="M645.73,889.36c-2.22-8.89-4.45-17.77-6.67-26.66c-3.96,0.99-7.93,1.94-11.91,2.86c-0.32-1.41-0.65-2.82-0.97-4.23
				c5.92-1.36,11.82-2.8,17.71-4.34c2.67,10.26,5.35,20.53,8.02,30.79C649.85,888.32,647.79,888.84,645.73,889.36z M635.52,851.69
				c-0.58-2.34-1.17-4.68-1.75-7.02c2.4-0.6,4.81-1.21,7.2-1.84c0.61,2.33,1.22,4.67,1.83,7
				C640.38,850.46,637.95,851.08,635.52,851.69z"/>
			<path d="M686,878.67c-4.95,1.58-9.28,1.35-12.95-0.65c-3.66-1.99-6.2-5.5-7.64-10.47c-1.44-4.95-1.19-9.25,0.68-12.89
				c1.88-3.65,5.13-6.18,9.8-7.67c4.69-1.5,8.82-1.32,12.46,0.57c3.64,1.89,6.33,5.24,8.02,10.11c1.7,4.89,1.66,9.21-0.18,12.96
				C694.36,874.38,690.94,877.09,686,878.67z M684.68,874.54c2.92-0.93,4.86-2.71,5.81-5.31c0.95-2.6,0.8-5.73-0.44-9.4
				c-1.23-3.65-2.98-6.23-5.25-7.76c-2.27-1.53-4.79-1.84-7.6-0.95c-2.81,0.89-4.68,2.61-5.64,5.17c-0.96,2.56-0.89,5.68,0.22,9.37
				c1.12,3.7,2.81,6.35,5.08,7.91C679.15,875.14,681.76,875.47,684.68,874.54z"/>
			<path d="M710.41,869.56c-3.62-9.97-7.25-19.93-10.87-29.9c1.92-0.7,3.83-1.4,5.74-2.12c0.7,1.87,1.4,3.73,2.1,5.6
				c1.1-5.17,3.87-8.6,8.38-10.39c5.94-2.36,10.27-0.3,13.03,6.32c2.78,6.7,5.55,13.41,8.33,20.11c-1.99,0.82-3.98,1.64-5.97,2.44
				c-2.51-6.24-5.03-12.48-7.54-18.72c-0.93-2.3-1.97-3.78-3.13-4.44c-1.16-0.66-2.64-0.63-4.45,0.08
				c-2.88,1.13-5.14,4.23-6.88,9.32c2.43,6.49,4.87,12.98,7.3,19.48C714.44,868.08,712.43,868.83,710.41,869.56z"/>
		</g>
	</g>
	<g>
		<g>
			<path class="st6" d="M347.37,230.1c0-31.32,0-62.65,0-93.97c9.45,0,18.9,0,28.34,0c31.25,0,46.88,15.04,46.88,45.12
				c0,13.92-3.39,25.17-10.18,33.76c-4.25,5.42-9.48,9.29-15.71,11.61c-6.23,2.32-14.51,3.48-24.87,3.48
				C363.67,230.1,355.52,230.1,347.37,230.1z M361.79,219.26c2.42,0,4.83,0,7.25,0c13.77,0,23.57-2.73,29.41-8.2
				c5.83-5.47,8.75-14.65,8.75-27.54c0-13.09-2.64-22.45-7.91-28.09c-5.27-5.64-14.06-8.46-26.37-8.46c-3.71,0-7.42,0-11.13,0
				C361.79,171.07,361.79,195.16,361.79,219.26z"/>
			<path class="st6" d="M489.38,220.5c-8.74,7.32-17.46,10.99-26.15,10.99c-7.28,0-13.27-2.07-17.98-6.23
				c-4.71-4.15-7.07-9.4-7.07-15.75c0-8.25,3.66-14.89,10.99-19.92c7.32-5.03,16.99-7.54,29-7.54c2.98,0,5.96,0,8.94,0
				c0-2.27,0-4.54,0-6.81c0-5.61-1.24-9.62-3.74-12.01c-2.49-2.39-6.62-3.59-12.38-3.59c-8.35,0-16.99,2.34-25.93,7.03
				c0-4.13,0-8.25,0-12.38c10.24-3.66,19.85-5.49,28.82-5.49c10.09,0,17.23,2,21.4,6.01c4.17,4,6.25,10.91,6.25,20.73
				c0,11.11,0,22.22,0,33.33c0,4.79,0.51,8.05,1.54,9.78c1.03,1.73,2.95,2.6,5.79,2.6c0.93,0,2.44-0.24,4.54-0.73
				c0.44,2.88,0.88,5.76,1.32,8.64c-4.82,1.56-8.47,2.34-10.95,2.34C496.66,231.49,491.87,227.83,489.38,220.5z M487.11,211.13
				c0-6.69,0-13.38,0-20.07c-1.44,0-2.88,0-4.32,0c-19.78,0-29.66,5.35-29.66,16.04c0,3.86,1.27,6.96,3.81,9.3
				c2.54,2.34,5.91,3.52,10.11,3.52C473.34,219.92,480.03,216.99,487.11,211.13z"/>
			<path class="st6" d="M599.32,230.03c-7.23,1.27-14.21,1.9-20.95,1.9c-11.77,0-19.78-2.11-24.02-6.34
				c-4.25-4.22-6.37-12.22-6.37-23.99c0-12.79,0-25.59,0-38.38c-6.62,0-13.23,0-19.85,0c0-3.61,0-7.23,0-10.84
				c6.62,0,13.23,0,19.85,0c0-5.71,0-11.43,0-17.14c4.81,0,9.62,0,14.43,0c0,5.71,0,11.43,0,17.14c11.77,0,23.54,0,35.3,0
				c0,3.61,0,7.23,0,10.84c-11.77,0-23.54,0-35.3,0c0,13.57,0,27.15,0,40.72c0,4.54,0.28,7.67,0.84,9.38
				c0.56,1.71,1.77,3.2,3.63,4.47c3.33,2.2,8.17,3.3,14.53,3.3c6.02,0,11.99-0.68,17.91-2.05
				C599.32,222.7,599.32,226.36,599.32,230.03z"/>
			<path class="st6" d="M670.14,220.5c-8.74,7.32-17.46,10.99-26.15,10.99c-7.28,0-13.27-2.07-17.98-6.23
				c-4.71-4.15-7.07-9.4-7.07-15.75c0-8.25,3.66-14.89,10.99-19.92c7.32-5.03,16.99-7.54,29-7.54c2.98,0,5.96,0,8.94,0
				c0-2.27,0-4.54,0-6.81c0-5.61-1.25-9.62-3.74-12.01c-2.49-2.39-6.62-3.59-12.38-3.59c-8.35,0-16.99,2.34-25.93,7.03
				c0-4.13,0-8.25,0-12.38c10.24-3.66,19.85-5.49,28.82-5.49c10.09,0,17.23,2,21.4,6.01c4.17,4,6.25,10.91,6.25,20.73
				c0,11.11,0,22.22,0,33.33c0,4.79,0.51,8.05,1.54,9.78c1.03,1.73,2.95,2.6,5.79,2.6c0.93,0,2.44-0.24,4.54-0.73
				c0.44,2.88,0.88,5.76,1.32,8.64c-4.82,1.56-8.47,2.34-10.95,2.34C677.42,231.49,672.63,227.83,670.14,220.5z M667.87,211.13
				c0-6.69,0-13.38,0-20.07c-1.44,0-2.88,0-4.32,0c-19.78,0-29.66,5.35-29.66,16.04c0,3.86,1.27,6.96,3.81,9.3
				c2.54,2.34,5.91,3.52,10.11,3.52C654.1,219.92,660.79,216.99,667.87,211.13z"/>
		</g>
	</g>
</g>
</svg>
