<?xml version="1.0" encoding="utf-8"?>
<!-- Generator: Adobe Illustrator 24.2.3, SVG Export Plug-In . SVG Version: 6.00 Build 0)  -->
<svg version="1.1" id="Layer_1" xmlns="http://www.w3.org/2000/svg" xmlns:xlink="http://www.w3.org/1999/xlink" x="0px" y="0px"
	 viewBox="0 0 612 792" style="enable-background:new 0 0 612 792;" xml:space="preserve">
<style type="text/css">
	.st0{fill:#FFFFFF;}
	.st1{fill:#4DABD4;}
	.st2{fill:none;stroke:#000000;stroke-miterlimit:10;}
	.st3{fill:none;stroke:#086483;stroke-width:2.0072;stroke-miterlimit:10;}
	.st4{fill:none;}
	.st5{fill:#086483;}
	.st6{font-family:'CenturyGothic-BoldItalic';}
	.st7{font-size:40px;}
	.st8{font-family:'FranklinGothic-HeavyItalic';}
	.st9{font-size:9px;}
	.st10{font-family:'FranklinGothic-Heavy';}
	.st11{font-family:'CenturyGothic-Bold';}
	.st12{font-size:16px;}
	.st13{fill:#3F8EB1;}
	.st14{font-size:14px;}
	.st15{font-size:10px;}
	.st16{font-family:'CenturyGothic';}
	.st17{font-family:'MyriadPro-Regular';}
	.st18{letter-spacing:33;}
	.st19{letter-spacing:29;}
	.st20{letter-spacing:32;}
	.st21{letter-spacing:-1;}
	.st22{font-family:'CenturyGothic-Italic';}
	.st23{fill:#7E9CD0;stroke:#000000;stroke-width:0.3045;stroke-miterlimit:10;}
	.st24{stroke:#000000;stroke-width:0.3507;stroke-miterlimit:10;}
	.st25{fill:#FFFFFF;stroke:#000000;stroke-width:0.2928;stroke-miterlimit:9.9999;}
	.st26{fill:#9D9FA2;stroke:#000000;stroke-width:0.1883;stroke-miterlimit:10;}
	.st27{fill:#FFFFFF;stroke:#000000;stroke-width:0.3678;stroke-miterlimit:10;}
	.st28{fill:#FFFFFF;stroke:#000000;stroke-width:0.3242;stroke-miterlimit:10;}
	.st29{fill:#FFFFFF;stroke:#000000;stroke-width:0.4506;stroke-miterlimit:10;}
	.st30{fill:#FFFFFF;stroke:#000000;stroke-width:0.3507;stroke-miterlimit:10;}
	.st31{fill:#BD9443;stroke:#000000;stroke-width:0.5957;stroke-miterlimit:10;}
	.st32{fill:#EF3C23;stroke:#000000;stroke-width:0.5957;stroke-miterlimit:10;}
	.st33{fill:#FAA51D;stroke:#000000;stroke-width:0.5957;stroke-miterlimit:10;}
	.st34{fill:#FFF200;stroke:#000000;stroke-width:0.5957;stroke-miterlimit:10;}
	.st35{fill:#0A8C44;stroke:#000000;stroke-width:0.5957;stroke-miterlimit:10;}
	.st36{fill:#36489E;stroke:#000000;stroke-width:0.5957;stroke-miterlimit:10;}
	.st37{fill:#904B9D;stroke:#000000;stroke-width:0.5957;stroke-miterlimit:10;}
	.st38{fill:#4DABD4;stroke:#000000;stroke-width:0.5957;stroke-miterlimit:9.9998;}
	.st39{fill:#925E2E;stroke:#000000;stroke-width:0.4468;stroke-miterlimit:10;}
	.st40{fill:#FAA51D;}
	.st41{fill:#997834;stroke:#000000;stroke-width:0.5957;stroke-miterlimit:10;}
	.st42{opacity:0.55;}
	.st43{fill:#795E24;}
	.st44{stroke:#000000;stroke-width:9.430000e-02;stroke-miterlimit:10;}
	.st45{fill:#FFFFFF;stroke:#000000;stroke-width:9.560000e-02;stroke-miterlimit:10;}
	.st46{fill:#FFFFFF;stroke:#000000;stroke-width:9.430000e-02;stroke-miterlimit:10;}
	.st47{fill:#E52625;stroke:#000000;stroke-width:9.560000e-02;stroke-miterlimit:10;}
	.st48{fill:#E52625;stroke:#000000;stroke-width:9.430000e-02;stroke-miterlimit:10;}
	.st49{fill:#E52625;}
	.st50{fill:none;stroke:#FFFFFF;stroke-width:0.1886;stroke-miterlimit:10;}
	.st51{fill:#848689;stroke:#000000;stroke-width:0.2809;stroke-miterlimit:10;}
	.st52{fill:#BEA758;stroke:#000000;stroke-width:0.3366;stroke-miterlimit:10;}
	.st53{fill:#848689;stroke:#000000;stroke-width:0.3366;stroke-miterlimit:10;}
	.st54{fill:#848689;}
	.st55{fill:#FFFFFF;stroke:#000000;stroke-width:0.3517;stroke-miterlimit:10;}
	.st56{fill:none;stroke:#000000;stroke-width:0.3517;stroke-miterlimit:10;}
	.st57{fill:#EF4825;}
</style>
<g id="Layer_4">
	<rect class="st0" width="612" height="792"/>
</g>
<g id="Layer_3">
	<rect class="st1" width="113.3" height="792"/>
	<line class="st2" x1="0" y1="103.9" x2="612" y2="103.9"/>
	<rect x="203.1" y="14.5" class="st3" width="321.7" height="46"/>
</g>
<g id="Layer_2_1_">
	<g>
		<rect x="203.1" y="20.9" class="st4" width="324" height="36.2"/>
		<text transform="matrix(1 0 0 1 225.5277 50.3406)" class="st5 st6 st7">Nathan Kanter</text>
	</g>
	<rect x="10.4" y="11.4" class="st4" width="102.8" height="98"/>
	<text transform="matrix(1 0 0 1 10.4385 17.4403)" class="st0 st8 st9">261 W. Wood St, Apt #7</text>
	<text transform="matrix(1 0 0 1 10.4385 28.2403)" class="st0 st8 st9">W. Lafayette, IN 47906</text>
	<text transform="matrix(1 0 0 1 10.4385 39.0403)" class="st0 st8 st9">(603) 714-2234</text>
	<text transform="matrix(1 0 0 1 10.4385 49.8403)" class="st0 st10 st9">nkanter@purdue.edu</text>
	<rect x="15.2" y="120.7" class="st4" width="99.1" height="36.3"/>
	<text transform="matrix(1 0 0 1 15.2416 132.5148)" class="st0 st11 st12">Objective</text>
	<rect x="116.9" y="114.5" class="st4" width="470" height="62.8"/>
	<text transform="matrix(1 0 0 1 139.3933 124.8156)" class="st13 st6 st14">To make creative visuals that appeal artistically, while assisting </text>
	<text transform="matrix(1 0 0 1 246.1833 141.6156)" class="st13 st6 st14">someone to reach an endgoal.</text>
	<line class="st2" x1="0" y1="153.9" x2="612" y2="153.9"/>
	<rect x="10.9" y="156.7" class="st4" width="96" height="36.3"/>
	<text transform="matrix(1 0 0 1 10.8949 168.4597)" class="st0 st11 st12">Experience</text>
	<g>
		<rect x="134.6" y="484.5" class="st4" width="451.1" height="11.5"/>
		<text transform="matrix(1 0 0 1 134.5747 491.8118)" class="st13 st6 st15">UPS, LOUISVILLE, KY </text>
		<text transform="matrix(1 0 0 1 229.1647 491.8118)" class="st16 st15">–  Business Analysis and Information Technology Intern</text>
	</g>
	<rect x="158.3" y="502.6" class="st4" width="383.5" height="180.3"/>
	<text transform="matrix(1 0 0 1 158.2687 509.9368)" class="st11 st15">+</text>
	<text transform="matrix(1 0 0 1 164.2687 509.9368)" class="st16 st15"> Microsoft Power BI Financial Dashboards</text>
	<text transform="matrix(1 0 0 1 158.2687 525.9368)" class="st17 st15 st18"> </text>
	<text transform="matrix(1 0 0 1 194.2687 525.9368)" class="st17 st14">• </text>
	<text transform="matrix(1 0 0 1 201.1887 525.9368)" class="st16 st9">Created visual representation of financial data for senior </text>
	<text transform="matrix(1 0 0 1 449.6387 525.9368)" class="st16 st9 st19"> </text>
	<text transform="matrix(1 0 0 1 482.2687 525.9368)" class="st16 st9 st20">  </text>
	<text transform="matrix(1 0 0 1 158.2687 541.9368)" class="st16 st9 st20"> </text>
	<text transform="matrix(1 0 0 1 194.2687 541.9368)" class="st16 st9">   management to identify resource allocations for company projects</text>
	<text transform="matrix(1 0 0 1 158.2687 557.9368)" class="st17 st15 st18"> </text>
	<text transform="matrix(1 0 0 1 194.2687 557.9368)" class="st17 st14">•</text>
	<text transform="matrix(1 0 0 1 198.2187 557.9368)" class="st17 st15"> </text>
	<text transform="matrix(1 0 0 1 200.3387 557.9368)" class="st16 st9">Manipulated large amounts of data to present vital information to         </text>
	<text transform="matrix(1 0 0 1 158.2687 573.9368)" class="st16 st9 st20"> </text>
	<text transform="matrix(1 0 0 1 194.2687 573.9368)" class="st16 st9">   senior management</text>
	<text transform="matrix(1 0 0 1 158.2687 589.9368)" class="st11 st15">+</text>
	<text transform="matrix(1 0 0 1 164.2687 589.9368)" class="st16 st15"> Scrum Master and Business Analyst for Agile Development Team</text>
	<text transform="matrix(1 0 0 1 158.2687 605.9368)" class="st17 st15 st18"> </text>
	<text transform="matrix(1 0 0 1 194.2687 605.9368)" class="st17 st14">•</text>
	<text transform="matrix(1 0 0 1 198.2187 605.9368)" class="st16 st14"> </text>
	<text transform="matrix(1 0 0 1 202.0887 605.9368)" class="st16 st9">Met with product owner to analyze the business problem to find </text>
	<text transform="matrix(1 0 0 1 481.9987 605.9368)" class="st16 st9 st21"> </text>
	<text transform="matrix(1 0 0 1 158.2687 621.9368)" class="st16 st9 st20"> </text>
	<text transform="matrix(1 0 0 1 194.2687 621.9368)" class="st16 st9">   potential solutions that were both financially and technically feasible</text>
	<text transform="matrix(1 0 0 1 158.2687 637.9368)" class="st17 st15 st18"> </text>
	<text transform="matrix(1 0 0 1 194.2687 637.9368)" class="st17 st14">•</text>
	<text transform="matrix(1 0 0 1 198.2187 637.9368)" class="st17 st15"> </text>
	<text transform="matrix(1 0 0 1 200.3387 637.9368)" class="st16 st9">Created user stories based on the product owner’s need</text>
	<text transform="matrix(1 0 0 1 158.2687 655.9368)" class="st17 st15 st18"> </text>
	<text transform="matrix(1 0 0 1 194.2687 655.9368)" class="st17 st14">•</text>
	<text transform="matrix(1 0 0 1 198.2187 655.9368)" class="st16 st15"> </text>
	<text transform="matrix(1 0 0 1 200.9887 655.9368)" class="st16 st9">Communicated user story acceptance criteria to the team to  </text>
	<text transform="matrix(1 0 0 1 158.2687 673.9368)" class="st16 st9 st20"> </text>
	<text transform="matrix(1 0 0 1 194.2687 673.9368)" class="st16 st9">   estimate and create sprint schedules</text>
	<g>
		<rect x="203.1" y="72.5" class="st4" width="324" height="14.5"/>
		<text transform="matrix(1 0 0 1 275.8124 82.811)" class="st5 st6 st14">Portfolio: nathankanter.net</text>
	</g>
	<rect x="5.9" y="482" class="st4" width="101.3" height="14.3"/>
	<text transform="matrix(1 0 0 1 5.9476 489.3661)" class="st0 st22 st15">Jun 2019 - Aug 2019</text>
	<line class="st2" x1="0" y1="680" x2="612" y2="680"/>
	<rect x="19.8" y="688.9" class="st4" width="79.9" height="18.1"/>
	<text transform="matrix(1 0 0 1 19.7663 700.6489)" class="st0 st11 st12">Education</text>
	<g>
		<rect x="136.6" y="698.3" class="st4" width="451.1" height="11.5"/>
		<text transform="matrix(1 0 0 1 136.5661 705.6333)" class="st13 st6 st15">Bachelor of Science </text>
		<text transform="matrix(1 0 0 1 236.5661 705.6333)" class="st16 st15">–  Purdue University, West Lafayette</text>
	</g>
	<rect x="136.6" y="721.5" class="st4" width="188.6" height="16.2"/>
	<text transform="matrix(1 0 0 1 136.5626 728.838)" class="st11 st15">+</text>
	<text transform="matrix(1 0 0 1 142.5626 728.838)" class="st16 st15"> DoubleMajor </text>
	<rect x="9" y="710.2" class="st4" width="101.3" height="14.3"/>
	<text transform="matrix(1 0 0 1 9.0429 717.5283)" class="st0 st22 st15">Aug 2018 - Present</text>
	<rect x="24" y="776.5" class="st23" width="17" height="3.7"/>
	<rect x="29.9" y="762" class="st24" width="4.6" height="13"/>
	<path class="st24" d="M22.1,779.4h2.5c0,0,0.2-2.4,2.3-2.4s5.3,0,5.3,0c0-0.6,0-1.2,0-1.8c-1-0.1-5.8-0.4-8,0.4
		c-0.4,0.1-0.7,0.3-0.9,0.5C22.1,777.2,22.1,778.8,22.1,779.4z"/>
	<path class="st24" d="M42.3,779.4h-2.5c0,0-0.2-2.4-2.3-2.4s-5.3,0-5.3,0c0-0.6,0-1.2,0-1.8c1-0.1,5.8-0.4,8,0.4
		c0.3,0.1,0.7,0.3,0.9,0.5C42.3,777.2,42.3,778.8,42.3,779.4z"/>
	<rect x="22.1" y="779.4" class="st24" width="20.2" height="1.5"/>
	<path class="st24" d="M48.3,763.7H14.8c-2,0-3.6-1.6-3.6-3.6v-18.8c0-2,1.6-3.6,3.6-3.6h33.5c2,0,3.6,1.6,3.6,3.6v18.8
		C51.9,762.1,50.3,763.7,48.3,763.7z"/>
	<path class="st23" d="M45.6,762H17.5c-2,0-3.6-1.6-3.6-3.6V743c0-2,1.6-3.6,3.6-3.6h28.1c2,0,3.6,1.6,3.6,3.6v15.4
		C49.2,760.4,47.6,762,45.6,762z"/>
	
		<rect x="17.7" y="750.8" transform="matrix(0.6638 -0.7479 0.7479 0.6638 -554.8651 269.2554)" class="st25" width="8.7" height="1.9"/>
	
		<rect x="28.8" y="747" transform="matrix(0.6638 -0.7479 0.7479 0.6638 -551.9523 274.8859)" class="st25" width="1.9" height="8.7"/>
	
		<rect x="33.1" y="749.7" transform="matrix(0.6638 -0.7479 0.7479 0.6638 -548.8566 280.3663)" class="st25" width="8.7" height="1.9"/>
	<path class="st26" d="M46.1,748.8"/>
	<ellipse class="st27" cx="19.3" cy="755.2" rx="3.1" ry="2.5"/>
	<circle class="st27" cx="19.3" cy="755.2" r="1.1"/>
	<ellipse class="st28" cx="25.9" cy="747.8" rx="2.8" ry="2.2"/>
	<circle class="st28" cx="25.9" cy="747.8" r="1"/>
	<ellipse class="st29" cx="34.2" cy="755.2" rx="3.7" ry="3.1"/>
	<ellipse class="st30" cx="34.2" cy="755.2" rx="2" ry="1.5"/>
	<ellipse class="st30" cx="41.8" cy="746.2" rx="4.8" ry="3.7"/>
	<ellipse class="st30" cx="41.8" cy="746.2" rx="2.6" ry="2.1"/>
	<path class="st31" d="M103.7,748.2c0,0-3.7-7-17.1-4.3c-13.4,2.7-17,8.3-17,8.3s-5.8,6.5-5.2,15.2c0.6,8.6,4.8,11.6,4.8,11.6
		s2.7,2.8,8.9,3.4s11.8-1.5,11.8-1.5l8-3.9c0,0,5.7-3.7,5.8-5.7s-3.4-3.1-3.4-3.1l-5.5-3.3c0,0-1.2-1.3,0.2-3.1s6.8-5.4,6.8-5.4
		S107.4,753.3,103.7,748.2z"/>
	<circle class="st32" cx="93" cy="748.2" r="3.1"/>
	<circle class="st33" cx="83" cy="750.5" r="3.1"/>
	<circle class="st34" cx="73.4" cy="756.7" r="3.1"/>
	<circle class="st35" cx="68.6" cy="766" r="3.1"/>
	<circle class="st36" cx="71.7" cy="774.4" r="3.1"/>
	<circle class="st37" cx="80" cy="778.8" r="3.1"/>
	<ellipse transform="matrix(0.866 -0.5 0.5 0.866 -373.5194 151.2443)" class="st38" cx="95.5" cy="772.6" rx="4.8" ry="3"/>
	<path class="st39" d="M67.6,735.3c0,0,4,1.5,5.1,2.9c1.1,1.4,1.3,1.2,1.4,2.1c0.1,0.9,0.3,2.7,0.3,2.7l-2.8,1.8
		c0,0-1.8,0.4-2.9-2.7C67.6,739,67.6,735.3,67.6,735.3z"/>
	<g>
		<path class="st40" d="M67.6,735.1c-0.1,0.5,0.4,1,0.2,1.5c-0.1,0.2-0.2,0.3-0.3,0.5c-0.1,0.2,0,0.5,0.1,0.7c0.2,0.3,0.3,0.7,0.5,1
			c0.1-0.1,0.2-0.3,0.1-0.5c-0.1,0.2-0.2,0.4-0.2,0.5c0,0.1,0.1,0.3,0.2,0.3c0.2,0.1,0.5-0.1,0.6-0.3s0-0.5-0.1-0.7
			c-0.1-0.2-0.3-0.4-0.3-0.6c-0.1-0.3-0.2-0.6-0.3-0.9c0,0-0.1-0.1-0.1-0.1c-0.1,0-0.1,0-0.1,0c-0.3,0.2-0.3,0.5-0.2,0.8
			c0.1-0.3,0.1-0.7,0.2-1c0-0.1,0.1-0.2,0.1-0.2c0.1-0.1,0.3,0,0.4,0.2c0.4,0.5,0.8,1.1,1.1,1.7c-0.2-0.1-0.3-0.3-0.2-0.5
			c0-0.2,0.2-0.3,0.4-0.3c0.1,0,0.1,0.1,0.2,0.1c0.2,0,0.3-0.2,0.3-0.3c0-0.2-0.2-0.3-0.3-0.4c-0.5-0.4-1.1-0.8-1.6-1.1
			c0,0-0.1,0.1-0.1,0.2c0.6,0.6,1.2,1.2,1.8,1.7c-0.2-0.2-0.4-0.3-0.7-0.5c0,0-0.1-0.1-0.1-0.1c0,0,0.1,0,0.1,0"/>
	</g>
	<polygon class="st41" points="73.1,749.8 93,783.1 95.9,786.6 94.9,782.7 77.4,746.7 74.4,743 71.6,744.7 	"/>
	<g class="st42">
		<g>
			<path class="st43" d="M74.9,750.6C74.9,750.6,74.9,750.6,74.9,750.6C74.9,750.6,74.9,750.6,74.9,750.6c0.1,0,0.1,0,0.1,0
				s0.1,0,0.1,0c0,0,0.1,0,0.1,0c0,0,0.1,0,0.1,0c0,0,0.1,0.1,0,0c0,0,0.1,0.1,0,0c0,0,0,0,0,0c0,0,0,0,0,0c0,0.1,0-0.1,0,0
				c0,0,0,0,0,0c0,0,0,0,0,0c0,0,0,0.1,0,0.1c0,0,0,0.1-0.1,0.1c-0.1,0.2-0.2,0.4-0.1,0.6c0.1,0.4,0.5,0.5,0.9,0.7
				c0.3,0.2,0.7,0.4,1,0.6c0.2,0.1,0.4,0,0.5-0.1c0.1-0.2,0.1-0.4-0.1-0.5c-0.4-0.2-0.7-0.4-1.1-0.6c-0.1,0-0.2-0.1-0.3-0.2
				c0,0-0.1,0-0.1-0.1c0,0-0.1-0.1-0.1,0c0,0-0.1,0-0.1-0.1c0,0,0,0,0,0c0,0,0,0,0,0c0,0,0,0,0,0c0,0,0,0,0,0s0,0,0,0c0,0,0,0,0,0
				c0.1-0.2,0.2-0.3,0.2-0.5c0-0.2-0.1-0.4-0.2-0.5c-0.2-0.2-0.6-0.3-0.9-0.3c-0.2,0-0.4,0.2-0.4,0.4
				C74.5,750.4,74.7,750.6,74.9,750.6L74.9,750.6z"/>
		</g>
	</g>
	<g class="st42">
		<g>
			<path class="st43" d="M74.7,744.6c-0.5,0.3-0.5,1-0.2,1.4c0.2,0.2,0.3,0.4,0.5,0.5c0,0,0.1,0.1,0.1,0.1c0,0,0,0,0.1,0.1
				c0,0,0,0,0,0c0,0,0.1,0.1,0.1,0.1c0-0.1,0,0,0,0c0,0,0,0.1,0,0.1c0,0.2,0.3,0.3,0.5,0.3c0.2-0.1,0.3-0.3,0.3-0.5
				c-0.1-0.5-0.5-0.7-0.8-1c0,0-0.1-0.1-0.1-0.1c0,0,0,0,0,0c0,0,0,0,0-0.1c0,0,0,0,0-0.1c0-0.1,0,0,0,0c0,0,0,0,0-0.1
				c0-0.1,0,0,0,0c0,0,0-0.1,0-0.1c0,0,0,0.1,0,0c0,0,0-0.1,0-0.1c0,0,0,0.1,0,0c0,0,0,0,0,0c0,0,0,0,0,0c0,0,0,0,0,0c0,0,0,0,0,0
				c0,0-0.1,0,0,0c0.2-0.1,0.2-0.3,0.1-0.5C75.1,744.6,74.9,744.5,74.7,744.6L74.7,744.6z"/>
		</g>
	</g>
	<g class="st42">
		<g>
			<path class="st43" d="M79.3,756.5c0.3,1,0.7,2.1,1.6,2.6c0.2,0.1,0.4,0,0.5-0.1c0.1-0.2,0-0.4-0.1-0.5c-0.1,0-0.1-0.1-0.2-0.1
				s0,0,0,0c0,0,0,0-0.1-0.1c-0.1-0.1-0.2-0.2-0.2-0.2c0,0,0,0-0.1-0.1c0,0,0,0,0,0c0,0-0.1-0.1-0.1-0.1c-0.1-0.1-0.1-0.2-0.2-0.3
				c-0.1-0.1-0.1-0.2-0.2-0.3c0-0.1,0,0.1,0,0c0,0,0-0.1,0-0.1c0,0,0-0.1-0.1-0.2c-0.1-0.2-0.2-0.5-0.2-0.7
				c-0.1-0.2-0.3-0.3-0.5-0.3C79.4,756,79.3,756.3,79.3,756.5L79.3,756.5z"/>
		</g>
	</g>
	<g class="st42">
		<g>
			<path class="st43" d="M83.3,764.7C83.2,764.8,83.2,764.8,83.3,764.7C83.2,764.7,83.2,764.7,83.3,764.7c0,0-0.1,0-0.1,0
				c0.1,0-0.1,0,0,0c0.1,0,0,0,0,0l0,0c0,0-0.1-0.1,0,0L83.3,764.7c-0.1,0-0.1,0-0.1,0C83.1,764.8,83.2,764.8,83.3,764.7
				C83.2,764.9,83.2,764.8,83.3,764.7c-0.1,0.1-0.1,0.1-0.1,0.1s0,0,0,0.1c0,0,0-0.1,0,0c0,0.1-0.1,0.3-0.1,0.4
				c-0.1,0.5,0.2,0.9,0.6,1.1c0.2,0.1,0.4,0.1,0.5-0.1c0.1-0.2,0.1-0.4-0.1-0.5c0,0-0.1-0.1-0.1-0.1c0,0,0,0,0,0c0,0,0,0,0,0
				c0,0,0,0,0,0c0,0,0,0.1,0,0c0,0,0,0,0-0.1c0,0,0,0,0,0c0,0,0,0,0,0c0,0,0,0,0-0.1c0,0,0,0,0,0c0,0,0,0,0,0c0,0,0,0,0,0
				c0,0,0,0,0,0c0,0,0,0,0-0.1c0,0,0,0,0-0.1c0,0,0,0,0,0c0,0,0-0.1,0-0.2c0-0.1,0-0.2,0-0.2c0-0.3,0-0.5-0.2-0.7
				c-0.1-0.1-0.2-0.2-0.3-0.2c-0.2,0-0.3,0-0.5,0c-0.2,0.1-0.2,0.3-0.1,0.5C82.9,764.8,83.1,764.8,83.3,764.7L83.3,764.7z"/>
		</g>
	</g>
	<g class="st42">
		<g>
			<path class="st43" d="M89.1,771.4c-0.4-0.3-1-0.7-1-1.3c0-0.2,0-0.4,0-0.6s-0.1-0.4-0.1-0.5c-0.2-0.4-0.4-0.7-0.6-1
				c-0.1-0.2-0.4-0.1-0.5,0c-0.2,0.2-0.1,0.4,0,0.5c0.2,0.3,0.4,0.5,0.5,0.8c0.1,0.2,0,0.4,0,0.5s0,0.4,0,0.6
				c0.2,0.7,0.8,1.2,1.3,1.6c0.2,0.1,0.4,0,0.5-0.1C89.4,771.8,89.3,771.5,89.1,771.4L89.1,771.4z"/>
		</g>
	</g>
	<g class="st42">
		<g>
			<path class="st43" d="M89.2,775.3c-0.1,1.1,0.4,2.2,1.3,2.8c0.2,0.1,0.4,0,0.5-0.1c0.1-0.2,0-0.4-0.1-0.5c0,0-0.1-0.1-0.1,0
				c0,0,0,0,0,0c0,0-0.1-0.1-0.1-0.1c-0.1-0.1-0.2-0.2-0.2-0.2c-0.1-0.1,0,0,0,0c0,0,0,0,0-0.1c0,0-0.1-0.1-0.1-0.1
				c-0.1-0.1-0.1-0.2-0.2-0.3c0-0.1,0,0,0,0c0,0,0-0.1,0-0.1c0,0,0-0.1-0.1-0.2c0-0.1-0.1-0.2-0.1-0.3c0-0.1,0,0,0,0
				c0,0,0-0.1,0-0.1c0-0.1,0-0.1,0-0.2c0-0.1,0-0.2,0-0.3c0-0.2-0.2-0.4-0.4-0.4C89.3,774.9,89.2,775.1,89.2,775.3L89.2,775.3z"/>
		</g>
	</g>
	<g class="st42">
		<g>
			<path class="st43" d="M82.7,761c-0.3,0.7,0,1.6,0.6,2.1c0.3,0.2,0.6,0.4,0.8,0.7c0.2,0.3,0.3,0.6,0.3,1c0,0.5,0.8,0.5,0.7,0
				c0-0.8-0.4-1.5-1-2c-0.3-0.2-0.6-0.4-0.7-0.7c-0.1-0.3-0.1-0.6,0-0.9c0.1-0.2-0.1-0.4-0.3-0.5C82.9,760.7,82.8,760.8,82.7,761
				L82.7,761z"/>
		</g>
	</g>
	<g class="st42">
		<g>
			<path class="st43" d="M74.9,747.3c-0.2,0.1-0.3,0.3-0.3,0.6c0.1,0.2,0.3,0.4,0.5,0.5c0.5,0.2,0.9,0.4,1.4,0.5
				c0.1,0,0.2,0,0.3-0.2c0-0.1,0-0.3-0.2-0.3c-0.4-0.1-0.8-0.2-1.1-0.4c-0.1,0-0.3-0.1-0.4-0.2c0,0,0,0,0,0c0,0,0,0,0,0c0,0,0,0,0,0
				c0,0,0,0,0,0c0,0,0,0,0,0c0,0,0,0,0,0c0,0,0,0,0,0c0,0,0,0,0,0c0,0,0,0,0,0c0,0,0,0,0,0c0.1,0,0.2-0.2,0.2-0.3
				C75.1,747.3,75,747.3,74.9,747.3L74.9,747.3z"/>
		</g>
	</g>
	<g class="st42">
		<g>
			<path class="st43" d="M79.3,753.4c-0.4,0.1-0.8,0.2-1.1,0.4c-0.1,0-0.1,0.2-0.1,0.3c0,0.1,0.1,0.2,0.1,0.3c0,0.1,0.2,0.2,0.3,0.2
				c0.1,0,0.2-0.2,0.2-0.3c0-0.1-0.1-0.2-0.1-0.3c0,0.1-0.1,0.2-0.1,0.3c0,0,0,0,0,0c0,0,0,0,0,0s0,0,0.1,0c0,0,0.1,0,0.1,0
				c0.1,0,0.2-0.1,0.3-0.1c0.2-0.1,0.3-0.1,0.5-0.2c0.1,0,0.2-0.2,0.2-0.3C79.5,753.5,79.4,753.4,79.3,753.4L79.3,753.4z"/>
		</g>
	</g>
	<g class="st42">
		<g>
			<path class="st43" d="M79.3,757.6c-0.3,0.8-0.1,1.7,0.5,2.3c0.2,0.2,0.5-0.1,0.3-0.3c-0.4-0.5-0.6-1.2-0.4-1.8
				C79.8,757.4,79.4,757.3,79.3,757.6L79.3,757.6z"/>
		</g>
	</g>
	<g class="st42">
		<g>
			<path class="st43" d="M85.6,769c-0.1,0.4,0.2,0.8,0.5,1c0.1,0.1,0.3,0.2,0.4,0.3c0.1,0.1,0.1,0.1,0.1,0.2c0,0,0,0,0,0s0,0,0,0
				c0,0,0,0,0,0c0,0,0,0.1,0,0c0,0.1,0,0.2,0.2,0.3c0.1,0,0.3,0,0.3-0.2c0-0.2,0-0.4-0.1-0.6c-0.1-0.2-0.3-0.3-0.4-0.4
				c-0.1-0.1-0.3-0.2-0.4-0.3c0,0,0,0-0.1-0.1c0,0,0,0,0,0c0,0,0-0.1,0,0c0,0,0,0,0-0.1c0,0,0,0,0,0c0-0.1,0-0.1,0-0.1
				c0-0.1,0-0.2-0.2-0.3C85.7,768.8,85.6,768.9,85.6,769L85.6,769z"/>
		</g>
	</g>
	<rect x="365.6" y="715.7" class="st4" width="188.6" height="71"/>
	<text transform="matrix(1 0 0 1 365.6275 738.2951)" class="st11 st15">+</text>
	<text transform="matrix(1 0 0 1 371.6275 738.2951)" class="st16 st15"> Estimated Graduation: May 2022</text>
	<text transform="matrix(1 0 0 1 365.6275 754.2951)" class="st11 st15">+</text>
	<text transform="matrix(1 0 0 1 371.6275 754.2951)" class="st16 st15"> In Major GPA: 3.95</text>
	<text transform="matrix(1 0 0 1 365.6275 770.2951)" class="st11 st15">+</text>
	<text transform="matrix(1 0 0 1 371.6275 770.2951)" class="st16 st15"> Overall GPA: 3.86</text>
	<rect x="151.2" y="751.2" class="st4" width="150.1" height="17.7"/>
	<text transform="matrix(1 0 0 1 151.1865 761.1168)" class="st17 st14">• </text>
	<text transform="matrix(1 0 0 1 158.1065 761.1168)" class="st16 st9">Web Programming and Design</text>
	<rect x="151.2" y="736" class="st4" width="150.1" height="12.2"/>
	<text transform="matrix(1 0 0 1 151.1865 746.3008)" class="st17 st14">•</text>
	<text transform="matrix(1 0 0 1 155.1365 746.3008)" class="st16 st14"> </text>
	<text transform="matrix(1 0 0 1 159.0065 746.3008)" class="st16 st9">Data Visualization</text>
	<text transform="matrix(1 0 0 1 236.5865 746.3008)" class="st16 st15"> </text>
	<rect x="21.7" y="236.3" class="st23" width="17" height="3.6"/>
	<rect x="27.6" y="221.8" class="st24" width="4.6" height="13"/>
	<path class="st24" d="M19.8,239.2h2.5c0,0,0.2-2.4,2.3-2.4s5.3,0,5.3,0c0-0.6,0-1.2,0-1.8c-1-0.1-5.8-0.4-8,0.4
		c-0.4,0.1-0.7,0.3-0.9,0.5C19.8,236.9,19.7,238.5,19.8,239.2z"/>
	<path class="st24" d="M40,239.2h-2.5c0,0-0.2-2.4-2.3-2.4s-5.3,0-5.3,0c0-0.6,0-1.2,0-1.8c1-0.1,5.8-0.4,8,0.4
		c0.3,0.1,0.7,0.3,0.9,0.5C39.9,236.9,40,238.5,40,239.2z"/>
	<rect x="19.8" y="239.5" class="st24" width="20.2" height="1.5"/>
	<path class="st24" d="M46,223.5H12.5c-2,0-3.6-1.6-3.6-3.6V201c0-2,1.6-3.6,3.6-3.6H46c2,0,3.6,1.6,3.6,3.6v18.8
		C49.6,221.8,48,223.5,46,223.5z"/>
	<path class="st23" d="M43.3,221.8H15.1c-2,0-3.6-1.6-3.6-3.6v-15.4c0-2,1.6-3.6,3.6-3.6h28.1c2,0,3.6,1.6,3.6,3.6v15.4
		C46.9,220.1,45.3,221.8,43.3,221.8z"/>
	
		<rect x="15.4" y="210.6" transform="matrix(0.6638 -0.7479 0.7479 0.6638 -151.5874 85.8947)" class="st25" width="8.7" height="1.9"/>
	
		<rect x="26.5" y="206.8" transform="matrix(0.6638 -0.7479 0.7479 0.6638 -148.6557 91.519)" class="st25" width="1.9" height="8.7"/>
	
		<rect x="30.8" y="209.5" transform="matrix(0.6638 -0.7479 0.7479 0.6638 -145.5787 97.0056)" class="st25" width="8.7" height="1.9"/>
	<path class="st26" d="M43.8,208.5"/>
	<ellipse class="st27" cx="16.9" cy="214.9" rx="3.1" ry="2.4"/>
	<circle class="st27" cx="16.9" cy="214.9" r="1.1"/>
	<ellipse class="st28" cx="23.6" cy="207.5" rx="2.8" ry="2.2"/>
	<circle class="st28" cx="23.6" cy="207.5" r="1"/>
	<ellipse class="st29" cx="31.9" cy="214.9" rx="3.7" ry="3.1"/>
	<ellipse class="st30" cx="31.9" cy="214.9" rx="2" ry="1.5"/>
	<ellipse class="st30" cx="39.5" cy="205.9" rx="4.8" ry="3.7"/>
	<ellipse class="st30" cx="39.5" cy="205.9" rx="2.6" ry="2.1"/>
	<path class="st31" d="M103.8,203.8c0,0-3.7-7-17.1-4.3s-17,8.3-17,8.3s-5.8,6.6-5.2,15.2c0.6,8.6,4.8,11.6,4.8,11.6
		s2.7,2.8,8.9,3.4c6.3,0.6,11.8-1.5,11.8-1.5l8-3.9c0,0,5.7-3.7,5.8-5.7s-3.4-3.1-3.4-3.1l-5.5-3.3c0,0-1.2-1.3,0.2-3.1
		c1.3-1.8,6.8-5.4,6.8-5.4S107.5,208.9,103.8,203.8z"/>
	<circle class="st32" cx="93.2" cy="203.9" r="3.1"/>
	<circle class="st33" cx="83.2" cy="206.2" r="3.1"/>
	<circle class="st34" cx="73.5" cy="212.3" r="3.1"/>
	<circle class="st35" cx="68.7" cy="221.6" r="3.1"/>
	<circle class="st36" cx="71.8" cy="230" r="3.1"/>
	<circle class="st37" cx="80.1" cy="234.5" r="3.1"/>
	<ellipse transform="matrix(0.866 -0.5 0.5 0.866 -101.3142 78.3841)" class="st38" cx="95.6" cy="228.2" rx="4.8" ry="3"/>
	<path class="st39" d="M67.7,190.9c0,0,4,1.4,5.1,2.9c1.1,1.4,1.3,1.2,1.4,2.1s0.3,2.7,0.3,2.7l-2.8,1.8c0,0-1.8,0.4-2.9-2.7
		S67.7,190.9,67.7,190.9z"/>
	<polygon class="st41" points="73.2,205.4 93.2,238.7 96,242.3 95.1,238.3 77.6,202.3 74.5,198.6 71.7,200.4 	"/>
	<g class="st42">
		<g>
			<path class="st43" d="M75,206.2C75.1,206.2,75.1,206.2,75,206.2C75,206.2,75,206.2,75,206.2c0.1,0,0.1,0,0.1,0c0,0,0.1,0,0.1,0
				c0,0,0.1,0.1,0.1,0c0,0,0.1,0,0.1,0c0,0,0.1,0.1,0,0c0,0,0.1,0.1,0,0c0,0,0,0,0,0c0,0,0,0,0,0c0,0.1,0-0.1,0,0c0,0,0,0,0,0
				c0,0,0,0,0,0c0,0,0,0.1,0,0.1c0,0,0,0.1-0.1,0.1c-0.1,0.2-0.2,0.4-0.1,0.6c0.1,0.4,0.5,0.6,0.9,0.7c0.3,0.2,0.7,0.4,1,0.6
				c0.2,0.1,0.4,0,0.5-0.1c0.1-0.2,0.1-0.4-0.1-0.5c-0.4-0.2-0.7-0.4-1.1-0.6c-0.1-0.1-0.2-0.1-0.3-0.2c0,0-0.1,0-0.1-0.1
				c0,0-0.1-0.1-0.1,0c0,0-0.1,0-0.1-0.1c0,0,0,0,0,0c0,0,0,0,0,0c0,0,0,0,0,0c0,0.1,0,0.1,0,0c0,0,0,0,0,0c0,0,0,0,0,0
				c0.1-0.2,0.2-0.3,0.2-0.5c0-0.2-0.1-0.4-0.2-0.5c-0.2-0.2-0.6-0.3-0.9-0.3c-0.2,0-0.4,0.2-0.4,0.4
				C74.7,206.1,74.8,206.2,75,206.2L75,206.2z"/>
		</g>
	</g>
	<g class="st42">
		<g>
			<path class="st43" d="M74.8,200.2c-0.5,0.3-0.5,0.9-0.2,1.4c0.2,0.2,0.3,0.4,0.5,0.6c0,0,0.1,0.1,0.1,0.1c0,0,0,0.1,0.1,0.1
				c0,0,0,0,0,0c0,0.1,0.1,0.1,0.1,0.1c0-0.1,0,0,0,0c0,0,0,0.1,0,0.1c0,0.2,0.3,0.3,0.5,0.3c0.2-0.1,0.3-0.3,0.3-0.5
				c-0.1-0.5-0.5-0.7-0.8-1.1c0,0-0.1-0.1-0.1-0.1c0,0,0-0.1,0,0c0,0,0,0,0-0.1c0,0,0-0.1,0-0.1c0-0.1,0,0,0,0c0,0,0-0.1,0-0.1
				c0-0.1,0,0,0,0c0,0,0-0.1,0-0.1c0,0,0,0.1,0,0c0,0,0-0.1,0-0.1c0,0,0,0.1,0,0c0,0,0,0,0,0c0,0,0,0,0,0c0,0,0,0,0,0c0,0,0,0,0,0
				c0,0-0.1,0.1,0,0c0.2-0.1,0.2-0.3,0.1-0.5C75.3,200.2,75,200.1,74.8,200.2L74.8,200.2z"/>
		</g>
	</g>
	<g class="st42">
		<g>
			<path class="st43" d="M79.5,212.1c0.3,1,0.7,2.1,1.6,2.6c0.2,0.1,0.4,0,0.5-0.1c0.1-0.2,0-0.4-0.1-0.5c-0.1,0-0.1-0.1-0.2-0.1
				c-0.1,0,0,0,0,0c0,0,0,0-0.1-0.1c-0.1-0.1-0.2-0.1-0.2-0.2c0,0,0,0-0.1-0.1c0,0,0,0,0,0c0-0.1-0.1-0.1-0.1-0.1
				c-0.1-0.1-0.1-0.2-0.2-0.3c-0.1-0.1-0.1-0.2-0.2-0.3c0-0.1,0,0.1,0,0c0,0,0-0.1,0-0.1c0-0.1,0-0.1-0.1-0.1
				c-0.1-0.2-0.2-0.4-0.2-0.7c-0.1-0.2-0.3-0.3-0.5-0.3C79.6,211.7,79.4,211.9,79.5,212.1L79.5,212.1z"/>
		</g>
	</g>
	<g class="st42">
		<g>
			<path class="st43" d="M83.4,220.4C83.3,220.4,83.3,220.4,83.4,220.4C83.4,220.4,83.4,220.4,83.4,220.4c0,0-0.1,0-0.1,0
				c0.1,0-0.1,0,0,0c0.1,0,0-0.1,0,0l0,0c0,0-0.1-0.1,0,0L83.4,220.4c-0.1,0-0.1,0-0.1,0.1C83.3,220.4,83.3,220.4,83.4,220.4
				C83.3,220.5,83.3,220.4,83.4,220.4c-0.1,0.1-0.1,0.1-0.1,0.1s0,0.1,0,0.1c0,0.1,0-0.1,0,0c0,0.1-0.1,0.3-0.1,0.4
				c-0.1,0.4,0.2,0.9,0.6,1.1c0.2,0.1,0.4,0.1,0.5-0.1c0.1-0.2,0.1-0.4-0.1-0.5c0,0-0.1-0.1-0.1-0.1c0,0,0,0,0,0c0,0,0,0,0,0
				c0,0,0,0,0-0.1c0,0,0,0.1,0,0c0,0,0,0,0-0.1c0,0,0,0,0,0c0,0,0,0,0,0c0,0,0-0.1,0-0.1c0,0,0,0,0,0c0,0,0,0,0,0c0,0,0,0,0,0
				c0,0,0,0,0-0.1c0,0,0-0.1,0-0.1c0,0,0,0,0-0.1c0,0,0,0,0,0c0-0.1,0-0.1,0-0.2c0-0.1,0-0.2,0-0.2c0-0.3,0-0.5-0.2-0.7
				c-0.1-0.1-0.2-0.2-0.3-0.2c-0.2-0.1-0.3,0-0.5,0.1c-0.2,0.1-0.2,0.4-0.1,0.5C83,220.4,83.2,220.4,83.4,220.4L83.4,220.4z"/>
		</g>
	</g>
	<g class="st42">
		<g>
			<path class="st43" d="M89.3,227.1c-0.4-0.3-1-0.7-1-1.3c0-0.2,0-0.4,0-0.6s-0.1-0.4-0.1-0.6c-0.2-0.4-0.4-0.7-0.6-1
				c-0.1-0.2-0.4-0.1-0.5,0c-0.2,0.1-0.1,0.4,0,0.5c0.2,0.3,0.4,0.5,0.5,0.8c0.1,0.2,0,0.4,0,0.6s0,0.4,0,0.6
				c0.2,0.7,0.8,1.2,1.3,1.6c0.2,0.1,0.4,0,0.5-0.1C89.5,227.4,89.4,227.2,89.3,227.1L89.3,227.1z"/>
		</g>
	</g>
	<g class="st42">
		<g>
			<path class="st43" d="M89.3,230.9c-0.1,1.1,0.4,2.2,1.3,2.8c0.2,0.1,0.4,0,0.5-0.1c0.1-0.2,0-0.4-0.1-0.5c0,0-0.1-0.1-0.1,0
				c0,0,0,0,0,0c0,0-0.1-0.1-0.1-0.1c-0.1-0.1-0.2-0.2-0.2-0.2c-0.1-0.1,0,0,0,0c0,0,0,0,0-0.1c0-0.1-0.1-0.1-0.1-0.1
				c-0.1-0.1-0.1-0.2-0.2-0.3c0-0.1,0,0,0,0c0,0,0-0.1,0-0.1c0-0.1,0-0.1-0.1-0.2c0-0.1-0.1-0.2-0.1-0.3c0-0.1,0,0.1,0,0
				c0,0,0-0.1,0-0.1c0-0.1,0-0.1,0-0.2c0-0.1,0-0.2,0-0.4c0-0.2-0.2-0.4-0.4-0.4C89.5,230.6,89.4,230.7,89.3,230.9L89.3,230.9z"/>
		</g>
	</g>
	<g class="st42">
		<g>
			<path class="st43" d="M92.3,236.7c0.4,0.6,0.8,1.1,1.2,1.6c0.1,0.1,0.4,0.1,0.5,0c0.1-0.2,0.1-0.4,0-0.5
				c-0.1-0.1-0.2-0.2-0.3-0.4c-0.1-0.1-0.1-0.1-0.1-0.2c0,0,0-0.1,0,0s0,0,0,0c0,0-0.1-0.1-0.1-0.1c-0.2-0.3-0.4-0.5-0.5-0.8
				c-0.1-0.2-0.3-0.3-0.5-0.1C92.3,236.3,92.2,236.5,92.3,236.7L92.3,236.7z"/>
		</g>
	</g>
	<g class="st42">
		<g>
			<path class="st43" d="M82.8,216.6c-0.3,0.7,0,1.6,0.6,2.1c0.3,0.2,0.6,0.4,0.8,0.7c0.2,0.3,0.3,0.6,0.3,1c0,0.5,0.8,0.5,0.7,0
				c0-0.8-0.4-1.5-1-2c-0.3-0.2-0.6-0.4-0.7-0.7c-0.1-0.3-0.1-0.6,0-0.9c0.1-0.2-0.1-0.4-0.3-0.5C83.1,216.3,82.9,216.4,82.8,216.6
				L82.8,216.6z"/>
		</g>
	</g>
	<g class="st42">
		<g>
			<path class="st43" d="M75,202.9c-0.2,0.1-0.3,0.3-0.3,0.6c0.1,0.2,0.3,0.4,0.5,0.5c0.5,0.2,0.9,0.4,1.4,0.5c0.1,0,0.2,0,0.3-0.2
				c0-0.1,0-0.3-0.2-0.3c-0.4-0.1-0.8-0.2-1.1-0.4c-0.1-0.1-0.3-0.1-0.4-0.2c0,0,0,0,0,0c0,0,0-0.1,0,0c0,0,0,0,0,0c0,0,0,0,0,0
				c0,0,0,0,0,0c0,0,0,0,0,0c0,0,0,0,0,0c0,0,0,0,0,0c0,0,0,0,0,0c0,0,0,0,0,0c0.1,0,0.2-0.1,0.2-0.3C75.2,203,75.1,202.9,75,202.9
				L75,202.9z"/>
		</g>
	</g>
	<g class="st42">
		<g>
			<path class="st43" d="M79.4,209.1c-0.4,0.1-0.8,0.2-1.1,0.4c-0.1,0-0.1,0.2-0.1,0.3c0,0.1,0.1,0.2,0.1,0.3c0,0.1,0.2,0.2,0.3,0.2
				c0.1,0,0.2-0.2,0.2-0.3c0-0.1-0.1-0.2-0.1-0.3c0,0.1-0.1,0.2-0.1,0.3c0,0,0,0,0,0c0,0,0,0,0,0s0,0,0.1,0c0,0,0.1,0,0.1-0.1
				c0.1,0,0.2-0.1,0.3-0.1c0.2-0.1,0.3-0.1,0.5-0.1c0.1,0,0.2-0.2,0.2-0.3C79.6,209.1,79.5,209,79.4,209.1L79.4,209.1z"/>
		</g>
	</g>
	<g class="st42">
		<g>
			<path class="st43" d="M79.4,213.2c-0.3,0.8-0.1,1.7,0.5,2.3c0.2,0.2,0.5-0.1,0.3-0.3c-0.4-0.5-0.6-1.2-0.4-1.8
				C79.9,213.1,79.5,212.9,79.4,213.2L79.4,213.2z"/>
		</g>
	</g>
	<g class="st42">
		<g>
			<path class="st43" d="M85.7,224.6c-0.1,0.4,0.2,0.8,0.5,1.1c0.1,0.1,0.3,0.2,0.4,0.3c0.1,0.1,0.1,0.1,0.1,0.2c0,0,0,0,0,0
				s0,0,0,0.1c0,0.1,0,0,0,0c0,0,0,0.1,0,0c0,0.1,0,0.2,0.2,0.3c0.1,0,0.3,0,0.3-0.2c0-0.2,0-0.4-0.1-0.6c-0.1-0.2-0.3-0.3-0.4-0.4
				c-0.1-0.1-0.3-0.2-0.4-0.3c0,0,0,0-0.1-0.1c0,0,0,0,0-0.1c0,0,0-0.1,0,0c0,0,0,0,0-0.1c0,0,0-0.1,0,0c0-0.1,0-0.1,0-0.1
				c0-0.1,0-0.2-0.2-0.3C85.9,224.4,85.8,224.5,85.7,224.6L85.7,224.6z"/>
		</g>
	</g>
	<rect x="5.9" y="176.1" class="st4" width="101.3" height="14.3"/>
	<text transform="matrix(1 0 0 1 5.9476 183.4085)" class="st0 st22 st15">Oct 2019 - Present</text>
	<g>
		<rect x="126.3" y="166.6" class="st4" width="451.1" height="11.5"/>
		<text transform="matrix(1 0 0 1 126.3142 173.9105)" class="st13 st6 st15">Purdue University: Computer Graphics Department , WEST LAFAYETTE, IN</text>
		<text transform="matrix(1 0 0 1 469.6742 173.9105)" class="st16 st15">–  Undergraduate </text>
	</g>
	<rect x="158.7" y="184.7" class="st4" width="383.5" height="75.3"/>
	<text transform="matrix(1 0 0 1 158.7412 192.0355)" class="st11 st15">+</text>
	<text transform="matrix(1 0 0 1 164.7412 192.0355)" class="st16 st15"> Researching Lupus Symptom Clusters to find possible Trends and Connections</text>
	<text transform="matrix(1 0 0 1 158.7412 208.0355)" class="st11 st15">+</text>
	<text transform="matrix(1 0 0 1 164.7412 208.0355)" class="st16 st15"> Worked with non-disclosure agreement hospital data</text>
	<text transform="matrix(1 0 0 1 158.7412 224.0355)" class="st11 st15">+ </text>
	<text transform="matrix(1 0 0 1 167.5412 224.0355)" class="st16 st15">Created Tableau Dashboards</text>
	<text transform="matrix(1 0 0 1 158.7412 240.0355)" class="st11 st15">+ </text>
	<text transform="matrix(1 0 0 1 167.5412 240.0355)" class="st16 st15">Created Interactable D3 (Javascript) Visualizations</text>
	<text transform="matrix(1 0 0 1 158.7412 256.0355)" class="st16 st15 st18"> </text>
	<g>
		<rect x="124.7" y="345.7" class="st4" width="451.2" height="11.5"/>
		<text transform="matrix(1 0 0 1 124.6753 353.0349)" class="st13 st6 st15">Thermo Systems, EAST WINDSOR, NJ </text>
		<text transform="matrix(1 0 0 1 298.2453 353.0349)" class="st16 st15">–  Control Systems Intern</text>
	</g>
	<rect x="158.3" y="362.6" class="st4" width="383.5" height="113.9"/>
	<text transform="matrix(1 0 0 1 158.2687 369.993)" class="st11 st15">+</text>
	<text transform="matrix(1 0 0 1 164.2687 369.993)" class="st16 st15"> Developed a Boiler Control System for the University of Massachusetts </text>
	<text transform="matrix(1 0 0 1 158.2687 385.993)" class="st16 st15">   Amherst Using the FactoryTalk Suite</text>
	<text transform="matrix(1 0 0 1 158.2687 401.993)" class="st11 st15">+</text>
	<text transform="matrix(1 0 0 1 164.2687 401.993)" class="st16 st15"> Helped manage crucial documents such as design specifications and alarms</text>
	<text transform="matrix(1 0 0 1 158.2687 417.993)" class="st11 st15">+ </text>
	<text transform="matrix(1 0 0 1 167.0687 417.993)" class="st16 st15">Wrote crucial tutorials to be used by incoming constrol system employees</text>
	<text transform="matrix(1 0 0 1 158.2687 433.993)" class="st11 st15">+ </text>
	<text transform="matrix(1 0 0 1 167.0687 433.993)" class="st16 st15">Assisted with Computer Networking and PLC Connections</text>
	<text transform="matrix(1 0 0 1 158.2687 449.993)" class="st11 st15">+ </text>
	<text transform="matrix(1 0 0 1 167.0687 449.993)" class="st16 st15">Oversaw and edited documents for internal use and the FDA</text>
	<rect x="158.7" y="273.8" class="st4" width="383.5" height="75.3"/>
	<text transform="matrix(1 0 0 1 158.7412 281.1194)" class="st11 st15">+</text>
	<text transform="matrix(1 0 0 1 164.7412 281.1194)" class="st16 st15"> Designed the layout and mockup of a website for the Hawaii Department of </text>
	<text transform="matrix(1 0 0 1 158.7412 297.1194)" class="st16 st15">   Commerce and Consumer Affairs.</text>
	<text transform="matrix(1 0 0 1 158.7412 313.1194)" class="st11 st15">+</text>
	<text transform="matrix(1 0 0 1 164.7412 313.1194)" class="st16 st15"> Assisted in Training an employee in UX Design Software and Design Principles</text>
</g>
<g id="Layer_5">
	<rect x="23.2" y="548.6" class="st23" width="17" height="3.7"/>
	<rect x="29" y="534.1" class="st24" width="4.6" height="13"/>
	<path class="st24" d="M21.2,551.5h2.5c0,0,0.2-2.4,2.3-2.4s5.3,0,5.3,0c0-0.6,0-1.2,0-1.8c-1-0.1-5.8-0.4-8,0.4
		c-0.4,0.1-0.7,0.3-0.9,0.5C21.3,549.2,21.2,550.8,21.2,551.5z"/>
	<path class="st24" d="M41.5,551.5H39c0,0-0.2-2.4-2.3-2.4c-2.1,0-5.3,0-5.3,0c0-0.6,0-1.2,0-1.8c1-0.1,5.8-0.4,8,0.4
		c0.3,0.1,0.7,0.3,0.9,0.5C41.4,549.2,41.5,550.8,41.5,551.5z"/>
	<rect x="21.2" y="551.5" class="st24" width="20.2" height="1.5"/>
	<path class="st24" d="M47.5,535.8H13.9c-2,0-3.6-1.6-3.6-3.6v-18.8c0-2,1.6-3.6,3.6-3.6h33.5c2,0,3.6,1.6,3.6,3.6v18.8
		C51.1,534.2,49.5,535.8,47.5,535.8z"/>
	<path class="st23" d="M44.8,534.1H16.6c-2,0-3.6-1.6-3.6-3.6v-15.4c0-2,1.6-3.6,3.6-3.6h28.1c2,0,3.6,1.6,3.6,3.6v15.4
		C48.4,532.5,46.8,534.1,44.8,534.1z"/>
	
		<rect x="16.9" y="522.9" transform="matrix(0.6638 -0.7479 0.7479 0.6638 -384.6889 192.0083)" class="st25" width="8.7" height="1.9"/>
	
		<rect x="28" y="519.1" transform="matrix(0.6638 -0.7479 0.7479 0.6638 -381.7694 197.6314)" class="st25" width="1.9" height="8.7"/>
	
		<rect x="32.2" y="521.8" transform="matrix(0.6638 -0.7479 0.7479 0.6638 -378.6881 203.1167)" class="st25" width="8.7" height="1.9"/>
	<path class="st26" d="M45.3,520.8"/>
	<ellipse class="st27" cx="18.4" cy="527.3" rx="3.1" ry="2.5"/>
	<circle class="st27" cx="18.4" cy="527.3" r="1.1"/>
	<ellipse class="st28" cx="25" cy="519.8" rx="2.8" ry="2.2"/>
	<circle class="st28" cx="25" cy="519.8" r="1"/>
	<ellipse class="st29" cx="33.3" cy="527.3" rx="3.7" ry="3.1"/>
	<ellipse class="st30" cx="33.3" cy="527.3" rx="2" ry="1.5"/>
	<ellipse class="st30" cx="41" cy="518.3" rx="4.8" ry="3.7"/>
	<ellipse class="st30" cx="41" cy="518.3" rx="2.6" ry="2.1"/>
	<ellipse class="st44" cx="89.8" cy="513" rx="7.7" ry="8.1"/>
	<path class="st44" d="M89.8,523.7c0,0,8.7-3.1,10.8,0s0,30.8,0,30.8l-10.8,0.4"/>
	<path class="st44" d="M93.5,522.7v-2.6l-3.7,1l-2.7,1.9l2.7,0.8c0,0-8.7-3.1-10.8,0s0,30.8,0,30.8l10.8,0.4"/>
	<polyline class="st44" points="86.1,520.1 85.8,522.6 87.2,522.9 89.8,521.1 	"/>
	<path class="st44" d="M85.8,522.6"/>
	<path class="st45" d="M85.8,522.6c0,0,2.1,9.5,3.9,10.1v-9.8C89.6,522.9,86.5,520,85.8,522.6z"/>
	<path class="st45" d="M89.6,522.9c0,0,3.1-3,3.9-0.3c0,0-2.1,9.5-3.9,10.1"/>
	<path class="st46" d="M87.6,522.9"/>
	<circle class="st47" cx="89.6" cy="523.3" r="0.9"/>
	<path class="st48" d="M89,523.9l-0.9,5.5c0.5,1.1,1,2.1,1.5,3.2c0-2.8,0-5.7,0-8.5"/>
	<path class="st48" d="M90.2,523.9l0.9,5.5c-0.5,1.1-1,2.1-1.5,3.2c0-2.8,0-5.7,0-8.5"/>
	<rect x="89.4" y="524.1" class="st49" width="0.5" height="7.7"/>
	<path class="st49" d="M89.3,531.7c0.2,0,0.4,0,0.7,0c-0.1,0.3-0.2,0.5-0.3,0.8"/>
	<polyline class="st50" points="89.7,532.5 89.6,532.5 89.6,554.9 	"/>
	<path class="st31" d="M102,608.8c0,0-3.7-7-17.1-4.3s-17,8.3-17,8.3s-5.8,6.5-5.2,15.2s4.8,11.6,4.8,11.6s2.7,2.8,8.9,3.4
		s11.8-1.5,11.8-1.5l8-3.9c0,0,5.7-3.7,5.8-5.7s-3.4-3.1-3.4-3.1l-5.5-3.3c0,0-1.2-1.3,0.2-3.1s6.8-5.4,6.8-5.4
		S105.8,613.9,102,608.8z"/>
	<circle class="st32" cx="91.4" cy="608.9" r="3.1"/>
	<circle class="st33" cx="81.4" cy="611.2" r="3.1"/>
	<circle class="st34" cx="71.7" cy="617.3" r="3.1"/>
	<circle class="st35" cx="67" cy="626.6" r="3.1"/>
	<circle class="st36" cx="70" cy="635" r="3.1"/>
	<circle class="st37" cx="78.3" cy="639.5" r="3.1"/>
	<ellipse transform="matrix(0.866 -0.5 0.5 0.866 -304.0639 131.7583)" class="st38" cx="93.8" cy="633.3" rx="4.8" ry="3"/>
	<path class="st39" d="M66,596c0,0,4,1.4,5.1,2.9s1.3,1.2,1.4,2.1c0.1,0.9,0.3,2.7,0.3,2.7l-2.8,1.8c0,0-1.8,0.4-2.9-2.7
		C66,599.7,66,596,66,596z"/>
	<g>
		<path class="st40" d="M65.9,595.7c-0.1,0.5,0.4,1,0.2,1.5c-0.1,0.2-0.2,0.3-0.3,0.5c-0.1,0.2,0,0.5,0.1,0.7c0.2,0.3,0.3,0.7,0.5,1
			c0.1-0.1,0.2-0.3,0.1-0.5c-0.1,0.2-0.2,0.4-0.2,0.5c0,0.1,0.1,0.3,0.2,0.3c0.2,0.1,0.5-0.1,0.6-0.3s0-0.5-0.1-0.7
			c-0.1-0.2-0.3-0.4-0.3-0.6c-0.1-0.3-0.2-0.6-0.3-0.9c0,0-0.1-0.1-0.1-0.1c-0.1,0-0.1,0-0.1,0c-0.3,0.2-0.3,0.5-0.2,0.8
			c0.1-0.3,0.1-0.7,0.2-1c0-0.1,0.1-0.2,0.1-0.2c0.1-0.1,0.3,0,0.4,0.2c0.4,0.5,0.8,1.1,1.1,1.7c-0.2-0.1-0.3-0.3-0.2-0.5
			c0-0.2,0.2-0.3,0.4-0.3c0.1,0,0.1,0.1,0.2,0.1c0.2,0,0.3-0.2,0.3-0.3s-0.2-0.3-0.3-0.4c-0.5-0.4-1.1-0.8-1.6-1.1
			c0,0-0.1,0.1-0.1,0.2c0.6,0.6,1.2,1.2,1.8,1.7c-0.2-0.2-0.4-0.3-0.7-0.5c0,0-0.1-0.1-0.1-0.1c0,0,0.1,0,0.1,0"/>
	</g>
	<polygon class="st41" points="71.4,610.4 91.4,643.7 94.3,647.3 93.3,643.3 75.8,607.4 72.7,603.6 69.9,605.4 	"/>
	<g class="st42">
		<g>
			<path class="st43" d="M73.3,611.3C73.3,611.3,73.3,611.3,73.3,611.3C73.3,611.3,73.3,611.3,73.3,611.3c0.1,0,0.1,0,0.1,0
				s0.1,0,0.1,0c0,0,0.1,0,0.1,0c0,0,0.1,0,0.1,0c0,0,0.1,0.1,0,0c0,0,0.1,0.1,0,0c0,0,0,0,0,0c0,0,0,0,0,0c0,0.1,0-0.1,0,0
				c0,0,0,0,0,0c0,0,0,0,0,0c0,0,0,0.1,0,0.1c0,0,0,0.1-0.1,0.1c-0.1,0.2-0.2,0.4-0.1,0.6c0.1,0.4,0.5,0.5,0.9,0.7
				c0.3,0.2,0.7,0.4,1,0.6c0.2,0.1,0.4,0,0.5-0.1c0.1-0.2,0.1-0.4-0.1-0.5c-0.4-0.2-0.7-0.4-1.1-0.6c-0.1,0-0.2-0.1-0.3-0.2
				c0,0-0.1,0-0.1-0.1c0,0-0.1-0.1-0.1,0c0,0-0.1,0-0.1-0.1c0,0,0,0,0,0c0,0,0,0,0,0c0,0,0,0,0,0c0,0,0,0,0,0s0,0,0,0c0,0,0,0,0,0
				c0.1-0.2,0.2-0.3,0.2-0.5c0-0.2-0.1-0.4-0.2-0.5c-0.2-0.2-0.6-0.3-0.9-0.3c-0.2,0-0.4,0.2-0.4,0.4
				C72.9,611.1,73.1,611.2,73.3,611.3L73.3,611.3z"/>
		</g>
	</g>
	<g class="st42">
		<g>
			<path class="st43" d="M73.1,605.3c-0.5,0.3-0.5,1-0.2,1.4c0.2,0.2,0.3,0.4,0.5,0.5c0,0,0.1,0.1,0.1,0.1c0,0,0,0,0.1,0.1
				c0,0,0,0,0,0c0,0,0.1,0.1,0.1,0.1c0-0.1,0,0,0,0c0,0,0,0.1,0,0.1c0,0.2,0.3,0.3,0.5,0.3c0.2-0.1,0.3-0.3,0.3-0.5
				c-0.1-0.5-0.5-0.7-0.8-1c0,0-0.1-0.1-0.1-0.1c0,0,0,0,0,0c0,0,0,0,0-0.1c0,0,0,0,0-0.1c0-0.1,0,0,0,0c0,0,0,0,0-0.1
				c0-0.1,0,0,0,0c0,0,0-0.1,0-0.1c0,0,0,0.1,0,0c0,0,0-0.1,0-0.1c0,0,0,0.1,0,0c0,0,0,0,0,0c0,0,0,0,0,0c0,0,0,0,0,0c0,0,0,0,0,0
				c0,0-0.1,0,0,0c0.2-0.1,0.2-0.3,0.1-0.5C73.5,605.2,73.3,605.2,73.1,605.3L73.1,605.3z"/>
		</g>
	</g>
	<g class="st42">
		<g>
			<path class="st43" d="M77.7,617.1c0.3,1,0.7,2.1,1.6,2.6c0.2,0.1,0.4,0,0.5-0.1c0.1-0.2,0-0.4-0.1-0.5c-0.1,0-0.1-0.1-0.2-0.1
				s0,0,0,0c0,0,0,0-0.1-0.1c-0.1-0.1-0.2-0.2-0.2-0.2c0,0,0,0-0.1-0.1c0,0,0,0,0,0c0,0-0.1-0.1-0.1-0.1c-0.1-0.1-0.1-0.2-0.2-0.3
				c-0.1-0.1-0.1-0.2-0.2-0.3c0-0.1,0,0.1,0,0c0,0,0-0.1,0-0.1c0,0,0-0.1-0.1-0.2c-0.1-0.2-0.2-0.5-0.2-0.7
				c-0.1-0.2-0.3-0.3-0.5-0.3C77.8,616.7,77.7,616.9,77.7,617.1L77.7,617.1z"/>
		</g>
	</g>
	<g class="st42">
		<g>
			<path class="st43" d="M81.6,625.4C81.6,625.4,81.6,625.4,81.6,625.4C81.6,625.4,81.6,625.4,81.6,625.4c0,0-0.1,0-0.1,0
				c0.1,0-0.1,0,0,0c0.1,0,0,0,0,0l0,0c0,0-0.1-0.1,0,0L81.6,625.4c-0.1,0-0.1,0-0.1,0C81.5,625.4,81.5,625.5,81.6,625.4
				C81.5,625.5,81.5,625.5,81.6,625.4c-0.1,0.1-0.1,0.1-0.1,0.1s0,0,0,0.1c0,0,0-0.1,0,0c0,0.1-0.1,0.3-0.1,0.4
				c-0.1,0.5,0.2,0.9,0.6,1.1c0.2,0.1,0.4,0.1,0.5-0.1c0.1-0.2,0.1-0.4-0.1-0.5c0,0-0.1-0.1-0.1-0.1c0,0,0,0,0,0c0,0,0,0,0,0
				c0,0,0,0,0,0c0,0,0,0.1,0,0c0,0,0,0,0-0.1c0,0,0,0,0,0c0,0,0,0,0,0c0,0,0,0,0-0.1c0,0,0,0,0,0c0,0,0,0,0,0c0,0,0,0,0,0
				c0,0,0,0,0,0c0,0,0,0,0-0.1c0,0,0,0,0-0.1c0,0,0,0,0,0c0,0,0-0.1,0-0.2c0-0.1,0-0.2,0-0.2c0-0.3,0-0.5-0.2-0.7
				c-0.1-0.1-0.2-0.2-0.3-0.2c-0.2,0-0.3,0-0.5,0c-0.2,0.1-0.2,0.3-0.1,0.5C81.2,625.4,81.4,625.5,81.6,625.4L81.6,625.4z"/>
		</g>
	</g>
	<g class="st42">
		<g>
			<path class="st43" d="M87.5,632.1c-0.4-0.3-1-0.7-1-1.3c0-0.2,0-0.4,0-0.6s-0.1-0.4-0.1-0.5c-0.2-0.4-0.4-0.7-0.6-1
				c-0.1-0.2-0.4-0.1-0.5,0c-0.2,0.2-0.1,0.4,0,0.5c0.2,0.3,0.4,0.5,0.5,0.8c0.1,0.2,0,0.4,0,0.5s0,0.4,0,0.6
				c0.2,0.7,0.8,1.2,1.3,1.6c0.2,0.1,0.4,0,0.5-0.1C87.7,632.4,87.7,632.2,87.5,632.1L87.5,632.1z"/>
		</g>
	</g>
	<g class="st42">
		<g>
			<path class="st43" d="M87.6,636c-0.1,1.1,0.4,2.2,1.3,2.8c0.2,0.1,0.4,0,0.5-0.1c0.1-0.2,0-0.4-0.1-0.5c0,0-0.1-0.1-0.1,0
				c0,0,0,0,0,0c0,0-0.1-0.1-0.1-0.1c-0.1-0.1-0.2-0.2-0.2-0.2c-0.1-0.1,0,0,0,0c0,0,0,0,0-0.1c0,0-0.1-0.1-0.1-0.1
				c-0.1-0.1-0.1-0.2-0.2-0.3c0-0.1,0,0,0,0c0,0,0-0.1,0-0.1c0,0,0-0.1-0.1-0.2c0-0.1-0.1-0.2-0.1-0.3c0-0.1,0,0,0,0
				c0,0,0-0.1,0-0.1c0-0.1,0-0.1,0-0.2c0-0.1,0-0.2,0-0.3c0-0.2-0.2-0.4-0.4-0.4C87.7,635.6,87.6,635.8,87.6,636L87.6,636z"/>
		</g>
	</g>
	<g class="st42">
		<g>
			<path class="st43" d="M90.5,641.7c0.4,0.6,0.8,1.1,1.2,1.6c0.1,0.2,0.4,0.1,0.5,0c0.1-0.2,0.1-0.4,0-0.5
				c-0.1-0.1-0.2-0.2-0.3-0.4c-0.1-0.1-0.1-0.1-0.1-0.2c0,0,0-0.1,0,0s0,0,0,0c0,0-0.1-0.1-0.1-0.1c-0.2-0.3-0.4-0.5-0.5-0.8
				c-0.1-0.2-0.3-0.3-0.5-0.1C90.5,641.3,90.4,641.5,90.5,641.7L90.5,641.7z"/>
		</g>
	</g>
	<g class="st42">
		<g>
			<path class="st43" d="M81.1,621.6c-0.3,0.7,0,1.6,0.6,2.1c0.3,0.2,0.6,0.4,0.8,0.7c0.2,0.3,0.3,0.6,0.3,1c0,0.5,0.8,0.5,0.7,0
				c0-0.8-0.4-1.5-1-2c-0.3-0.2-0.6-0.4-0.7-0.7c-0.1-0.3-0.1-0.6,0-0.9c0.1-0.2-0.1-0.4-0.3-0.5C81.3,621.3,81.1,621.5,81.1,621.6
				L81.1,621.6z"/>
		</g>
	</g>
	<g class="st42">
		<g>
			<path class="st43" d="M73.2,608c-0.2,0.1-0.3,0.3-0.3,0.6c0.1,0.2,0.3,0.4,0.5,0.5c0.5,0.2,0.9,0.4,1.4,0.5c0.1,0,0.2,0,0.3-0.2
				c0-0.1,0-0.3-0.2-0.3c-0.4-0.1-0.8-0.2-1.1-0.4c-0.1,0-0.3-0.1-0.4-0.2c0,0,0,0,0,0c0,0,0,0,0,0c0,0,0,0,0,0c0,0,0,0,0,0
				c0,0,0,0,0,0c0,0,0,0,0,0c0,0,0,0,0,0c0,0,0,0,0,0c0,0,0,0,0,0c0,0,0,0,0,0c0.1,0,0.2-0.2,0.2-0.3C73.5,608,73.3,607.9,73.2,608
				L73.2,608z"/>
		</g>
	</g>
	<g class="st42">
		<g>
			<path class="st43" d="M77.6,614.1c-0.4,0.1-0.8,0.2-1.1,0.4c-0.1,0-0.1,0.2-0.1,0.3c0,0.1,0.1,0.2,0.1,0.3c0,0.1,0.2,0.2,0.3,0.2
				c0.1,0,0.2-0.2,0.2-0.3c0-0.1-0.1-0.2-0.1-0.3c0,0.1-0.1,0.2-0.1,0.3c0,0,0,0,0,0c0,0,0,0,0,0s0,0,0.1,0c0,0,0.1,0,0.1,0
				c0.1,0,0.2-0.1,0.3-0.1c0.2-0.1,0.3-0.1,0.5-0.2c0.1,0,0.2-0.2,0.2-0.3C77.9,614.1,77.8,614.1,77.6,614.1L77.6,614.1z"/>
		</g>
	</g>
	<g class="st42">
		<g>
			<path class="st43" d="M77.7,618.2c-0.3,0.8-0.1,1.7,0.5,2.3c0.2,0.2,0.5-0.1,0.3-0.3c-0.4-0.5-0.6-1.2-0.4-1.8
				C78.2,618.1,77.7,618,77.7,618.2L77.7,618.2z"/>
		</g>
	</g>
	<g class="st42">
		<g>
			<path class="st43" d="M83.9,629.7c-0.1,0.4,0.2,0.8,0.5,1c0.1,0.1,0.3,0.2,0.4,0.3c0.1,0.1,0.1,0.1,0.1,0.2c0,0,0,0,0,0s0,0,0,0
				c0,0,0,0,0,0c0,0,0,0.1,0,0c0,0.1,0,0.2,0.2,0.3c0.1,0,0.3,0,0.3-0.2c0-0.2,0-0.4-0.1-0.6c-0.1-0.2-0.3-0.3-0.4-0.4
				c-0.1-0.1-0.3-0.2-0.4-0.3c0,0,0,0-0.1-0.1c0,0,0,0,0,0c0,0,0-0.1,0,0c0,0,0,0,0-0.1c0,0,0,0,0,0c0-0.1,0-0.1,0-0.1
				c0-0.1,0-0.2-0.2-0.3C84.1,629.5,84,629.5,83.9,629.7L83.9,629.7z"/>
		</g>
	</g>
	<g class="st42">
		<g>
			<path class="st43" d="M87.9,671.2c0.4,0.6,0.8,1.1,1.2,1.6c0.1,0.2,0.4,0.1,0.5,0c0.1-0.2,0.1-0.4,0-0.5
				c-0.1-0.1-0.2-0.2-0.3-0.4c-0.1-0.1-0.1-0.1-0.1-0.2c0,0,0-0.1,0,0s0,0,0,0c0,0-0.1-0.1-0.1-0.1c-0.2-0.3-0.4-0.5-0.5-0.8
				c-0.1-0.2-0.3-0.3-0.5-0.1C87.9,670.8,87.8,671,87.9,671.2L87.9,671.2z"/>
		</g>
	</g>
	<path class="st51" d="M26.5,592.4h0.7c0,0,0.5-1.7,2-1.8c1.5-0.1,2,1.8,2,1.8h0.7c-0.1-1.5-1.3-2.7-2.7-2.7c-1.4,0-2.5,1.3-2.6,2.3
		C26.5,592.1,26.5,592.3,26.5,592.4z"/>
	<path class="st52" d="M45.3,646.7H13.9c-0.6,0-1-0.5-1-1v-48.1c0-0.6,0.4-1,1-1h31.4c0.6,0,1,0.5,1,1v48.1
		C46.3,646.3,45.9,646.7,45.3,646.7z"/>
	<polygon class="st53" points="20.8,596.6 25,592.4 29.2,592.4 29.2,596.6 	"/>
	<polygon class="st53" points="37.3,596.6 33.1,592.4 28.9,592.4 28.9,596.6 	"/>
	<rect x="27.7" y="592.6" class="st54" width="1.9" height="3.8"/>
	<path class="st54" d="M27.3,592.4"/>
	<rect x="15.1" y="599.3" class="st55" width="29.1" height="45.6"/>
	<rect x="17.3" y="602.7" class="st56" width="5.1" height="5.1"/>
	<rect x="17.3" y="612.8" class="st56" width="5.1" height="5.1"/>
	<rect x="17.3" y="622.9" class="st56" width="5.1" height="5.1"/>
	<rect x="17.3" y="633" class="st56" width="5.1" height="5.1"/>
	<g>
		<g>
			<path class="st57" d="M16.2,606.3c0.7,0.7,1.5,1.4,2.3,2c0.4,0.3,0.8,0.2,1.1-0.1c1.5-2,3-4,4.6-6c0.2-0.3,0-0.8-0.2-0.9
				c-0.3-0.2-0.7,0-0.9,0.2c-1.5,2-3,4-4.6,6c0.4,0,0.7-0.1,1.1-0.1c-0.8-0.6-1.5-1.3-2.3-2C16.5,604.7,15.6,605.6,16.2,606.3
				L16.2,606.3z"/>
		</g>
	</g>
	<g>
		<g>
			<path class="st57" d="M16.2,616.6c0.8,0.8,1.6,1.4,2.5,2.1c0.3,0.2,0.7,0,0.9-0.2c1.5-2,2.9-4.1,4.4-6.1c0.2-0.3,0-0.8-0.2-0.9
				c-0.3-0.2-0.7-0.1-0.9,0.2c-1.5,2-2.9,4.1-4.4,6.1c0.3-0.1,0.6-0.2,0.9-0.2c-0.8-0.6-1.5-1.2-2.2-1.9
				C16.5,615.1,15.6,616,16.2,616.6L16.2,616.6z"/>
		</g>
	</g>
	<g>
		<g>
			<path class="st57" d="M16.8,626.3c0.7,0.7,1.4,1.4,2.2,2.1c0.3,0.2,0.7,0.3,1,0c1.6-2,3.1-3.9,4.7-5.9c0.2-0.3,0.3-0.7,0-1
				c-0.2-0.2-0.7-0.3-1,0c-1.5,2-3.1,4-4.7,5.9c0.3,0,0.6,0,1,0c-0.8-0.6-1.5-1.3-2.2-2.1C17.2,624.7,16.2,625.7,16.8,626.3
				L16.8,626.3z"/>
		</g>
	</g>
	<g>
		<g>
			<path class="st57" d="M16.9,636.5c0.7,0.7,1.5,1.4,2.2,2.1c0.3,0.2,0.7,0.3,1,0c1.6-2,3.2-4,4.7-6.1c0.2-0.3,0-0.8-0.2-0.9
				c-0.4-0.2-0.7,0-0.9,0.2c-1.5,1.9-3,3.9-4.5,5.8c0.3,0,0.6,0,1,0c-0.8-0.6-1.5-1.3-2.2-2.1C17.2,634.9,16.3,635.8,16.9,636.5
				L16.9,636.5z"/>
		</g>
	</g>
	<g>
		<g>
			<path d="M27.9,604.5c1.1-0.5,2.3-1,3.5-1.1c1.3,0,2.2,0.8,3.3,1.2c2.2,0.7,4.5,0,6.7,0c0.4,0,0.4-0.7,0-0.7
				c-2.6,0-5.1,0.8-7.5-0.5c-1-0.5-2-0.8-3.1-0.7c-1.2,0.1-2.2,0.6-3.3,1.1C27.2,604.1,27.5,604.7,27.9,604.5L27.9,604.5z"/>
		</g>
	</g>
	<g>
		<g>
			<path d="M27.9,607.5c1.1-0.5,2.3-1,3.5-1.1c1.3,0,2.2,0.8,3.3,1.2c2.2,0.7,4.5,0,6.7,0c0.4,0,0.4-0.7,0-0.7
				c-2.6,0-5.1,0.8-7.5-0.5c-1-0.5-2-0.8-3.1-0.7c-1.2,0.1-2.2,0.6-3.3,1.1C27.2,607.2,27.5,607.7,27.9,607.5L27.9,607.5z"/>
		</g>
	</g>
	<g>
		<g>
			<path d="M27.9,614.5c1.1-0.5,2.3-1,3.5-1.1c1.3,0,2.2,0.8,3.3,1.2c2.2,0.7,4.5,0,6.7,0c0.4,0,0.4-0.7,0-0.7
				c-2.6,0-5.1,0.8-7.5-0.5c-1-0.5-2-0.8-3.1-0.7c-1.2,0.1-2.2,0.6-3.3,1.1C27.2,614.1,27.5,614.7,27.9,614.5L27.9,614.5z"/>
		</g>
	</g>
	<g>
		<g>
			<path d="M27.9,617.5c1.1-0.5,2.3-1,3.5-1.1c1.3,0,2.2,0.8,3.3,1.2c2.2,0.7,4.5,0,6.7,0c0.4,0,0.4-0.7,0-0.7
				c-2.6,0-5.1,0.8-7.5-0.5c-1-0.5-2-0.8-3.1-0.7c-1.2,0.1-2.2,0.6-3.3,1.1C27.2,617.1,27.5,617.7,27.9,617.5L27.9,617.5z"/>
		</g>
	</g>
	<g>
		<g>
			<path d="M27.5,624.6c1.1-0.5,2.3-1,3.5-1.1c1.3,0,2.2,0.8,3.3,1.2c2.2,0.7,4.5,0,6.7,0c0.4,0,0.4-0.7,0-0.7
				c-2.6,0-5.1,0.8-7.5-0.5c-1-0.5-2-0.8-3.1-0.7c-1.2,0.1-2.2,0.6-3.3,1.1C26.7,624.2,27.1,624.8,27.5,624.6L27.5,624.6z"/>
		</g>
	</g>
	<g>
		<g>
			<path d="M27.5,627.6c1.1-0.5,2.3-1,3.5-1.1c1.3,0,2.2,0.8,3.3,1.2c2.2,0.7,4.5,0,6.7,0c0.4,0,0.4-0.7,0-0.7
				c-2.6,0-5.1,0.8-7.5-0.5c-1-0.5-2-0.8-3.1-0.7c-1.2,0.1-2.2,0.6-3.3,1.1C26.7,627.2,27.1,627.8,27.5,627.6L27.5,627.6z"/>
		</g>
	</g>
	<g>
		<g>
			<path d="M27.9,634.2c1.1-0.5,2.3-1,3.5-1.1c1.3,0,2.2,0.8,3.3,1.2c2.2,0.7,4.5,0,6.7,0c0.4,0,0.4-0.7,0-0.7
				c-2.6,0-5.1,0.8-7.5-0.5c-1-0.5-2-0.8-3.1-0.7c-1.2,0.1-2.2,0.6-3.3,1.1C27.2,633.8,27.5,634.4,27.9,634.2L27.9,634.2z"/>
		</g>
	</g>
	<g>
		<g>
			<path d="M27.9,637.2c1.1-0.5,2.3-1,3.5-1.1c1.3,0,2.2,0.8,3.3,1.2c2.2,0.7,4.5,0,6.7,0c0.4,0,0.4-0.7,0-0.7
				c-2.6,0-5.1,0.8-7.5-0.5c-1-0.5-2-0.8-3.1-0.7c-1.2,0.1-2.2,0.6-3.3,1.1C27.2,636.8,27.5,637.4,27.9,637.2L27.9,637.2z"/>
		</g>
	</g>
	<rect x="5.9" y="345.8" class="st4" width="101.3" height="14.3"/>
	<text transform="matrix(1 0 0 1 5.9476 353.1644)" class="st0 st22 st15">Jun 2020 - Aug 2020</text>
	<rect x="23.2" y="401.4" class="st23" width="17" height="3.6"/>
	<rect x="29" y="386.9" class="st24" width="4.6" height="13"/>
	<path class="st24" d="M21.2,404.3h2.5c0,0,0.2-2.4,2.3-2.4s5.3,0,5.3,0c0-0.6,0-1.2,0-1.8c-1-0.1-5.8-0.4-8,0.4
		c-0.4,0.1-0.7,0.3-0.9,0.5C21.3,402,21.2,403.6,21.2,404.3z"/>
	<path class="st24" d="M41.5,404.3H39c0,0-0.2-2.4-2.3-2.4c-2.1,0-5.3,0-5.3,0c0-0.6,0-1.2,0-1.8c1-0.1,5.8-0.4,8,0.4
		c0.3,0.1,0.7,0.3,0.9,0.5C41.4,402,41.5,403.6,41.5,404.3z"/>
	<rect x="21.2" y="404.3" class="st24" width="20.2" height="1.5"/>
	<path class="st24" d="M47.5,388.6H13.9c-2,0-3.6-1.6-3.6-3.6v-18.8c0-2,1.6-3.6,3.6-3.6h33.5c2,0,3.6,1.6,3.6,3.6V385
		C51.1,387,49.5,388.6,47.5,388.6z"/>
	<path class="st23" d="M44.8,386.9H16.6c-2,0-3.6-1.6-3.6-3.6v-15.4c0-2,1.6-3.6,3.6-3.6h28.1c2,0,3.6,1.6,3.6,3.6v15.4
		C48.4,385.2,46.8,386.9,44.8,386.9z"/>
	
		<rect x="16.9" y="375.7" transform="matrix(0.6638 -0.7479 0.7479 0.6638 -274.5691 142.5088)" class="st25" width="8.7" height="1.9"/>
	
		<rect x="28" y="371.9" transform="matrix(0.6638 -0.7479 0.7479 0.6638 -271.6445 148.1324)" class="st25" width="1.9" height="8.7"/>
	
		<rect x="32.2" y="374.6" transform="matrix(0.6638 -0.7479 0.7479 0.6638 -268.5682 153.6172)" class="st25" width="8.7" height="1.9"/>
	<path class="st26" d="M45.3,373.6"/>
	<ellipse class="st27" cx="18.4" cy="380" rx="3.1" ry="2.5"/>
	<circle class="st27" cx="18.4" cy="380" r="1.1"/>
	<ellipse class="st28" cx="25" cy="372.6" rx="2.8" ry="2.2"/>
	<circle class="st28" cx="25" cy="372.6" r="1"/>
	<ellipse class="st29" cx="33.3" cy="380" rx="3.7" ry="3.1"/>
	<ellipse class="st30" cx="33.3" cy="380" rx="2" ry="1.5"/>
	<ellipse class="st30" cx="41" cy="371" rx="4.8" ry="3.7"/>
	<ellipse class="st30" cx="41" cy="371" rx="2.6" ry="2.1"/>
	<ellipse class="st44" cx="89.8" cy="365.8" rx="7.7" ry="8.1"/>
	<path class="st44" d="M89.8,376.5c0,0,8.7-3.1,10.8,0s0,30.8,0,30.8l-10.8,0.4"/>
	<path class="st44" d="M93.5,375.5v-2.6l-3.7,1l-2.7,1.9l2.7,0.8c0,0-8.7-3.1-10.8,0s0,30.8,0,30.8l10.8,0.4"/>
	<polyline class="st44" points="86.1,372.8 85.8,375.4 87.2,375.7 89.8,373.8 	"/>
	<path class="st44" d="M85.8,375.4"/>
	<path class="st45" d="M85.8,375.4c0,0,2.1,9.5,3.9,10.1v-9.8C89.6,375.7,86.5,372.7,85.8,375.4z"/>
	<path class="st45" d="M89.6,375.7c0,0,3.1-3,3.9-0.3c0,0-2.1,9.5-3.9,10.1"/>
	<path class="st46" d="M87.6,375.7"/>
	<circle class="st47" cx="89.6" cy="376" r="0.9"/>
	<path class="st48" d="M89,376.6l-0.9,5.5c0.5,1.1,1,2.1,1.5,3.2c0-2.8,0-5.6,0-8.5"/>
	<path class="st48" d="M90.2,376.6l0.9,5.5c-0.5,1.1-1,2.1-1.5,3.2c0-2.8,0-5.6,0-8.5"/>
	<rect x="89.4" y="376.9" class="st49" width="0.5" height="7.7"/>
	<path class="st49" d="M89.3,384.5c0.2,0,0.4,0,0.7,0c-0.1,0.3-0.2,0.5-0.3,0.8"/>
	<polyline class="st50" points="89.7,385.3 89.6,385.3 89.6,407.7 	"/>
	<path class="st31" d="M102,431.2c0,0-3.7-7-17.1-4.3c-13.4,2.7-17,8.3-17,8.3s-5.8,6.5-5.2,15.2c0.6,8.6,4.8,11.6,4.8,11.6
		s2.7,2.8,8.9,3.4s11.8-1.5,11.8-1.5l8-3.9c0,0,5.7-3.7,5.8-5.7s-3.4-3.1-3.4-3.1l-5.5-3.3c0,0-1.2-1.3,0.2-3.1s6.8-5.4,6.8-5.4
		S105.8,436.3,102,431.2z"/>
	<circle class="st32" cx="91.4" cy="431.3" r="3.1"/>
	<circle class="st33" cx="81.4" cy="433.6" r="3.1"/>
	<circle class="st34" cx="71.7" cy="439.7" r="3.1"/>
	<circle class="st35" cx="67" cy="449" r="3.1"/>
	<circle class="st36" cx="70" cy="457.4" r="3.1"/>
	<circle class="st37" cx="78.3" cy="461.9" r="3.1"/>
	<ellipse transform="matrix(0.866 -0.5 0.5 0.866 -215.2585 107.9637)" class="st38" cx="93.8" cy="455.6" rx="4.8" ry="3"/>
	<path class="st39" d="M66,418.3c0,0,4,1.4,5.1,2.9c1.1,1.4,1.3,1.2,1.4,2.1s0.3,2.7,0.3,2.7l-2.8,1.8c0,0-1.8,0.4-2.9-2.7
		C66,422.1,66,418.3,66,418.3z"/>
	<g>
		<path class="st40" d="M65.9,418.1c-0.1,0.5,0.4,1,0.2,1.5c-0.1,0.2-0.2,0.3-0.3,0.5c-0.1,0.2,0,0.5,0.1,0.7c0.2,0.3,0.3,0.6,0.5,1
			c0.1-0.1,0.2-0.3,0.1-0.5c-0.1,0.1-0.2,0.4-0.2,0.5c0,0.1,0.1,0.3,0.2,0.3c0.2,0.1,0.5-0.1,0.6-0.3s0-0.5-0.1-0.7
			c-0.1-0.2-0.3-0.4-0.3-0.6c-0.1-0.3-0.2-0.6-0.3-0.9c0,0-0.1-0.1-0.1-0.1c-0.1,0-0.1,0-0.1,0c-0.3,0.2-0.3,0.5-0.2,0.8
			c0.1-0.3,0.1-0.7,0.2-1c0-0.1,0.1-0.2,0.1-0.2c0.1-0.1,0.3,0,0.4,0.2c0.4,0.5,0.8,1.1,1.1,1.7c-0.2-0.1-0.3-0.3-0.2-0.5
			c0-0.2,0.2-0.3,0.4-0.3c0.1,0,0.1,0.1,0.2,0.1c0.2,0,0.3-0.2,0.3-0.3c0-0.2-0.2-0.3-0.3-0.4c-0.5-0.4-1.1-0.8-1.6-1.1
			c0,0-0.1,0.1-0.1,0.2c0.6,0.6,1.2,1.2,1.8,1.7c-0.2-0.2-0.4-0.3-0.7-0.5c0,0-0.1-0.1-0.1-0.1c0,0,0.1,0,0.1,0"/>
	</g>
	<polygon class="st41" points="71.4,432.8 91.4,466.1 94.3,469.7 93.3,465.7 75.8,429.8 72.7,426 69.9,427.8 	"/>
	<g class="st42">
		<g>
			<path class="st43" d="M73.3,433.6C73.3,433.6,73.3,433.6,73.3,433.6C73.3,433.6,73.3,433.6,73.3,433.6c0.1,0,0.1,0,0.1,0
				c0,0,0.1,0,0.1,0c0,0,0.1,0,0.1,0c0,0,0.1,0,0.1,0c0,0,0.1,0.1,0,0c0,0,0.1,0.1,0,0c0,0,0,0,0,0c0,0,0,0,0,0c0,0.1,0-0.1,0,0
				c0,0,0,0,0,0c0,0,0,0,0,0c0,0,0,0.1,0,0.1c0,0,0,0.1-0.1,0.1c-0.1,0.2-0.2,0.4-0.1,0.6c0.1,0.4,0.5,0.5,0.9,0.7
				c0.3,0.2,0.7,0.4,1,0.6c0.2,0.1,0.4,0,0.5-0.1c0.1-0.2,0.1-0.4-0.1-0.5c-0.4-0.2-0.7-0.4-1.1-0.6c-0.1,0-0.2-0.1-0.3-0.2
				c0,0-0.1,0-0.1-0.1c0,0-0.1-0.1-0.1,0c0,0-0.1,0-0.1-0.1c0,0,0,0,0,0c0,0,0,0,0,0c0,0,0,0,0,0c0,0,0,0,0,0c0,0,0,0,0,0
				c0,0,0,0,0,0c0.1-0.2,0.2-0.3,0.2-0.5c0-0.2-0.1-0.4-0.2-0.5c-0.2-0.2-0.6-0.3-0.9-0.3c-0.2,0-0.4,0.2-0.4,0.4
				C72.9,433.5,73.1,433.6,73.3,433.6L73.3,433.6z"/>
		</g>
	</g>
	<g class="st42">
		<g>
			<path class="st43" d="M73.1,427.6c-0.5,0.3-0.5,1-0.2,1.4c0.2,0.2,0.3,0.4,0.5,0.5c0,0,0.1,0.1,0.1,0.1c0,0,0,0,0.1,0.1
				c0,0,0,0,0,0c0,0,0.1,0.1,0.1,0.1c0-0.1,0,0,0,0c0,0,0,0.1,0,0.1c0,0.2,0.3,0.3,0.5,0.3c0.2-0.1,0.3-0.3,0.3-0.5
				c-0.1-0.5-0.5-0.7-0.8-1c0,0-0.1-0.1-0.1-0.1c0,0,0,0,0,0c0,0,0,0,0-0.1c0,0,0,0,0-0.1c0-0.1,0,0,0,0c0,0,0,0,0-0.1
				c0-0.1,0,0,0,0c0,0,0-0.1,0-0.1c0,0,0,0.1,0,0c0,0,0-0.1,0-0.1c0,0,0,0.1,0,0c0,0,0,0,0,0c0,0,0,0,0,0c0,0,0,0,0,0c0,0,0,0,0,0
				c0,0-0.1,0,0,0c0.2-0.1,0.2-0.3,0.1-0.5C73.5,427.6,73.3,427.5,73.1,427.6L73.1,427.6z"/>
		</g>
	</g>
	<g class="st42">
		<g>
			<path class="st43" d="M77.7,439.5c0.3,1,0.7,2.1,1.6,2.6c0.2,0.1,0.4,0,0.5-0.1c0.1-0.2,0-0.4-0.1-0.5c-0.1,0-0.1-0.1-0.2-0.1
				s0,0,0,0c0,0,0,0-0.1-0.1c-0.1-0.1-0.2-0.1-0.2-0.2c0,0,0,0-0.1-0.1c0,0,0,0,0,0c0,0-0.1-0.1-0.1-0.1c-0.1-0.1-0.1-0.2-0.2-0.3
				c-0.1-0.1-0.1-0.2-0.2-0.3c0-0.1,0,0.1,0,0c0,0,0-0.1,0-0.1c0,0,0-0.1-0.1-0.1c-0.1-0.2-0.2-0.5-0.2-0.7
				c-0.1-0.2-0.3-0.3-0.5-0.3C77.8,439.1,77.7,439.3,77.7,439.5L77.7,439.5z"/>
		</g>
	</g>
	<g class="st42">
		<g>
			<path class="st43" d="M81.6,447.8C81.6,447.8,81.6,447.8,81.6,447.8C81.6,447.8,81.6,447.8,81.6,447.8c0,0-0.1,0-0.1,0
				c0.1,0-0.1,0,0,0c0.1,0,0,0,0,0l0,0c0,0-0.1-0.1,0,0L81.6,447.8c-0.1,0-0.1,0-0.1,0C81.5,447.8,81.5,447.8,81.6,447.8
				C81.5,447.9,81.5,447.8,81.6,447.8c-0.1,0.1-0.1,0.1-0.1,0.1s0,0,0,0.1c0,0,0-0.1,0,0c0,0.1-0.1,0.3-0.1,0.4
				c-0.1,0.5,0.2,0.9,0.6,1.1c0.2,0.1,0.4,0.1,0.5-0.1c0.1-0.2,0.1-0.4-0.1-0.5c0,0-0.1-0.1-0.1-0.1c0,0,0,0,0,0c0,0,0,0,0,0
				c0,0,0,0,0,0c0,0,0,0.1,0,0c0,0,0,0,0-0.1c0,0,0,0,0,0c0,0,0,0,0,0c0,0,0,0,0-0.1c0,0,0,0,0,0c0,0,0,0,0,0c0,0,0,0,0,0
				c0,0,0,0,0,0c0,0,0,0,0-0.1c0,0,0,0,0-0.1c0,0,0,0,0,0c0,0,0-0.1,0-0.2c0-0.1,0-0.2,0-0.2c0-0.3,0-0.5-0.2-0.7
				c-0.1-0.1-0.2-0.2-0.3-0.2c-0.2,0-0.3,0-0.5,0c-0.2,0.1-0.2,0.4-0.1,0.5C81.2,447.8,81.4,447.9,81.6,447.8L81.6,447.8z"/>
		</g>
	</g>
	<g class="st42">
		<g>
			<path class="st43" d="M87.5,454.5c-0.4-0.3-1-0.7-1-1.3c0-0.2,0-0.4,0-0.6s-0.1-0.4-0.1-0.5c-0.2-0.4-0.4-0.7-0.6-1
				c-0.1-0.2-0.4-0.1-0.5,0c-0.2,0.1-0.1,0.4,0,0.5c0.2,0.3,0.4,0.5,0.5,0.8c0.1,0.2,0,0.4,0,0.5s0,0.4,0,0.6
				c0.2,0.7,0.8,1.2,1.3,1.6c0.2,0.1,0.4,0,0.5-0.1C87.7,454.8,87.7,454.6,87.5,454.5L87.5,454.5z"/>
		</g>
	</g>
	<g class="st42">
		<g>
			<path class="st43" d="M87.6,458.3c-0.1,1.1,0.4,2.2,1.3,2.8c0.2,0.1,0.4,0,0.5-0.1c0.1-0.2,0-0.4-0.1-0.5c0,0-0.1-0.1-0.1,0
				c0,0,0,0,0,0c0,0-0.1-0.1-0.1-0.1c-0.1-0.1-0.2-0.2-0.2-0.2c-0.1-0.1,0,0,0,0c0,0,0,0,0-0.1c0,0-0.1-0.1-0.1-0.1
				c-0.1-0.1-0.1-0.2-0.2-0.3c0-0.1,0,0,0,0c0,0,0-0.1,0-0.1c0,0,0-0.1-0.1-0.2c0-0.1-0.1-0.2-0.1-0.3c0-0.1,0,0,0,0
				c0,0,0-0.1,0-0.1c0-0.1,0-0.1,0-0.2c0-0.1,0-0.2,0-0.4c0-0.2-0.2-0.4-0.4-0.4C87.7,458,87.6,458.1,87.6,458.3L87.6,458.3z"/>
		</g>
	</g>
	<g class="st42">
		<g>
			<path class="st43" d="M90.5,464.1c0.4,0.6,0.8,1.1,1.2,1.6c0.1,0.1,0.4,0.1,0.5,0c0.1-0.2,0.1-0.4,0-0.5
				c-0.1-0.1-0.2-0.2-0.3-0.4c-0.1-0.1-0.1-0.1-0.1-0.2c0,0,0-0.1,0,0s0,0,0,0c0,0-0.1-0.1-0.1-0.1c-0.2-0.3-0.4-0.5-0.5-0.8
				c-0.1-0.2-0.3-0.3-0.5-0.1C90.5,463.7,90.4,463.9,90.5,464.1L90.5,464.1z"/>
		</g>
	</g>
	<g class="st42">
		<g>
			<path class="st43" d="M81.1,444c-0.3,0.7,0,1.6,0.6,2.1c0.3,0.2,0.6,0.4,0.8,0.7c0.2,0.3,0.3,0.6,0.3,1c0,0.5,0.8,0.5,0.7,0
				c0-0.8-0.4-1.5-1-2c-0.3-0.2-0.6-0.4-0.7-0.7c-0.1-0.3-0.1-0.6,0-0.9c0.1-0.2-0.1-0.4-0.3-0.5C81.3,443.7,81.1,443.8,81.1,444
				L81.1,444z"/>
		</g>
	</g>
	<g class="st42">
		<g>
			<path class="st43" d="M73.2,430.4c-0.2,0.1-0.3,0.3-0.3,0.6c0.1,0.2,0.3,0.4,0.5,0.5c0.5,0.2,0.9,0.4,1.4,0.5
				c0.1,0,0.2,0,0.3-0.2c0-0.1,0-0.3-0.2-0.3c-0.4-0.1-0.8-0.2-1.1-0.4c-0.1,0-0.3-0.1-0.4-0.2c0,0,0,0,0,0c0,0,0,0,0,0c0,0,0,0,0,0
				c0,0,0,0,0,0c0,0,0,0,0,0c0,0,0,0,0,0c0,0,0,0,0,0c0,0,0,0,0,0c0,0,0,0,0,0c0,0,0,0,0,0c0.1,0,0.2-0.1,0.2-0.3
				C73.5,430.4,73.3,430.3,73.2,430.4L73.2,430.4z"/>
		</g>
	</g>
	<g class="st42">
		<g>
			<path class="st43" d="M77.6,436.5c-0.4,0.1-0.8,0.2-1.1,0.4c-0.1,0-0.1,0.2-0.1,0.3c0,0.1,0.1,0.2,0.1,0.3c0,0.1,0.2,0.2,0.3,0.2
				c0.1,0,0.2-0.2,0.2-0.3c0-0.1-0.1-0.2-0.1-0.3c0,0.1-0.1,0.2-0.1,0.3c0,0,0,0,0,0c0,0,0,0,0,0s0,0,0.1,0c0,0,0.1,0,0.1,0
				c0.1,0,0.2-0.1,0.3-0.1c0.2-0.1,0.3-0.1,0.5-0.1c0.1,0,0.2-0.2,0.2-0.3C77.9,436.5,77.8,436.5,77.6,436.5L77.6,436.5z"/>
		</g>
	</g>
	<g class="st42">
		<g>
			<path class="st43" d="M77.7,440.6c-0.3,0.8-0.1,1.7,0.5,2.3c0.2,0.2,0.5-0.1,0.3-0.3c-0.4-0.5-0.6-1.2-0.4-1.8
				C78.2,440.5,77.7,440.4,77.7,440.6L77.7,440.6z"/>
		</g>
	</g>
	<g class="st42">
		<g>
			<path class="st43" d="M83.9,452c-0.1,0.4,0.2,0.8,0.5,1c0.1,0.1,0.3,0.2,0.4,0.3c0.1,0.1,0.1,0.1,0.1,0.2c0,0,0,0,0,0s0,0,0,0
				c0,0,0,0,0,0c0,0,0,0.1,0,0c0,0.1,0,0.2,0.2,0.3c0.1,0,0.3,0,0.3-0.2c0-0.2,0-0.4-0.1-0.6c-0.1-0.2-0.3-0.3-0.4-0.4
				c-0.1-0.1-0.3-0.2-0.4-0.3c0,0,0,0-0.1-0.1c0,0,0,0,0,0c0,0,0-0.1,0,0c0,0,0,0,0-0.1c0,0,0,0,0,0c0-0.1,0-0.1,0-0.1
				c0-0.1,0-0.2-0.2-0.3C84.1,451.9,84,451.9,83.9,452L83.9,452z"/>
		</g>
	</g>
	<path class="st51" d="M26.5,414.8h0.7c0,0,0.5-1.7,2-1.8c1.5-0.1,2,1.8,2,1.8h0.7c-0.1-1.5-1.3-2.7-2.7-2.7c-1.4,0-2.5,1.3-2.6,2.3
		C26.5,414.5,26.5,414.6,26.5,414.8z"/>
	<path class="st52" d="M45.3,469.1H13.9c-0.6,0-1-0.5-1-1V420c0-0.6,0.4-1,1-1h31.4c0.6,0,1,0.5,1,1v48.1
		C46.3,468.6,45.9,469.1,45.3,469.1z"/>
	<polygon class="st53" points="20.8,419 25,414.8 29.2,414.8 29.2,419 	"/>
	<polygon class="st53" points="37.3,419 33.1,414.8 28.9,414.8 28.9,419 	"/>
	<rect x="27.7" y="415" class="st54" width="1.9" height="3.8"/>
	<path class="st54" d="M27.3,414.8"/>
	<rect x="15.1" y="421.6" class="st55" width="29.1" height="45.6"/>
	<rect x="17.3" y="425" class="st56" width="5.1" height="5.1"/>
	<rect x="17.3" y="435.2" class="st56" width="5.1" height="5.1"/>
	<rect x="17.3" y="445.3" class="st56" width="5.1" height="5.1"/>
	<rect x="17.3" y="455.4" class="st56" width="5.1" height="5.1"/>
	<g>
		<g>
			<path class="st57" d="M16.2,428.6c0.7,0.7,1.5,1.4,2.3,2c0.4,0.3,0.8,0.2,1.1-0.1c1.5-2,3-4,4.6-6c0.2-0.3,0-0.8-0.2-0.9
				c-0.3-0.2-0.7,0-0.9,0.2c-1.5,2-3,4-4.6,6c0.4,0,0.7-0.1,1.1-0.1c-0.8-0.6-1.5-1.3-2.3-2C16.5,427.1,15.6,428,16.2,428.6
				L16.2,428.6z"/>
		</g>
	</g>
	<g>
		<g>
			<path class="st57" d="M16.2,439c0.8,0.8,1.6,1.4,2.5,2.1c0.3,0.2,0.7,0,0.9-0.2c1.5-2,2.9-4.1,4.4-6.1c0.2-0.3,0-0.8-0.2-0.9
				c-0.3-0.2-0.7-0.1-0.9,0.2c-1.5,2-2.9,4.1-4.4,6.1c0.3-0.1,0.6-0.2,0.9-0.2c-0.8-0.6-1.5-1.2-2.2-1.9
				C16.5,437.4,15.6,438.4,16.2,439L16.2,439z"/>
		</g>
	</g>
	<g>
		<g>
			<path class="st57" d="M16.8,448.7c0.7,0.7,1.4,1.4,2.2,2.1c0.3,0.2,0.7,0.3,1,0c1.6-2,3.1-3.9,4.7-5.9c0.2-0.3,0.3-0.7,0-1
				c-0.2-0.2-0.7-0.3-1,0c-1.5,2-3.1,4-4.7,5.9c0.3,0,0.6,0,1,0c-0.8-0.6-1.5-1.3-2.2-2.1C17.2,447.1,16.2,448.1,16.8,448.7
				L16.8,448.7z"/>
		</g>
	</g>
	<g>
		<g>
			<path class="st57" d="M16.9,458.8c0.7,0.7,1.5,1.4,2.2,2.1c0.3,0.2,0.7,0.3,1,0c1.6-2,3.2-4,4.7-6.1c0.2-0.3,0-0.8-0.2-0.9
				c-0.4-0.2-0.7,0-0.9,0.2c-1.5,1.9-3,3.9-4.5,5.8c0.3,0,0.6,0,1,0c-0.8-0.6-1.5-1.3-2.2-2.1C17.2,457.3,16.3,458.2,16.9,458.8
				L16.9,458.8z"/>
		</g>
	</g>
	<g>
		<g>
			<path d="M27.9,426.9c1.1-0.5,2.3-1,3.5-1.1c1.3,0,2.2,0.8,3.3,1.2c2.2,0.7,4.5,0,6.7,0c0.4,0,0.4-0.7,0-0.7
				c-2.6,0-5.1,0.8-7.5-0.5c-1-0.5-2-0.8-3.1-0.7c-1.2,0.1-2.2,0.6-3.3,1.1C27.2,426.5,27.5,427.1,27.9,426.9L27.9,426.9z"/>
		</g>
	</g>
	<g>
		<g>
			<path d="M27.9,429.9c1.1-0.5,2.3-1,3.5-1.1c1.3,0,2.2,0.8,3.3,1.2c2.2,0.7,4.5,0,6.7,0c0.4,0,0.4-0.7,0-0.7
				c-2.6,0-5.1,0.8-7.5-0.5c-1-0.5-2-0.8-3.1-0.7c-1.2,0.1-2.2,0.6-3.3,1.1C27.2,429.5,27.5,430.1,27.9,429.9L27.9,429.9z"/>
		</g>
	</g>
	<g>
		<g>
			<path d="M27.9,436.8c1.1-0.5,2.3-1,3.5-1.1c1.3,0,2.2,0.8,3.3,1.2c2.2,0.7,4.5,0,6.7,0c0.4,0,0.4-0.7,0-0.7
				c-2.6,0-5.1,0.8-7.5-0.5c-1-0.5-2-0.8-3.1-0.7c-1.2,0.1-2.2,0.6-3.3,1.1C27.2,436.5,27.5,437,27.9,436.8L27.9,436.8z"/>
		</g>
	</g>
	<g>
		<g>
			<path d="M27.9,439.9c1.1-0.5,2.3-1,3.5-1.1c1.3,0,2.2,0.8,3.3,1.2c2.2,0.7,4.5,0,6.7,0c0.4,0,0.4-0.7,0-0.7
				c-2.6,0-5.1,0.8-7.5-0.5c-1-0.5-2-0.8-3.1-0.7c-1.2,0.1-2.2,0.6-3.3,1.1C27.2,439.5,27.5,440.1,27.9,439.9L27.9,439.9z"/>
		</g>
	</g>
	<g>
		<g>
			<path d="M27.5,447c1.1-0.5,2.3-1,3.5-1.1c1.3,0,2.2,0.8,3.3,1.2c2.2,0.7,4.5,0,6.7,0c0.4,0,0.4-0.7,0-0.7c-2.6,0-5.1,0.8-7.5-0.5
				c-1-0.5-2-0.8-3.1-0.7c-1.2,0.1-2.2,0.6-3.3,1.1C26.7,446.6,27.1,447.2,27.5,447L27.5,447z"/>
		</g>
	</g>
	<g>
		<g>
			<path d="M27.5,450c1.1-0.5,2.3-1,3.5-1.1c1.3,0,2.2,0.8,3.3,1.2c2.2,0.7,4.5,0,6.7,0c0.4,0,0.4-0.7,0-0.7c-2.6,0-5.1,0.8-7.5-0.5
				c-1-0.5-2-0.8-3.1-0.7c-1.2,0.1-2.2,0.6-3.3,1.1C26.7,449.6,27.1,450.2,27.5,450L27.5,450z"/>
		</g>
	</g>
	<g>
		<g>
			<path d="M27.9,456.6c1.1-0.5,2.3-1,3.5-1.1c1.3,0,2.2,0.8,3.3,1.2c2.2,0.7,4.5,0,6.7,0c0.4,0,0.4-0.7,0-0.7
				c-2.6,0-5.1,0.8-7.5-0.5c-1-0.5-2-0.8-3.1-0.7c-1.2,0.1-2.2,0.6-3.3,1.1C27.2,456.2,27.5,456.8,27.9,456.6L27.9,456.6z"/>
		</g>
	</g>
	<g>
		<g>
			<path d="M27.9,459.6c1.1-0.5,2.3-1,3.5-1.1c1.3,0,2.2,0.8,3.3,1.2c2.2,0.7,4.5,0,6.7,0c0.4,0,0.4-0.7,0-0.7
				c-2.6,0-5.1,0.8-7.5-0.5c-1-0.5-2-0.8-3.1-0.7c-1.2,0.1-2.2,0.6-3.3,1.1C27.2,459.2,27.5,459.8,27.9,459.6L27.9,459.6z"/>
		</g>
	</g>
	<g>
		<rect x="124.7" y="254.4" class="st4" width="451.2" height="11.5"/>
		<text transform="matrix(1 0 0 1 124.6753 261.7676)" class="st13 st6 st15">Voyager Systems, Bedford, NH </text>
		<text transform="matrix(1 0 0 1 274.0653 261.7676)" class="st16 st15">–  Freelance UX Designer</text>
	</g>
	<rect x="5.9" y="253" class="st4" width="101.3" height="14.3"/>
	<text transform="matrix(1 0 0 1 5.9476 260.3566)" class="st0 st22 st15">Jun 2020 - Jul 2020</text>
	<path class="st31" d="M102,286c0,0-3.7-7-17.1-4.3c-13.4,2.7-17,8.3-17,8.3s-5.8,6.5-5.2,15.2s4.8,11.6,4.8,11.6s2.7,2.8,8.9,3.4
		s11.8-1.5,11.8-1.5l8-3.9c0,0,5.7-3.7,5.8-5.7s-3.4-3.1-3.4-3.1l-5.5-3.3c0,0-1.2-1.3,0.2-3.1c1.3-1.8,6.8-5.4,6.8-5.4
		S105.8,291.1,102,286z"/>
	<circle class="st32" cx="91.4" cy="286" r="3.1"/>
	<circle class="st33" cx="81.4" cy="288.3" r="3.1"/>
	<circle class="st34" cx="71.7" cy="294.5" r="3.1"/>
	<circle class="st35" cx="67" cy="303.8" r="3.1"/>
	<circle class="st36" cx="70" cy="312.2" r="3.1"/>
	<circle class="st37" cx="78.3" cy="316.6" r="3.1"/>
	<ellipse transform="matrix(0.866 -0.5 0.5 0.866 -142.6391 88.5042)" class="st38" cx="93.8" cy="310.4" rx="4.8" ry="3"/>
	<path class="st39" d="M66,273.1c0,0,4,1.4,5.1,2.9c1.1,1.5,1.3,1.2,1.4,2.1s0.3,2.7,0.3,2.7l-2.8,1.8c0,0-1.8,0.4-2.9-2.7
		S66,273.1,66,273.1z"/>
	<g>
		<path class="st40" d="M65.9,272.9c-0.1,0.5,0.4,1,0.2,1.5c-0.1,0.2-0.2,0.3-0.3,0.5c-0.1,0.2,0,0.5,0.1,0.7c0.2,0.3,0.3,0.6,0.5,1
			c0.1-0.1,0.2-0.3,0.1-0.5c-0.1,0.1-0.2,0.4-0.2,0.5c0,0.1,0.1,0.3,0.2,0.3c0.2,0.1,0.5-0.1,0.6-0.3s0-0.5-0.1-0.7
			c-0.1-0.2-0.3-0.4-0.3-0.6c-0.1-0.3-0.2-0.6-0.3-0.9c0,0-0.1-0.1-0.1-0.1c-0.1,0-0.1,0-0.1,0c-0.3,0.2-0.3,0.5-0.2,0.8
			c0.1-0.3,0.1-0.7,0.2-1c0-0.1,0.1-0.2,0.1-0.2c0.1-0.1,0.3,0,0.4,0.2c0.4,0.5,0.8,1.1,1.1,1.7c-0.2-0.1-0.3-0.3-0.2-0.5
			c0-0.2,0.2-0.3,0.4-0.3c0.1,0,0.1,0.1,0.2,0.1c0.2,0,0.3-0.2,0.3-0.3c0-0.2-0.2-0.3-0.3-0.4c-0.5-0.4-1.1-0.8-1.6-1.1
			c0,0-0.1,0.1-0.1,0.2c0.6,0.6,1.2,1.2,1.8,1.7c-0.2-0.2-0.4-0.3-0.7-0.5c0,0-0.1-0.1-0.1-0.1c0,0,0.1,0,0.1,0"/>
	</g>
	<polygon class="st41" points="71.4,287.5 91.4,320.9 94.3,324.4 93.3,320.5 75.8,284.5 72.7,280.8 69.9,282.5 	"/>
	<g class="st42">
		<g>
			<path class="st43" d="M73.3,288.4C73.3,288.4,73.3,288.4,73.3,288.4C73.3,288.4,73.3,288.4,73.3,288.4c0.1,0,0.1,0,0.1,0
				c0,0,0.1,0,0.1,0c0,0,0.1,0,0.1,0c0,0,0.1,0,0.1,0c0,0,0.1,0.1,0,0c0,0,0.1,0.1,0,0c0,0,0,0,0,0c0,0,0,0,0,0c0,0.1,0-0.1,0,0
				c0,0,0,0,0,0c0,0,0,0,0,0c0,0,0,0.1,0,0.1c0,0,0,0.1-0.1,0.1c-0.1,0.2-0.2,0.4-0.1,0.6c0.1,0.4,0.5,0.5,0.9,0.7
				c0.3,0.2,0.7,0.4,1,0.6c0.2,0.1,0.4,0,0.5-0.1c0.1-0.2,0.1-0.4-0.1-0.5c-0.4-0.2-0.7-0.4-1.1-0.6c-0.1,0-0.2-0.1-0.3-0.2
				c0,0-0.1,0-0.1-0.1c0,0-0.1-0.1-0.1,0c0,0-0.1,0-0.1-0.1c0,0,0,0,0,0c0,0,0,0,0,0c0,0,0,0,0,0c0,0,0,0,0,0c0,0,0,0,0,0
				c0,0,0,0,0,0c0.1-0.2,0.2-0.3,0.2-0.5c0-0.2-0.1-0.4-0.2-0.5c-0.2-0.2-0.6-0.3-0.9-0.3c-0.2,0-0.4,0.2-0.4,0.4
				C72.9,288.2,73.1,288.4,73.3,288.4L73.3,288.4z"/>
		</g>
	</g>
	<g class="st42">
		<g>
			<path class="st43" d="M73.1,282.4c-0.5,0.3-0.5,1-0.2,1.4c0.2,0.2,0.3,0.4,0.5,0.5c0,0,0.1,0.1,0.1,0.1c0,0,0,0,0.1,0.1
				c0,0,0,0,0,0c0,0,0.1,0.1,0.1,0.1c0-0.1,0,0,0,0c0,0,0,0.1,0,0.1c0,0.2,0.3,0.3,0.5,0.3c0.2-0.1,0.3-0.3,0.3-0.5
				c-0.1-0.5-0.5-0.7-0.8-1c0,0-0.1-0.1-0.1-0.1c0,0,0,0,0,0c0,0,0,0,0-0.1c0,0,0,0,0-0.1c0-0.1,0,0,0,0c0,0,0,0,0-0.1
				c0-0.1,0,0,0,0c0,0,0-0.1,0-0.1c0,0,0,0.1,0,0c0,0,0-0.1,0-0.1c0,0,0,0.1,0,0c0,0,0,0,0,0c0,0,0,0,0,0c0,0,0,0,0,0c0,0,0,0,0,0
				c0,0-0.1,0,0,0c0.2-0.1,0.2-0.3,0.1-0.5C73.5,282.4,73.3,282.3,73.1,282.4L73.1,282.4z"/>
		</g>
	</g>
	<g class="st42">
		<g>
			<path class="st43" d="M77.7,294.3c0.3,1,0.7,2.1,1.6,2.6c0.2,0.1,0.4,0,0.5-0.1c0.1-0.2,0-0.4-0.1-0.5c-0.1,0-0.1-0.1-0.2-0.1
				s0,0,0,0c0,0,0,0-0.1-0.1c-0.1-0.1-0.2-0.1-0.2-0.2c0,0,0,0-0.1-0.1c0,0,0,0,0,0c0,0-0.1-0.1-0.1-0.1c-0.1-0.1-0.1-0.2-0.2-0.3
				c-0.1-0.1-0.1-0.2-0.2-0.3c0-0.1,0,0.1,0,0c0,0,0-0.1,0-0.1c0,0,0-0.1-0.1-0.1c-0.1-0.2-0.2-0.5-0.2-0.7
				c-0.1-0.2-0.3-0.3-0.5-0.3C77.8,293.9,77.7,294,77.7,294.3L77.7,294.3z"/>
		</g>
	</g>
	<g class="st42">
		<g>
			<path class="st43" d="M81.6,302.5C81.6,302.6,81.6,302.6,81.6,302.5C81.6,302.5,81.6,302.5,81.6,302.5c0,0-0.1,0-0.1,0
				c0.1,0-0.1,0,0,0c0.1,0,0,0,0,0l0,0c0,0-0.1-0.1,0,0L81.6,302.5c-0.1,0-0.1,0-0.1,0C81.5,302.6,81.5,302.6,81.6,302.5
				C81.5,302.7,81.5,302.6,81.6,302.5c-0.1,0.1-0.1,0.1-0.1,0.1s0,0,0,0.1c0,0,0-0.1,0,0c0,0.1-0.1,0.3-0.1,0.4
				c-0.1,0.5,0.2,0.9,0.6,1.1c0.2,0.1,0.4,0.1,0.5-0.1c0.1-0.2,0.1-0.4-0.1-0.5c0,0-0.1-0.1-0.1-0.1c0,0,0,0,0,0c0,0,0,0,0,0
				c0,0,0,0,0,0c0,0,0,0.1,0,0c0,0,0,0,0-0.1c0,0,0,0,0,0c0,0,0,0,0,0c0,0,0,0,0-0.1c0,0,0,0,0,0c0,0,0,0,0,0c0,0,0,0,0,0
				c0,0,0,0,0,0c0,0,0,0,0-0.1c0,0,0,0,0-0.1c0,0,0,0,0,0c0,0,0-0.1,0-0.2c0-0.1,0-0.2,0-0.2c0-0.3,0-0.5-0.2-0.7
				c-0.1-0.1-0.2-0.2-0.3-0.2c-0.2,0-0.3,0-0.5,0c-0.2,0.1-0.2,0.4-0.1,0.5C81.2,302.6,81.4,302.6,81.6,302.5L81.6,302.5z"/>
		</g>
	</g>
	<g class="st42">
		<g>
			<path class="st43" d="M87.5,309.2c-0.4-0.3-1-0.7-1-1.3c0-0.2,0-0.4,0-0.6s-0.1-0.4-0.1-0.5c-0.2-0.4-0.4-0.7-0.6-1
				c-0.1-0.2-0.4-0.1-0.5,0c-0.2,0.1-0.1,0.4,0,0.5c0.2,0.3,0.4,0.5,0.5,0.8c0.1,0.2,0,0.4,0,0.5s0,0.4,0,0.6
				c0.2,0.7,0.8,1.2,1.3,1.6c0.2,0.1,0.4,0,0.5-0.1C87.7,309.5,87.7,309.3,87.5,309.2L87.5,309.2z"/>
		</g>
	</g>
	<g class="st42">
		<g>
			<path class="st43" d="M87.6,313.1c-0.1,1.1,0.4,2.2,1.3,2.8c0.2,0.1,0.4,0,0.5-0.1c0.1-0.2,0-0.4-0.1-0.5c0,0-0.1-0.1-0.1,0
				c0,0,0,0,0,0c0,0-0.1-0.1-0.1-0.1c-0.1-0.1-0.2-0.2-0.2-0.2c-0.1-0.1,0,0,0,0c0,0,0,0,0-0.1c0,0-0.1-0.1-0.1-0.1
				c-0.1-0.1-0.1-0.2-0.2-0.3c0-0.1,0,0,0,0c0,0,0-0.1,0-0.1c0,0,0-0.1-0.1-0.2c0-0.1-0.1-0.2-0.1-0.3c0-0.1,0,0,0,0
				c0,0,0-0.1,0-0.1c0-0.1,0-0.1,0-0.2c0-0.1,0-0.2,0-0.4c0-0.2-0.2-0.4-0.4-0.4C87.7,312.7,87.6,312.9,87.6,313.1L87.6,313.1z"/>
		</g>
	</g>
	<g class="st42">
		<g>
			<path class="st43" d="M90.5,318.8c0.4,0.6,0.8,1.1,1.2,1.6c0.1,0.1,0.4,0.1,0.5,0c0.1-0.2,0.1-0.4,0-0.5
				c-0.1-0.1-0.2-0.2-0.3-0.4c-0.1-0.1-0.1-0.1-0.1-0.2c0,0,0-0.1,0,0s0,0,0,0c0,0-0.1-0.1-0.1-0.1c-0.2-0.3-0.4-0.5-0.5-0.8
				c-0.1-0.2-0.3-0.3-0.5-0.1C90.5,318.4,90.4,318.7,90.5,318.8L90.5,318.8z"/>
		</g>
	</g>
	<g class="st42">
		<g>
			<path class="st43" d="M81.1,298.8c-0.3,0.7,0,1.6,0.6,2.1c0.3,0.2,0.6,0.4,0.8,0.7c0.2,0.3,0.3,0.6,0.3,1c0,0.5,0.8,0.5,0.7,0
				c0-0.8-0.4-1.5-1-2c-0.3-0.2-0.6-0.4-0.7-0.7c-0.1-0.3-0.1-0.6,0-0.9c0.1-0.2-0.1-0.4-0.3-0.5C81.3,298.5,81.1,298.6,81.1,298.8
				L81.1,298.8z"/>
		</g>
	</g>
	<g class="st42">
		<g>
			<path class="st43" d="M73.2,285.1c-0.2,0.1-0.3,0.3-0.3,0.6c0.1,0.2,0.3,0.4,0.5,0.5c0.5,0.2,0.9,0.4,1.4,0.5
				c0.1,0,0.2,0,0.3-0.2c0-0.1,0-0.3-0.2-0.3c-0.4-0.1-0.8-0.2-1.1-0.4c-0.1,0-0.3-0.1-0.4-0.2c0,0,0,0,0,0c0,0,0,0,0,0c0,0,0,0,0,0
				c0,0,0,0,0,0c0,0,0,0,0,0c0,0,0,0,0,0c0,0,0,0,0,0c0,0,0,0,0,0c0,0,0,0,0,0c0,0,0,0,0,0c0.1,0,0.2-0.1,0.2-0.3
				C73.5,285.2,73.3,285.1,73.2,285.1L73.2,285.1z"/>
		</g>
	</g>
	<g class="st42">
		<g>
			<path class="st43" d="M77.6,291.2c-0.4,0.1-0.8,0.2-1.1,0.4c-0.1,0-0.1,0.2-0.1,0.3c0,0.1,0.1,0.2,0.1,0.3c0,0.1,0.2,0.2,0.3,0.2
				c0.1,0,0.2-0.2,0.2-0.3c0-0.1-0.1-0.2-0.1-0.3c0,0.1-0.1,0.2-0.1,0.3c0,0,0,0,0,0c0,0,0,0,0,0s0,0,0.1,0c0,0,0.1,0,0.1,0
				c0.1,0,0.2-0.1,0.3-0.1c0.2-0.1,0.3-0.1,0.5-0.1c0.1,0,0.2-0.2,0.2-0.3C77.9,291.3,77.8,291.2,77.6,291.2L77.6,291.2z"/>
		</g>
	</g>
	<g class="st42">
		<g>
			<path class="st43" d="M77.7,295.4c-0.3,0.8-0.1,1.7,0.5,2.3c0.2,0.2,0.5-0.1,0.3-0.3c-0.4-0.5-0.6-1.2-0.4-1.8
				C78.2,295.2,77.7,295.1,77.7,295.4L77.7,295.4z"/>
		</g>
	</g>
	<g class="st42">
		<g>
			<path class="st43" d="M83.9,306.8c-0.1,0.4,0.2,0.8,0.5,1c0.1,0.1,0.3,0.2,0.4,0.3c0.1,0.1,0.1,0.1,0.1,0.2c0,0,0,0,0,0s0,0,0,0
				c0,0,0,0,0,0c0,0,0,0.1,0,0c0,0.1,0,0.2,0.2,0.3c0.1,0,0.3,0,0.3-0.2c0-0.2,0-0.4-0.1-0.6c-0.1-0.2-0.3-0.3-0.4-0.4
				c-0.1-0.1-0.3-0.2-0.4-0.3c0,0,0,0-0.1-0.1c0,0,0,0,0,0c0,0,0-0.1,0,0c0,0,0,0,0-0.1c0,0,0,0,0,0c0-0.1,0-0.1,0-0.1
				c0-0.1,0-0.2-0.2-0.3C84.1,306.6,84,306.7,83.9,306.8L83.9,306.8z"/>
		</g>
	</g>
	<path class="st51" d="M26.5,269.5h0.7c0,0,0.5-1.7,2-1.8c1.5-0.1,2,1.8,2,1.8h0.7c-0.1-1.5-1.3-2.7-2.7-2.7c-1.4,0-2.5,1.3-2.6,2.3
		C26.5,269.3,26.5,269.4,26.5,269.5z"/>
	<path class="st52" d="M45.3,323.9H13.9c-0.6,0-1-0.5-1-1v-48.1c0-0.6,0.4-1,1-1h31.4c0.6,0,1,0.5,1,1v48.1
		C46.3,323.4,45.9,323.9,45.3,323.9z"/>
	<polygon class="st53" points="20.8,273.7 25,269.5 29.2,269.5 29.2,273.7 	"/>
	<polygon class="st53" points="37.3,273.7 33.1,269.5 28.9,269.5 28.9,273.7 	"/>
	<rect x="27.7" y="269.7" class="st54" width="1.9" height="3.8"/>
	<path class="st54" d="M27.3,269.5"/>
	<rect x="15.1" y="276.4" class="st55" width="29.1" height="45.6"/>
	<rect x="17.3" y="279.8" class="st56" width="5.1" height="5.1"/>
	<rect x="17.3" y="289.9" class="st56" width="5.1" height="5.1"/>
	<rect x="17.3" y="300" class="st56" width="5.1" height="5.1"/>
	<rect x="17.3" y="310.2" class="st56" width="5.1" height="5.1"/>
	<g>
		<g>
			<path class="st57" d="M16.2,283.4c0.7,0.7,1.5,1.4,2.3,2c0.4,0.3,0.8,0.2,1.1-0.1c1.5-2,3-4,4.6-6c0.2-0.3,0-0.8-0.2-0.9
				c-0.3-0.2-0.7,0-0.9,0.2c-1.5,2-3,4-4.6,6c0.4,0,0.7-0.1,1.1-0.1c-0.8-0.6-1.5-1.3-2.3-2C16.5,281.8,15.6,282.8,16.2,283.4
				L16.2,283.4z"/>
		</g>
	</g>
	<g>
		<g>
			<path class="st57" d="M16.2,293.8c0.8,0.8,1.6,1.4,2.5,2.1c0.3,0.2,0.7,0,0.9-0.2c1.5-2,2.9-4.1,4.4-6.1c0.2-0.3,0-0.8-0.2-0.9
				c-0.3-0.2-0.7-0.1-0.9,0.2c-1.5,2-2.9,4.1-4.4,6.1c0.3-0.1,0.6-0.2,0.9-0.2c-0.8-0.6-1.5-1.2-2.2-1.9
				C16.5,292.2,15.6,293.2,16.2,293.8L16.2,293.8z"/>
		</g>
	</g>
	<g>
		<g>
			<path class="st57" d="M16.8,303.5c0.7,0.7,1.4,1.4,2.2,2.1c0.3,0.2,0.7,0.3,1,0c1.6-2,3.1-3.9,4.7-5.9c0.2-0.3,0.3-0.7,0-1
				c-0.2-0.2-0.7-0.3-1,0c-1.5,2-3.1,4-4.7,5.9c0.3,0,0.6,0,1,0c-0.8-0.6-1.5-1.3-2.2-2.1C17.2,301.9,16.2,302.8,16.8,303.5
				L16.8,303.5z"/>
		</g>
	</g>
	<g>
		<g>
			<path class="st57" d="M16.9,313.6c0.7,0.7,1.5,1.4,2.2,2.1c0.3,0.2,0.7,0.3,1,0c1.6-2,3.2-4,4.7-6.1c0.2-0.3,0-0.8-0.2-0.9
				c-0.4-0.2-0.7,0-0.9,0.2c-1.5,1.9-3,3.9-4.5,5.8c0.3,0,0.6,0,1,0c-0.8-0.6-1.5-1.3-2.2-2.1C17.2,312,16.3,313,16.9,313.6
				L16.9,313.6z"/>
		</g>
	</g>
	<g>
		<g>
			<path d="M27.9,281.6c1.1-0.5,2.3-1,3.5-1.1c1.3,0,2.2,0.8,3.3,1.2c2.2,0.7,4.5,0,6.7,0c0.4,0,0.4-0.7,0-0.7
				c-2.6,0-5.1,0.8-7.5-0.5c-1-0.5-2-0.8-3.1-0.7c-1.2,0.1-2.2,0.6-3.3,1.1C27.2,281.3,27.5,281.8,27.9,281.6L27.9,281.6z"/>
		</g>
	</g>
	<g>
		<g>
			<path d="M27.9,284.7c1.1-0.5,2.3-1,3.5-1.1c1.3,0,2.2,0.8,3.3,1.2c2.2,0.7,4.5,0,6.7,0c0.4,0,0.4-0.7,0-0.7
				c-2.6,0-5.1,0.8-7.5-0.5c-1-0.5-2-0.8-3.1-0.7c-1.2,0.1-2.2,0.6-3.3,1.1C27.2,284.3,27.5,284.9,27.9,284.7L27.9,284.7z"/>
		</g>
	</g>
	<g>
		<g>
			<path d="M27.9,291.6c1.1-0.5,2.3-1,3.5-1.1c1.3,0,2.2,0.8,3.3,1.2c2.2,0.7,4.5,0,6.7,0c0.4,0,0.4-0.7,0-0.7
				c-2.6,0-5.1,0.8-7.5-0.5c-1-0.5-2-0.8-3.1-0.7c-1.2,0.1-2.2,0.6-3.3,1.1C27.2,291.2,27.5,291.8,27.9,291.6L27.9,291.6z"/>
		</g>
	</g>
	<g>
		<g>
			<path d="M27.9,294.6c1.1-0.5,2.3-1,3.5-1.1c1.3,0,2.2,0.8,3.3,1.2c2.2,0.7,4.5,0,6.7,0c0.4,0,0.4-0.7,0-0.7
				c-2.6,0-5.1,0.8-7.5-0.5c-1-0.5-2-0.8-3.1-0.7c-1.2,0.1-2.2,0.6-3.3,1.1C27.2,294.3,27.5,294.8,27.9,294.6L27.9,294.6z"/>
		</g>
	</g>
	<g>
		<g>
			<path d="M27.5,301.7c1.1-0.5,2.3-1,3.5-1.1c1.3,0,2.2,0.8,3.3,1.2c2.2,0.7,4.5,0,6.7,0c0.4,0,0.4-0.7,0-0.7
				c-2.6,0-5.1,0.8-7.5-0.5c-1-0.5-2-0.8-3.1-0.7c-1.2,0.1-2.2,0.6-3.3,1.1C26.7,301.3,27.1,301.9,27.5,301.7L27.5,301.7z"/>
		</g>
	</g>
	<g>
		<g>
			<path d="M27.5,304.8c1.1-0.5,2.3-1,3.5-1.1c1.3,0,2.2,0.8,3.3,1.2c2.2,0.7,4.5,0,6.7,0c0.4,0,0.4-0.7,0-0.7
				c-2.6,0-5.1,0.8-7.5-0.5c-1-0.5-2-0.8-3.1-0.7c-1.2,0.1-2.2,0.6-3.3,1.1C26.7,304.4,27.1,305,27.5,304.8L27.5,304.8z"/>
		</g>
	</g>
	<g>
		<g>
			<path d="M27.9,311.3c1.1-0.5,2.3-1,3.5-1.1c1.3,0,2.2,0.8,3.3,1.2c2.2,0.7,4.5,0,6.7,0c0.4,0,0.4-0.7,0-0.7
				c-2.6,0-5.1,0.8-7.5-0.5c-1-0.5-2-0.8-3.1-0.7c-1.2,0.1-2.2,0.6-3.3,1.1C27.2,311,27.5,311.5,27.9,311.3L27.9,311.3z"/>
		</g>
	</g>
	<g>
		<g>
			<path d="M27.9,314.4c1.1-0.5,2.3-1,3.5-1.1c1.3,0,2.2,0.8,3.3,1.2c2.2,0.7,4.5,0,6.7,0c0.4,0,0.4-0.7,0-0.7
				c-2.6,0-5.1,0.8-7.5-0.5c-1-0.5-2-0.8-3.1-0.7c-1.2,0.1-2.2,0.6-3.3,1.1C27.2,314,27.5,314.6,27.9,314.4L27.9,314.4z"/>
		</g>
	</g>
</g>
<g id="Layer_6">
</g>
</svg>
