<?xml version="1.0" encoding="utf-8"?>
<!-- Generator: Adobe Illustrator 24.1.3, SVG Export Plug-In . SVG Version: 6.00 Build 0)  -->
<svg version="1.1" xmlns="http://www.w3.org/2000/svg" xmlns:xlink="http://www.w3.org/1999/xlink" x="0px" y="0px"
	 viewBox="0 0 1060 1060" style="enable-background:new 0 0 1060 1060;" xml:space="preserve">
<style type="text/css">
	.st0{fill:#B84026;}
	.st1{fill:#FFFFFF;stroke:#000000;stroke-width:18;stroke-miterlimit:10;}
	.st2{fill:#6BC1ED;stroke:#000000;stroke-width:18;stroke-miterlimit:10;}
	.st3{stroke:#000000;stroke-width:14.7151;stroke-miterlimit:10;}
	.st4{stroke:#000000;stroke-miterlimit:10;}
</style>
<g id="Layer_1">
	<rect class="st0" width="1060" height="1060"/>
</g>
<g id="Layer_2">
	<rect x="199.77" y="63.14" class="st1" width="660.47" height="933.72"/>
	<rect x="208.58" y="66.74" class="st2" width="355.6" height="355.6"/>
	<circle class="st3" cx="377.57" cy="171.78" r="85.55"/>
	<path class="st4" d="M349.96,240.94v31.38c0,0-81.79-8.14-84.12,24.42c-2.33,32.56,0,122,0,122h111.73V247.91"/>
	<path class="st4" d="M400.94,240.94v31.38c0,0,81.79-8.14,84.12,24.42c2.33,32.56,0,122,0,122H373.33V247.91"/>
</g>
<g id="Layer_3">
	<g>
		<g>
			<path d="M615.3,211.67c9.14-10.58,23.01-26.22,38.76-20.8c7.07,2.43,12.78,7.78,19.48,11c7.16,3.44,14.57,4.36,22.38,2.96
				c17.01-3.05,30.78-14.39,48.65-14.21c18.38,0.19,35.85,8.37,52.14,16.08c6.36,3.01,11.95-6.47,5.55-9.5
				c-13.8-6.53-27.97-13.11-43.06-16c-14.56-2.79-28.37-1.45-42.06,4.21c-12.41,5.14-26.07,13.17-39.37,6.29
				c-11.24-5.82-20.39-14.41-34-12.66C628.66,181,617,192.93,607.53,203.9C602.92,209.23,610.66,217.04,615.3,211.67L615.3,211.67z"
				/>
		</g>
	</g>
	<g>
		<g>
			<path d="M621.5,276.52c8.39-3.79,17.2-6.59,26.23-8.37c4-0.79,9.09-2.12,12.92-0.05c2.79,1.5,4.68,4.5,6.58,6.94
				c4.7,6.05,10.07,10.42,17.82,11.73c8.51,1.43,16.82-0.77,24.69-3.91c14.86-5.92,28.57-10.27,44.75-7.27
				c14.77,2.75,28.07,9.99,38.09,21.22c4.72,5.29,12.48-2.51,7.78-7.78c-16.52-18.51-42.25-27.97-66.85-24.9
				c-6.36,0.79-12.43,2.37-18.39,4.72c-6.96,2.74-13.99,6.43-21.53,7.24c-6.93,0.75-12.44-1.22-16.85-6.61
				c-3.86-4.72-7.15-9.76-13.08-12.05c-7.08-2.73-15.28-0.75-22.4,0.87c-8.74,1.99-17.15,5.03-25.31,8.72
				C609.51,269.94,615.09,279.42,621.5,276.52L621.5,276.52z"/>
		</g>
	</g>
	<g>
		<g>
			<path d="M621.54,343.17c11.86-6.87,27.26-13.59,41.29-12.97c7.19,0.32,10.24,6.19,16.31,8.89c6.34,2.83,12.78,0.11,18.94-1.86
				c13.36-4.27,27.57-10.87,41.68-6.44c12.65,3.97,22.75,13.86,32.04,22.87c5.08,4.93,12.87-2.84,7.78-7.78
				c-10.07-9.77-20.75-19.54-34.02-24.68c-15.45-5.98-30.12-1.06-45.11,3.74c-4.02,1.29-8.06,2.86-12.15,3.87
				c-3.85,0.95-5.54-0.1-8.44-2.55c-5.78-4.88-11.72-7.34-19.4-7.05c-15.45,0.59-31.23,6.81-44.46,14.47
				C609.86,337.22,615.39,346.73,621.54,343.17L621.54,343.17z"/>
		</g>
	</g>
	<g>
		<g>
			<path d="M248.58,488.78c32.75-14.33,71.99-13.57,104.31,1.65c8.23,3.87,15.32,9.15,23.07,13.77c8.07,4.81,16.79,5.11,25.1,0.65
				c8.28-4.44,13.51-12.21,20.11-18.6c7.32-7.1,16.41-9.01,26.31-7.23c10.11,1.82,19.37,6.55,28.94,10.06
				c9.81,3.61,20.05,5.49,30.5,5.79c21.36,0.61,42.33-4.7,63.23-8.35c17.22-3.01,35.57-4.68,52.73-0.39
				c8.35,2.09,16.35,5.63,23.04,11.12c6.84,5.61,12.85,11.62,22.38,11.17c5.86-0.27,11.22-2.73,16.66-4.66
				c5.33-1.89,10.81-3.39,16.39-4.32c11.09-1.85,22.12-0.89,32.75,2.74c19.54,6.66,36.7,19.03,57.9,20.15c7.07,0.37,7.05-10.63,0-11
				c-18.71-0.99-34.84-12.23-51.94-18.67c-18.96-7.14-39.04-6.22-58.02,0.49c-4.39,1.55-9.02,3.98-13.73,4.27
				c-5.18,0.32-8.68-2.81-12.34-5.99c-6.7-5.83-13.92-10.34-22.26-13.46c-16.65-6.23-35.24-6.2-52.67-4.1
				c-20.47,2.46-40.45,8.18-61.05,9.67c-10.98,0.8-22.05,0.44-32.72-2.49c-10.12-2.77-19.47-7.7-29.49-10.79
				c-9.04-2.79-19.05-4.05-28.3-1.51c-9.06,2.49-15.51,8.86-21.61,15.64c-5.69,6.34-13.97,15.86-23.52,11.82
				c-4.13-1.75-7.7-4.9-11.45-7.31c-3.97-2.55-8.08-4.87-12.31-6.96c-36.65-18.07-80.14-19.04-117.54-2.68
				C236.56,482.11,242.15,491.59,248.58,488.78L248.58,488.78z"/>
		</g>
	</g>
	<g>
		<g>
			<path d="M255.04,640.47c32.75-14.33,71.99-13.57,104.31,1.65c8.23,3.87,15.32,9.15,23.07,13.77c8.07,4.81,16.79,5.11,25.1,0.65
				c8.28-4.44,13.51-12.21,20.11-18.6c7.32-7.1,16.41-9.01,26.31-7.23c10.11,1.82,19.37,6.55,28.94,10.06
				c9.81,3.61,20.05,5.49,30.5,5.79c21.36,0.61,42.33-4.7,63.23-8.35c17.22-3.01,35.57-4.68,52.73-0.39
				c8.35,2.09,16.35,5.63,23.04,11.12c6.84,5.61,12.85,11.62,22.38,11.17c5.86-0.27,11.22-2.73,16.66-4.66
				c5.33-1.89,10.81-3.39,16.39-4.32c11.09-1.85,22.12-0.89,32.75,2.74c19.54,6.66,36.7,19.03,57.9,20.15c7.07,0.37,7.05-10.63,0-11
				c-18.71-0.99-34.84-12.23-51.94-18.67c-18.96-7.14-39.04-6.22-58.02,0.49c-4.39,1.55-9.02,3.98-13.73,4.27
				c-5.18,0.32-8.68-2.81-12.34-5.99c-6.7-5.83-13.92-10.34-22.26-13.46c-16.65-6.23-35.24-6.2-52.67-4.1
				c-20.47,2.46-40.45,8.18-61.05,9.67c-10.98,0.8-22.05,0.44-32.72-2.49c-10.12-2.77-19.47-7.7-29.49-10.79
				c-9.04-2.79-19.05-4.05-28.3-1.51c-9.06,2.49-15.51,8.86-21.61,15.64c-5.69,6.34-13.97,15.86-23.52,11.82
				c-4.13-1.75-7.7-4.9-11.45-7.31c-3.97-2.55-8.08-4.87-12.31-6.96c-36.65-18.07-80.14-19.04-117.54-2.68
				C243.01,633.8,248.61,643.28,255.04,640.47L255.04,640.47z"/>
		</g>
	</g>
	<g>
		<g>
			<path d="M255.04,566.98c32.75-14.33,71.99-13.57,104.31,1.65c8.23,3.87,15.32,9.15,23.07,13.77c8.07,4.81,16.79,5.11,25.1,0.65
				c8.28-4.44,13.51-12.21,20.11-18.6c7.32-7.1,16.41-9.01,26.31-7.23c10.11,1.82,19.37,6.55,28.94,10.06
				c9.81,3.61,20.05,5.49,30.5,5.79c21.36,0.61,42.33-4.7,63.23-8.35c17.22-3.01,35.57-4.68,52.73-0.39
				c8.35,2.09,16.35,5.63,23.04,11.12c6.84,5.61,12.85,11.62,22.38,11.17c5.86-0.27,11.22-2.73,16.66-4.66
				c5.33-1.89,10.81-3.39,16.39-4.32c11.09-1.85,22.12-0.89,32.75,2.74c19.54,6.66,36.7,19.03,57.9,20.15c7.07,0.37,7.05-10.63,0-11
				c-18.71-0.99-34.84-12.23-51.94-18.67c-18.96-7.14-39.04-6.22-58.02,0.49c-4.39,1.55-9.02,3.98-13.73,4.27
				c-5.18,0.32-8.68-2.81-12.34-5.99c-6.7-5.83-13.92-10.34-22.26-13.46c-16.65-6.23-35.24-6.2-52.67-4.1
				c-20.47,2.46-40.45,8.18-61.05,9.67c-10.98,0.8-22.05,0.44-32.72-2.49c-10.12-2.77-19.47-7.7-29.49-10.79
				c-9.04-2.79-19.05-4.05-28.3-1.51c-9.06,2.49-15.51,8.86-21.61,15.64c-5.69,6.34-13.97,15.86-23.52,11.82
				c-4.13-1.75-7.7-4.9-11.45-7.31c-3.97-2.55-8.08-4.87-12.31-6.96c-36.65-18.07-80.14-19.04-117.54-2.68
				C243.01,560.31,248.61,569.79,255.04,566.98L255.04,566.98z"/>
		</g>
	</g>
	<g>
		<g>
			<path d="M262.54,722.67c32.75-14.33,71.99-13.57,104.31,1.65c8.23,3.87,15.32,9.15,23.07,13.77c8.07,4.81,16.79,5.11,25.1,0.65
				c8.28-4.44,13.51-12.21,20.11-18.6c7.32-7.1,16.41-9.01,26.31-7.23c10.11,1.82,19.37,6.55,28.94,10.06
				c9.81,3.61,20.05,5.49,30.5,5.79c21.36,0.61,42.33-4.7,63.23-8.35c17.22-3.01,35.57-4.68,52.73-0.39
				c8.35,2.09,16.35,5.63,23.04,11.12c6.84,5.61,12.85,11.62,22.38,11.17c5.86-0.27,11.22-2.73,16.66-4.66
				c5.33-1.89,10.81-3.39,16.39-4.32c11.09-1.85,22.12-0.89,32.75,2.74c19.54,6.66,36.7,19.03,57.9,20.15c7.07,0.37,7.05-10.63,0-11
				c-18.71-0.99-34.84-12.23-51.94-18.67c-18.96-7.14-39.04-6.22-58.02,0.49c-4.39,1.55-9.02,3.98-13.73,4.27
				c-5.18,0.32-8.68-2.81-12.34-5.99c-6.7-5.83-13.92-10.34-22.26-13.46c-16.65-6.23-35.24-6.2-52.67-4.1
				c-20.47,2.46-40.45,8.18-61.05,9.67c-10.98,0.8-22.05,0.44-32.72-2.49c-10.12-2.77-19.47-7.7-29.49-10.79
				c-9.04-2.79-19.05-4.05-28.3-1.51c-9.06,2.49-15.51,8.86-21.61,15.64c-5.69,6.34-13.97,15.86-23.52,11.82
				c-4.13-1.75-7.7-4.9-11.45-7.31c-3.97-2.55-8.08-4.87-12.31-6.96c-36.65-18.07-80.14-19.04-117.54-2.68
				C250.52,716,256.11,725.48,262.54,722.67L262.54,722.67z"/>
		</g>
	</g>
	<g>
		<g>
			<path d="M255.04,792.16c32.75-14.33,71.99-13.57,104.31,1.65c8.23,3.87,15.32,9.15,23.07,13.77c8.07,4.81,16.79,5.11,25.1,0.65
				c8.28-4.44,13.51-12.21,20.11-18.6c7.32-7.1,16.41-9.01,26.31-7.23c10.11,1.82,19.37,6.55,28.94,10.06
				c9.81,3.61,20.05,5.49,30.5,5.79c21.36,0.61,42.33-4.7,63.23-8.35c17.22-3.01,35.57-4.68,52.73-0.39
				c8.35,2.09,16.35,5.63,23.04,11.12c6.84,5.61,12.85,11.62,22.38,11.17c5.86-0.27,11.22-2.73,16.66-4.66
				c5.33-1.89,10.81-3.39,16.39-4.32c11.09-1.85,22.12-0.89,32.75,2.74c19.54,6.66,36.7,19.03,57.9,20.15c7.07,0.37,7.05-10.63,0-11
				c-18.71-0.99-34.84-12.23-51.94-18.67c-18.96-7.14-39.04-6.22-58.02,0.49c-4.39,1.55-9.02,3.98-13.73,4.27
				c-5.18,0.32-8.68-2.81-12.34-5.99c-6.7-5.83-13.92-10.34-22.26-13.46c-16.65-6.23-35.24-6.2-52.67-4.1
				c-20.47,2.46-40.45,8.18-61.05,9.67c-10.98,0.8-22.05,0.44-32.72-2.49c-10.12-2.77-19.47-7.7-29.49-10.79
				c-9.04-2.79-19.05-4.05-28.3-1.51c-9.06,2.49-15.51,8.86-21.61,15.64c-5.69,6.34-13.97,15.86-23.52,11.82
				c-4.13-1.75-7.7-4.9-11.45-7.31c-3.97-2.55-8.08-4.87-12.31-6.96c-36.65-18.07-80.14-19.04-117.54-2.68
				C243.01,785.5,248.61,794.98,255.04,792.16L255.04,792.16z"/>
		</g>
	</g>
	<g>
		<g>
			<path d="M248.58,861.66c32.75-14.33,71.99-13.57,104.31,1.65c8.23,3.87,15.32,9.15,23.07,13.77c8.07,4.81,16.79,5.11,25.1,0.65
				c8.28-4.44,13.51-12.21,20.11-18.6c7.32-7.1,16.41-9.01,26.31-7.23c10.11,1.82,19.37,6.55,28.94,10.06
				c9.81,3.61,20.05,5.49,30.5,5.79c21.36,0.61,42.33-4.7,63.23-8.35c17.22-3.01,35.57-4.68,52.73-0.39
				c8.35,2.09,16.35,5.63,23.04,11.12c6.84,5.61,12.85,11.62,22.38,11.17c5.86-0.27,11.22-2.73,16.66-4.66
				c5.33-1.89,10.81-3.39,16.39-4.32c11.09-1.85,22.12-0.89,32.75,2.74c19.54,6.66,36.7,19.03,57.9,20.15c7.07,0.37,7.05-10.63,0-11
				c-18.71-0.99-34.84-12.23-51.94-18.67c-18.96-7.14-39.04-6.22-58.02,0.49c-4.39,1.55-9.02,3.98-13.73,4.27
				c-5.18,0.32-8.68-2.81-12.34-5.99c-6.7-5.83-13.92-10.34-22.26-13.46c-16.65-6.23-35.24-6.2-52.67-4.1
				c-20.47,2.46-40.45,8.18-61.05,9.67c-10.98,0.8-22.05,0.44-32.72-2.49c-10.12-2.77-19.47-7.7-29.49-10.79
				c-9.04-2.79-19.05-4.05-28.3-1.51c-9.06,2.49-15.51,8.86-21.61,15.64c-5.69,6.34-13.97,15.86-23.52,11.82
				c-4.13-1.75-7.7-4.9-11.45-7.31c-3.97-2.55-8.08-4.87-12.31-6.96c-36.65-18.07-80.14-19.04-117.54-2.68
				C236.56,854.99,242.15,864.47,248.58,861.66L248.58,861.66z"/>
		</g>
	</g>
	<g>
		<g>
			<path d="M262.54,931.16c32.75-14.33,71.99-13.57,104.31,1.65c8.23,3.87,15.32,9.15,23.07,13.77c8.07,4.81,16.79,5.11,25.1,0.65
				c8.28-4.44,13.51-12.21,20.11-18.6c7.32-7.1,16.41-9.01,26.31-7.23c10.11,1.82,19.37,6.55,28.94,10.06
				c9.81,3.61,20.05,5.49,30.5,5.79c21.36,0.61,42.33-4.7,63.23-8.35c17.22-3.01,35.57-4.68,52.73-0.39
				c8.35,2.09,16.35,5.63,23.04,11.12c6.84,5.61,12.85,11.62,22.38,11.17c5.86-0.27,11.22-2.73,16.66-4.66
				c5.33-1.89,10.81-3.39,16.39-4.32c11.09-1.85,22.12-0.89,32.75,2.74c19.54,6.66,36.7,19.03,57.9,20.15c7.07,0.37,7.05-10.63,0-11
				c-18.71-0.99-34.84-12.23-51.94-18.67c-18.96-7.14-39.04-6.22-58.02,0.49c-4.39,1.55-9.02,3.98-13.73,4.27
				c-5.18,0.32-8.68-2.81-12.34-5.99c-6.7-5.83-13.92-10.34-22.26-13.46c-16.65-6.23-35.24-6.2-52.67-4.1
				c-20.47,2.46-40.45,8.18-61.05,9.67c-10.98,0.8-22.05,0.44-32.72-2.49c-10.12-2.77-19.47-7.7-29.49-10.79
				c-9.04-2.79-19.05-4.05-28.3-1.51c-9.06,2.49-15.51,8.86-21.61,15.64c-5.69,6.34-13.97,15.86-23.52,11.82
				c-4.13-1.75-7.7-4.9-11.45-7.31c-3.97-2.55-8.08-4.87-12.31-6.96c-36.65-18.07-80.14-19.04-117.54-2.68
				C250.52,924.49,256.11,933.97,262.54,931.16L262.54,931.16z"/>
		</g>
	</g>
	<g>
		<g>
			<path d="M620.19,401.2c11.86-6.87,27.26-13.59,41.29-12.97c7.19,0.32,10.24,6.19,16.31,8.89c6.34,2.83,12.78,0.11,18.94-1.86
				c13.36-4.27,27.57-10.87,41.68-6.44c12.65,3.97,22.75,13.86,32.04,22.87c5.08,4.93,12.87-2.84,7.78-7.78
				c-10.07-9.77-20.75-19.54-34.02-24.68c-15.45-5.98-30.12-1.06-45.11,3.74c-4.02,1.29-8.06,2.86-12.15,3.87
				c-3.85,0.95-5.54-0.1-8.44-2.55c-5.78-4.88-11.72-7.34-19.4-7.05c-15.45,0.59-31.23,6.81-44.46,14.47
				C608.51,395.25,614.05,404.76,620.19,401.2L620.19,401.2z"/>
		</g>
	</g>
	<g>
		<g>
			<path d="M656.37,152.55c0.99-19.7,1.99-39.39,2.98-59.09c-3.11,0.84-6.21,1.68-9.32,2.52c9.53,19,18.52,38.26,26.97,57.77
				c1.11,2.56,4.68,2.92,6.84,1.79c3.73-1.94,5.33-5.4,6.43-9.29c1.56-5.56,2.7-11.28,3.84-16.94c2.24-11.17,3.9-22.44,5.12-33.76
				c0.69-6.39-9.32-6.34-10,0c-0.98,9.16-2.31,18.26-4.02,27.31c-0.84,4.43-1.76,8.84-2.77,13.23c-0.63,2.73-0.94,9.41-3.64,10.82
				c2.28,0.6,4.56,1.2,6.84,1.79c-8.45-19.51-17.44-38.77-26.97-57.77c-2.36-4.7-9.08-2.1-9.32,2.52
				c-0.99,19.7-1.99,39.39-2.98,59.09C646.05,158.98,656.05,158.97,656.37,152.55L656.37,152.55z"/>
		</g>
	</g>
	<g>
		<g>
			<path d="M720.82,99.07c0.16,16.42,1.45,32.74,3.73,49c0.89,6.35,10.52,3.65,9.64-2.66c-2.15-15.36-3.22-30.84-3.37-46.34
				C730.76,92.64,720.76,92.62,720.82,99.07L720.82,99.07z"/>
		</g>
	</g>
	<g>
		<g>
			<path d="M756.65,102.1c-4.42,4.94-8.86,9.99-14.1,14.08c-4.11,3.21-10.06,5.27-12.73,10.04c-2.62,4.68-0.64,9.61,2.79,13.18
				c5.38,5.6,11.57,10.59,17.31,15.81c4.75,4.33,11.84-2.72,7.07-7.07c-4.19-3.82-8.37-7.64-12.56-11.45
				c-1.32-1.2-4.67-3.24-5.26-4.97c-0.58-1.72,1.73-2.47,3.31-3.43c8.26-5.06,14.83-11.94,21.25-19.12
				C768,104.39,760.95,97.29,756.65,102.1L756.65,102.1z"/>
		</g>
	</g>
</g>
</svg>
