<?xml version="1.0" encoding="utf-8"?>
<!-- Generator: Adobe Illustrator 24.1.3, SVG Export Plug-In . SVG Version: 6.00 Build 0)  -->
<svg version="1.1" xmlns="http://www.w3.org/2000/svg" xmlns:xlink="http://www.w3.org/1999/xlink" x="0px" y="0px"
	 viewBox="0 0 1060 1060" style="enable-background:new 0 0 1060 1060;" xml:space="preserve">
<style type="text/css">
	.st0{fill:#1F3B6F;}
	.st1{fill:#FFFFFF;stroke:#000000;stroke-width:9.4393;stroke-miterlimit:10;}
	.st2{fill:none;stroke:#000000;stroke-width:4.7196;stroke-miterlimit:10;}
</style>
<g id="Layer_4">
	<rect class="st0" width="1060" height="1060"/>
</g>
<g id="Layer_1">
</g>
<g id="Layer_2">
	<polyline class="st1" points="553.6,1037.45 274.72,1037.45 274.72,1002.84 302.72,1002.84 327.24,962.26 337.34,962.26 
		354.65,941.97 379.18,941.97 376.29,136.11 351.77,136.11 331.57,110.02 320.03,110.02 298.39,73.79 274.72,73.79 274.72,34.55 
		553.6,34.55 	"/>
	<polyline class="st1" points="547.6,1037.45 826.47,1037.45 826.47,1002.84 798.48,1002.84 773.95,962.26 763.85,962.26 
		746.54,941.97 722.02,941.97 724.9,136.11 749.43,136.11 769.62,110.02 781.17,110.02 802.81,73.79 826.47,73.79 826.47,34.55 
		547.6,34.55 	"/>
</g>
<g id="Layer_3">
	<line class="st2" x1="302.72" y1="1002.84" x2="804.48" y2="1002.84"/>
	<line class="st2" x1="337.34" y1="962.26" x2="769.85" y2="962.26"/>
	<line class="st2" x1="379.16" y1="936.65" x2="728.04" y2="936.65"/>
	<line class="st2" x1="376.29" y1="136.11" x2="730.9" y2="136.11"/>
	<line class="st2" x1="331.57" y1="110.02" x2="775.62" y2="110.02"/>
	<line class="st2" x1="298.39" y1="73.79" x2="808.81" y2="73.79"/>
	<path class="st2" d="M419.81,189.86c0,0,11.18-34.79,21.28,0c10.1,34.79,0,710.2,0,710.2s-9.38,33.34-21.28,0
		C407.91,866.72,419.81,189.86,419.81,189.86z"/>
	<path class="st2" d="M491.98,189.86c0,0,11.18-34.79,21.28,0c10.1,34.79,0,710.2,0,710.2s-9.38,33.34-21.28,0
		C480.08,866.72,491.98,189.86,491.98,189.86z"/>
	<path class="st2" d="M578.21,190.3c0,0,11.18-34.79,21.28,0c10.1,34.79,0,710.2,0,710.2s-9.38,33.34-21.28,0
		C566.31,867.16,578.21,190.3,578.21,190.3z"/>
	<path class="st2" d="M657.63,190.3c0,0,11.18-34.79,21.28,0c10.1,34.79,0,710.2,0,710.2s-9.38,33.34-21.28,0
		C645.73,867.16,657.63,190.3,657.63,190.3z"/>
</g>
</svg>
