<?xml version="1.0" encoding="utf-8"?>
<!-- Generator: Adobe Illustrator 24.1.2, SVG Export Plug-In . SVG Version: 6.00 Build 0)  -->
<svg version="1.1" xmlns="http://www.w3.org/2000/svg" xmlns:xlink="http://www.w3.org/1999/xlink" x="0px" y="0px"
	 viewBox="0 0 1060 1060" style="enable-background:new 0 0 1060 1060;" xml:space="preserve">
<style type="text/css">
	.st0{fill:#F37434;stroke:#000000;stroke-width:0.8395;stroke-miterlimit:10;}
	.st1{fill:#3499CC;}
	.st2{fill:#87C540;}
	.st3{fill:#87C540;stroke:#000000;stroke-miterlimit:10;}
	.st4{fill:#87C540;stroke:#000000;stroke-width:1.6618;stroke-miterlimit:10;}
	.st5{fill:#EEEB5F;}
	.st6{fill:none;stroke:#000000;stroke-miterlimit:10;}
	.st7{fill:none;stroke:#000000;stroke-width:1.6618;stroke-miterlimit:10;}
	.st8{fill:#FDBA2D;}
	.st9{fill:#EF4425;}
	.st10{fill:#FFFFFF;}
	.st11{fill:#FDBA2D;stroke:#000000;stroke-width:1.2089;stroke-miterlimit:10;}
	.st12{fill:#3499CC;stroke:#000000;stroke-width:1.6618;stroke-miterlimit:10;}
	.st13{fill:#FFFFFF;stroke:#000000;stroke-width:1.6618;stroke-miterlimit:10;}
	.st14{fill:#EF4425;stroke:#000000;stroke-width:1.6618;stroke-miterlimit:10;}
	.st15{fill:#FDBA2D;stroke:#000000;stroke-width:1.6618;stroke-miterlimit:10;}
	.st16{fill:#EEEB5F;stroke:#000000;stroke-width:1.6618;stroke-miterlimit:10;}
</style>
<g id="Layer_7">
	<rect class="st0" width="1060" height="1060"/>
</g>
<g id="Layer_1">
	<g>
		<path class="st1" d="M758.92,338.36c-2.48,182.13-4.96,364.26-7.44,546.39c-187.53-3.39-375.06-6.79-562.59-10.18
			c0-186.47,0.01-372.93,0.01-559.4 M755.05,319.04c-186.14-3.22-372.29-6.44-558.43-9.66"/>
		<g>
			<path d="M735.65,338.36c-0.97,71.12-1.94,142.25-2.91,213.37c-0.96,70.79-1.93,141.58-2.89,212.38
				c-0.55,40.22-1.1,80.43-1.64,120.65c7.75-7.75,15.51-15.51,23.26-23.26c-73.15-1.32-146.3-2.65-219.45-3.97
				c-73.15-1.32-146.3-2.65-219.45-3.97c-41.23-0.75-82.46-1.49-123.69-2.24c7.75,7.75,15.51,15.51,23.26,23.26
				c0-72.59,0-145.18,0.01-217.77c0-72.92,0-145.84,0.01-218.76c0-40.96,0-81.91,0-122.87c0-12.17-10.7-23.83-23.26-23.26
				c-12.61,0.56-23.26,10.22-23.26,23.26c0,72.59,0,145.18-0.01,217.77c0,72.92,0,145.84-0.01,218.76c0,40.96,0,81.91,0,122.87
				c0,12.74,10.66,23.04,23.26,23.26c73.15,1.32,146.3,2.65,219.45,3.97c73.15,1.32,146.3,2.65,219.45,3.97
				c41.23,0.75,82.46,1.49,123.69,2.24c12.7,0.23,23.1-10.85,23.26-23.26c0.97-71.12,1.94-142.25,2.91-213.37
				c0.96-70.79,1.93-141.58,2.89-212.38c0.55-40.22,1.1-80.43,1.64-120.65c0.17-12.17-10.82-23.82-23.26-23.26
				C746.17,315.67,735.83,325.32,735.65,338.36L735.65,338.36z"/>
			<path d="M755.05,295.78c-72.46-1.25-144.93-2.51-217.39-3.76c-72.8-1.26-145.59-2.52-218.39-3.78
				c-40.88-0.71-81.77-1.41-122.65-2.12c-12.17-0.21-23.82,10.85-23.26,23.26c0.57,12.79,10.22,23.04,23.26,23.26
				c72.46,1.25,144.93,2.51,217.39,3.76c72.8,1.26,145.59,2.52,218.39,3.78c40.88,0.71,81.77,1.41,122.65,2.12
				c12.17,0.21,23.82-10.85,23.26-23.26C777.74,306.26,768.1,296,755.05,295.78L755.05,295.78z"/>
		</g>
	</g>
	<g>
		<path class="st2" d="M899.12,197.43c-169.71-3.39-339.42-6.79-509.13-10.18c-67.03,39.32-134.06,78.64-201.09,117.96
			c191.12-0.32,382.25-0.64,573.37-0.97C807.89,268.64,853.51,233.03,899.12,197.43z"/>
		<g>
			<path d="M899.12,174.16c-97.17-1.94-194.34-3.89-291.5-5.83c-48.58-0.97-97.17-1.94-145.75-2.92
				c-11.98-0.24-23.96-0.48-35.94-0.72c-5.99-0.12-11.98-0.24-17.97-0.36c-6.94-0.14-14.18-0.87-21.06,0.06
				c-7.54,1.01-14.21,6.02-20.68,9.82c-5.44,3.19-10.89,6.39-16.33,9.58c-10.6,6.22-21.2,12.43-31.8,18.65
				c-46.98,27.56-93.96,55.12-140.94,82.68c-19.85,11.65-11.39,43.39,11.74,43.35c97.89-0.16,195.79-0.33,293.68-0.49
				c49.28-0.08,98.56-0.17,147.84-0.25c24.31-0.04,48.61-0.08,72.92-0.12c12.32-0.02,24.64-0.04,36.96-0.06
				c5.99-0.01,11.99-0.02,17.98-0.03c5.49-0.01,10.84-0.32,15.74-3.18c3.79-2.22,7.5-5.81,11-8.55
				c43.52-33.97,87.04-67.94,130.56-101.9c4.36-3.41,6.81-11.21,6.81-16.45c0-5.71-2.53-12.52-6.81-16.45
				C911.14,176.91,905.32,173.88,899.12,174.16c-6.58,0.29-11.31,2.8-16.45,6.81c-45.62,35.6-91.24,71.21-136.86,106.81
				c5.48-2.27,10.97-4.54,16.45-6.81c-74.59,0.13-149.17,0.25-223.76,0.38c-74.59,0.13-149.17,0.25-223.76,0.38
				c-41.95,0.07-83.91,0.14-125.86,0.21c3.91,14.45,7.83,28.9,11.74,43.35c67.03-39.32,134.06-78.64,201.09-117.96
				c-3.91,1.06-7.83,2.12-11.74,3.18c132.44,2.65,264.88,5.3,397.32,7.95c37.27,0.75,74.54,1.49,111.81,2.24
				c12.17,0.24,23.82-10.87,23.26-23.26C921.82,184.61,912.17,174.42,899.12,174.16z"/>
		</g>
	</g>
	<path class="st3" d="M868.96,333.94"/>
	<path class="st4" d="M1028.23,433.26"/>
	<path class="st3" d="M729.55,297.17"/>
	<path class="st4" d="M1012.95,311.07"/>
	<g>
		<g>
			<path d="M876.21,223.24c12.17,0,23.83-10.7,23.26-23.26c-0.56-12.6-10.22-23.26-23.26-23.26c-12.17,0-23.83,10.7-23.26,23.26
				C853.51,212.58,863.17,223.24,876.21,223.24L876.21,223.24z"/>
		</g>
	</g>
	<g>
		<path class="st5" d="M899.12,197.43c0,184.14,0,368.27,0,552.41c-49.22,44.97-98.43,89.95-147.65,134.92l10.79-580.52
			C807.89,268.64,853.51,233.03,899.12,197.43z"/>
		<g>
			<path d="M875.86,197.43c0,71.79,0,143.59,0,215.38s0,143.59,0,215.38c0,40.55,0,81.1,0,121.65c2.27-5.48,4.54-10.97,6.81-16.45
				c-49.22,44.97-98.43,89.95-147.65,134.92c13.24,5.48,26.48,10.97,39.72,16.45c0.36-19.24,0.72-38.47,1.07-57.71
				c0.86-46.2,1.72-92.4,2.58-138.6c1.04-55.9,2.08-111.8,3.12-167.7c0.9-48.33,1.8-96.67,2.7-145c0.44-23.46,1.58-47.04,1.31-70.51
				c0-0.33,0.01-0.66,0.02-1c-2.27,5.48-4.54,10.97-6.81,16.45c45.62-35.6,91.24-71.21,136.86-106.81
				c4.36-3.41,6.81-11.21,6.81-16.45c0-5.71-2.53-12.52-6.81-16.45c-4.43-4.07-10.25-7.09-16.45-6.81
				c-6.58,0.29-11.31,2.8-16.45,6.81c-24.64,19.23-49.29,38.47-73.93,57.7c-12.58,9.82-25.17,19.64-37.75,29.47
				c-5.77,4.5-11.54,9-17.3,13.51c-4.19,3.27-8.74,6.13-11.5,10.85c-2.17,3.7-2.9,7.6-3.18,11.78c-0.45,6.75-0.25,13.6-0.38,20.36
				c-0.78,41.8-1.55,83.6-2.33,125.39c-1.13,60.62-2.25,121.25-3.38,181.87c-1.04,55.84-2.08,111.69-3.11,167.53
				c-0.52,28.01-1.83,56.13-1.56,84.14c0,0.4-0.01,0.8-0.02,1.19c-0.17,9.26,5.99,17.75,14.3,21.26c8.82,3.72,18.39,1.6,25.41-4.81
				c36.3-33.17,72.61-66.35,108.91-99.52c9.01-8.24,18.03-16.48,27.04-24.71c5.12-4.68,11.8-9.36,15.33-15.4
				c4.67-7.97,3.18-18.75,3.18-27.7c0-24.6,0-49.19,0-73.79c0-98.38,0-196.77,0-295.15c0-55.84,0-111.68,0-167.52
				c0-12.17-10.7-23.83-23.26-23.26C886.52,174.73,875.86,184.38,875.86,197.43z"/>
		</g>
	</g>
	<path class="st6" d="M747.94,594.36"/>
	<path class="st7" d="M1020.59,886.39"/>
	<path class="st6" d="M864.36,265"/>
	<path class="st7" d="M382.35,319.04"/>
	<g>
		<g>
			<path d="M348.75,325.11c0,20.31,0,40.63,0,60.94c0,32.2,0,64.41,0,96.61c0,7.45,0,14.91,0,22.36
				c7.75-7.75,15.51-15.51,23.26-23.26c-61.04-0.85-122.08-1.7-183.12-2.55c7.75,7.75,15.51,15.51,23.26,23.26
				c0-61.66,0.01-123.31,0.01-184.97c-7.75,7.75-15.51,15.51-23.26,23.26c20.53,0.85,41.06,1.71,61.59,2.56
				c32.94,1.37,65.89,2.74,98.83,4.1c7.56,0.31,15.13,0.63,22.69,0.94c12.17,0.51,23.81-11.06,23.26-23.26
				c-0.58-13.04-10.22-22.72-23.26-23.26c-20.53-0.85-41.06-1.71-61.59-2.56c-32.94-1.37-65.89-2.74-98.83-4.1
				c-7.56-0.31-15.13-0.63-22.69-0.94c-12.57-0.52-23.26,11.08-23.26,23.26c0,61.66-0.01,123.31-0.01,184.97
				c0,12.71,10.66,23.09,23.26,23.26c61.04,0.85,122.08,1.7,183.12,2.55c12.58,0.17,23.26-10.8,23.26-23.26c0-20.31,0-40.63,0-60.94
				c0-32.2,0-64.41,0-96.61c0-7.45,0-14.91,0-22.36c0-12.17-10.7-23.83-23.26-23.26C359.41,302.41,348.75,312.06,348.75,325.11z"/>
		</g>
	</g>
	<g>
		<g>
			<path d="M348.75,499.49c0,20.31,0,40.63,0,60.94c0,32.2,0,64.41,0,96.61c0,7.45,0,14.91,0,22.36
				c7.75-7.75,15.51-15.51,23.26-23.26c-61.04-0.85-122.08-1.7-183.12-2.55c7.75,7.75,15.51,15.51,23.26,23.26
				c0-61.66,0.01-123.31,0.01-184.97c-7.75,7.75-15.51,15.51-23.26,23.26c20.53,0.85,41.06,1.71,61.59,2.56
				c32.94,1.37,65.89,2.74,98.83,4.1c7.56,0.31,15.13,0.63,22.69,0.94c12.17,0.51,23.81-11.06,23.26-23.26
				c-0.58-13.04-10.22-22.72-23.26-23.26c-20.53-0.85-41.06-1.71-61.59-2.56c-32.94-1.37-65.89-2.74-98.83-4.1
				c-7.56-0.31-15.13-0.63-22.69-0.94c-12.57-0.52-23.26,11.08-23.26,23.26c0,61.66-0.01,123.31-0.01,184.97
				c0,12.71,10.66,23.09,23.26,23.26c61.04,0.85,122.08,1.7,183.12,2.55c12.58,0.17,23.26-10.8,23.26-23.26c0-20.31,0-40.63,0-60.94
				c0-32.2,0-64.41,0-96.61c0-7.45,0-14.91,0-22.36c0-12.17-10.7-23.83-23.26-23.26C359.41,476.79,348.75,486.45,348.75,499.49z"/>
		</g>
	</g>
	<g>
		<path class="st5" d="M372.02,687.01v179.91c-61.04-0.85-122.08-1.7-183.12-2.55c0-61.66,0.01-123.31,0.01-184.97L372.02,687.01z"
			/>
		<g>
			<path d="M348.75,687.01c0,20.31,0,40.63,0,60.94c0,32.2,0,64.41,0,96.61c0,7.45,0,14.91,0,22.36
				c7.75-7.75,15.51-15.51,23.26-23.26c-61.04-0.85-122.08-1.7-183.12-2.55c7.75,7.75,15.51,15.51,23.26,23.26
				c0-61.66,0.01-123.31,0.01-184.97c-7.75,7.75-15.51,15.51-23.26,23.26c20.53,0.85,41.06,1.71,61.59,2.56
				c32.94,1.37,65.89,2.74,98.83,4.1c7.56,0.31,15.13,0.63,22.69,0.94c12.17,0.51,23.81-11.06,23.26-23.26
				c-0.58-13.04-10.22-22.72-23.26-23.26c-20.53-0.85-41.06-1.71-61.59-2.56c-32.94-1.37-65.89-2.74-98.83-4.1
				c-7.56-0.31-15.13-0.63-22.69-0.94c-12.57-0.52-23.26,11.08-23.26,23.26c0,61.66-0.01,123.31-0.01,184.97
				c0,12.71,10.66,23.09,23.26,23.26c61.04,0.85,122.08,1.7,183.12,2.55c12.58,0.17,23.26-10.8,23.26-23.26c0-20.31,0-40.63,0-60.94
				c0-32.2,0-64.41,0-96.61c0-7.45,0-14.91,0-22.36c0-12.17-10.7-23.83-23.26-23.26C359.41,664.31,348.75,673.97,348.75,687.01z"/>
		</g>
	</g>
	<g>
		<path class="st8" d="M553.98,325.11v179.91c-61.04-0.85-122.08-1.7-183.12-2.55c0-61.66,0.01-123.31,0.01-184.97L553.98,325.11z"
			/>
		<g>
			<path d="M530.72,325.11c0,20.31,0,40.63,0,60.94c0,32.2,0,64.41,0,96.61c0,7.45,0,14.91,0,22.36
				c7.75-7.75,15.51-15.51,23.26-23.26c-61.04-0.85-122.08-1.7-183.12-2.55c7.75,7.75,15.51,15.51,23.26,23.26
				c0-61.66,0.01-123.31,0.01-184.97c-7.75,7.75-15.51,15.51-23.26,23.26c20.53,0.85,41.06,1.71,61.59,2.56
				c32.94,1.37,65.89,2.74,98.83,4.1c7.56,0.31,15.13,0.63,22.69,0.94c12.17,0.51,23.81-11.06,23.26-23.26
				c-0.58-13.04-10.22-22.72-23.26-23.26c-20.53-0.85-41.06-1.71-61.59-2.56c-32.94-1.37-65.89-2.74-98.83-4.1
				c-7.56-0.31-15.13-0.63-22.69-0.94c-12.57-0.52-23.26,11.08-23.26,23.26c0,61.66-0.01,123.31-0.01,184.97
				c0,12.71,10.66,23.09,23.26,23.26c61.04,0.85,122.08,1.7,183.12,2.55c12.58,0.17,23.26-10.8,23.26-23.26c0-20.31,0-40.63,0-60.94
				c0-32.2,0-64.41,0-96.61c0-7.45,0-14.91,0-22.36c0-12.17-10.7-23.83-23.26-23.26C541.38,302.41,530.72,312.06,530.72,325.11z"/>
		</g>
	</g>
	<g>
		<path class="st9" d="M555.14,499.49v179.91c-61.04-0.85-122.08-1.7-183.12-2.55c0-61.66,0.01-123.31,0.01-184.97L555.14,499.49z"
			/>
		<g>
			<path d="M531.88,499.49c0,20.31,0,40.63,0,60.94c0,32.2,0,64.41,0,96.61c0,7.45,0,14.91,0,22.36
				c7.75-7.75,15.51-15.51,23.26-23.26c-61.04-0.85-122.08-1.7-183.12-2.55c7.75,7.75,15.51,15.51,23.26,23.26
				c0-61.66,0.01-123.31,0.01-184.97c-7.75,7.75-15.51,15.51-23.26,23.26c20.53,0.85,41.06,1.71,61.59,2.56
				c32.94,1.37,65.89,2.74,98.83,4.1c7.56,0.31,15.13,0.63,22.69,0.94c12.17,0.51,23.81-11.06,23.26-23.26
				c-0.58-13.04-10.22-22.72-23.26-23.26c-20.53-0.85-41.06-1.71-61.59-2.56c-32.94-1.37-65.89-2.74-98.83-4.1
				c-7.56-0.31-15.13-0.63-22.69-0.94c-12.57-0.52-23.26,11.08-23.26,23.26c0,61.66-0.01,123.31-0.01,184.97
				c0,12.71,10.66,23.09,23.26,23.26c61.04,0.85,122.08,1.7,183.12,2.55c12.58,0.17,23.26-10.8,23.26-23.26c0-20.31,0-40.63,0-60.94
				c0-32.2,0-64.41,0-96.61c0-7.45,0-14.91,0-22.36c0-12.17-10.7-23.83-23.26-23.26C542.54,476.79,531.88,486.45,531.88,499.49z"/>
		</g>
	</g>
	<g>
		<g>
			<path d="M530.72,687.01c0,20.31,0,40.63,0,60.94c0,32.2,0,64.41,0,96.61c0,7.45,0,14.91,0,22.36
				c7.75-7.75,15.51-15.51,23.26-23.26c-61.04-0.85-122.08-1.7-183.12-2.55c7.75,7.75,15.51,15.51,23.26,23.26
				c0-61.66,0.01-123.31,0.01-184.97c-7.75,7.75-15.51,15.51-23.26,23.26c20.53,0.85,41.06,1.71,61.59,2.56
				c32.94,1.37,65.89,2.74,98.83,4.1c7.56,0.31,15.13,0.63,22.69,0.94c12.17,0.51,23.81-11.06,23.26-23.26
				c-0.58-13.04-10.22-22.72-23.26-23.26c-20.53-0.85-41.06-1.71-61.59-2.56c-32.94-1.37-65.89-2.74-98.83-4.1
				c-7.56-0.31-15.13-0.63-22.69-0.94c-12.57-0.52-23.26,11.08-23.26,23.26c0,61.66-0.01,123.31-0.01,184.97
				c0,12.71,10.66,23.09,23.26,23.26c61.04,0.85,122.08,1.7,183.12,2.55c12.58,0.17,23.26-10.8,23.26-23.26c0-20.31,0-40.63,0-60.94
				c0-32.2,0-64.41,0-96.61c0-7.45,0-14.91,0-22.36c0-12.17-10.7-23.83-23.26-23.26C541.38,664.31,530.72,673.97,530.72,687.01z"/>
		</g>
	</g>
	<g>
		<g>
			<path d="M713.84,325.11c0,20.31,0,40.63,0,60.94c0,32.2,0,64.41,0,96.61c0,7.45,0,14.91,0,22.36
				c7.75-7.75,15.51-15.51,23.26-23.26c-61.04-0.85-122.08-1.7-183.12-2.55c7.75,7.75,15.51,15.51,23.26,23.26
				c0-61.66,0.01-123.31,0.01-184.97c-7.75,7.75-15.51,15.51-23.26,23.26c20.53,0.85,41.06,1.71,61.59,2.56
				c32.94,1.37,65.89,2.74,98.83,4.1c7.56,0.31,15.13,0.63,22.69,0.94c12.17,0.51,23.81-11.06,23.26-23.26
				c-0.58-13.04-10.22-22.72-23.26-23.26c-20.53-0.85-41.06-1.71-61.59-2.56c-32.94-1.37-65.89-2.74-98.83-4.1
				c-7.56-0.31-15.13-0.63-22.69-0.94c-12.57-0.52-23.26,11.08-23.26,23.26c0,61.66-0.01,123.31-0.01,184.97
				c0,12.71,10.66,23.09,23.26,23.26c61.04,0.85,122.08,1.7,183.12,2.55c12.58,0.17,23.26-10.8,23.26-23.26c0-20.31,0-40.63,0-60.94
				c0-32.2,0-64.41,0-96.61c0-7.45,0-14.91,0-22.36c0-12.17-10.7-23.83-23.26-23.26C724.5,302.41,713.84,312.06,713.84,325.11z"/>
		</g>
	</g>
	<g>
		<path class="st10" d="M737.1,513.81v179.91c-61.04-0.85-122.08-1.7-183.12-2.55c0-61.66,0.01-123.31,0.01-184.97L737.1,513.81z"/>
		<g>
			<path d="M713.84,513.81c0,20.31,0,40.63,0,60.94c0,32.2,0,64.41,0,96.61c0,7.45,0,14.91,0,22.36
				c7.75-7.75,15.51-15.51,23.26-23.26c-61.04-0.85-122.08-1.7-183.12-2.55c7.75,7.75,15.51,15.51,23.26,23.26
				c0-61.66,0.01-123.31,0.01-184.97c-7.75,7.75-15.51,15.51-23.26,23.26c20.53,0.85,41.06,1.71,61.59,2.56
				c32.94,1.37,65.89,2.74,98.83,4.1c7.56,0.31,15.13,0.63,22.69,0.94c12.17,0.51,23.81-11.06,23.26-23.26
				c-0.58-13.04-10.22-22.72-23.26-23.26c-20.53-0.85-41.06-1.71-61.59-2.56c-32.94-1.37-65.89-2.74-98.83-4.1
				c-7.56-0.31-15.13-0.63-22.69-0.94c-12.57-0.52-23.26,11.08-23.26,23.26c0,61.66-0.01,123.31-0.01,184.97
				c0,12.71,10.66,23.09,23.26,23.26c61.04,0.85,122.08,1.7,183.12,2.55c12.58,0.17,23.26-10.8,23.26-23.26c0-20.31,0-40.63,0-60.94
				c0-32.2,0-64.41,0-96.61c0-7.45,0-14.91,0-22.36c0-12.17-10.7-23.83-23.26-23.26C724.5,491.11,713.84,500.77,713.84,513.81z"/>
		</g>
	</g>
	<g>
		<path class="st2" d="M737.1,691.36v179.91c-61.04-0.85-122.08-1.7-183.12-2.55c0-61.66,0.01-123.31,0.01-184.97L737.1,691.36z"/>
		<g>
			<path d="M713.84,691.36c0,20.31,0,40.63,0,60.94c0,32.2,0,64.41,0,96.61c0,7.45,0,14.91,0,22.36
				c7.75-7.75,15.51-15.51,23.26-23.26c-61.04-0.85-122.08-1.7-183.12-2.55c7.75,7.75,15.51,15.51,23.26,23.26
				c0-61.66,0.01-123.31,0.01-184.97c-7.75,7.75-15.51,15.51-23.26,23.26c20.53,0.85,41.06,1.71,61.59,2.56
				c32.94,1.37,65.89,2.74,98.83,4.1c7.56,0.31,15.13,0.63,22.69,0.94c12.17,0.51,23.81-11.06,23.26-23.26
				c-0.58-13.04-10.22-22.72-23.26-23.26c-20.53-0.85-41.06-1.71-61.59-2.56c-32.94-1.37-65.89-2.74-98.83-4.1
				c-7.56-0.31-15.13-0.63-22.69-0.94c-12.57-0.52-23.26,11.08-23.26,23.26c0,61.66-0.01,123.31-0.01,184.97
				c0,12.71,10.66,23.09,23.26,23.26c61.04,0.85,122.08,1.7,183.12,2.55c12.58,0.17,23.26-10.8,23.26-23.26c0-20.31,0-40.63,0-60.94
				c0-32.2,0-64.41,0-96.61c0-7.45,0-14.91,0-22.36c0-12.17-10.7-23.83-23.26-23.26C724.5,668.66,713.84,678.32,713.84,691.36z"/>
		</g>
	</g>
</g>
<g id="Layer_4">
	<path class="st11" d="M778.63,319.62c0.85,43.84,1.7,87.68,2.55,131.53c6.22-5.37,12.45-10.75,18.67-16.12
		c-0.85-42.71-1.7-85.42-2.55-128.13C791.07,311.13,784.85,315.38,778.63,319.62z"/>
	<path class="st11" d="M1012.95,496.91"/>
	<path class="st12" d="M778.63,498.07c0,45.45,0,90.91,0,136.36c7.07-6.99,14.14-13.97,21.21-20.96
		c-0.85-42.71-1.7-85.42-2.55-128.13C791.07,489.58,784.85,493.83,778.63,498.07z"/>
	<path class="st13" d="M776.93,683.65c-0.28,49.5-0.57,99-0.85,148.5c6.31-6.75,12.61-13.51,18.92-20.26
		c-0.37-48.12-0.73-96.24-1.1-144.36C788.25,672.9,782.59,678.27,776.93,683.65z"/>
	<path class="st11" d="M814.69,463.87c0.85,43.84,1.7,87.68,2.55,131.53c7.5-7.35,14.99-14.71,22.49-22.06
		c-0.85-42.15-1.7-84.29-2.55-126.43C829.68,452.56,822.19,458.22,814.69,463.87z"/>
	<path class="st14" d="M815.75,642.92c0.14,50.88,0.28,101.75,0.42,152.63c7.5-7.35,14.99-14.71,22.49-22.06
		c-1.13-48.33-2.26-96.66-3.39-144.99C828.76,633.3,822.26,638.11,815.75,642.92z"/>
	<path class="st14" d="M857.57,415.01c0.14,50.88,0.28,101.75,0.42,152.63c7.5-7.35,14.99-14.71,22.49-22.06
		c-1.13-48.33-2.26-96.66-3.39-144.99C870.58,405.4,864.08,410.2,857.57,415.01z"/>
	<path class="st13" d="M857.57,605.46c0.14,50.88,0.28,101.75,0.42,152.63c7.5-7.35,14.99-14.71,22.49-22.06
		c-1.42-50.55-2.85-101.11-4.27-151.66C870,591.4,863.79,598.43,857.57,605.46z"/>
</g>
<g id="Layer_6">
	<path class="st15" d="M409.08,265.73c-6.36,5.8-12.73,11.6-19.09,17.4c-45.04-0.92-90.09-1.83-135.13-2.75
		c10.47-6.51,20.93-13.01,31.4-19.52C327.2,262.49,368.14,264.11,409.08,265.73z"/>
	<path class="st15" d="M592.8,270.4c-4.95,5.66-9.9,11.31-14.85,16.97c-50.91-1.41-101.83-2.83-152.74-4.24
		c5.37-5.52,10.75-11.03,16.12-16.55C491.82,267.86,542.31,269.13,592.8,270.4z"/>
	<path class="st14" d="M764.53,271.69c-5.44,5.74-10.89,11.48-16.33,17.21c-44.97-0.28-89.95-0.57-134.92-0.85
		c5.52-5.23,11.03-10.47,16.55-15.7C674.73,272.13,719.63,271.91,764.53,271.69z"/>
	<path class="st12" d="M443.02,235.61c-6.36,5.8-12.73,11.6-19.09,17.4c-39.38-1.76-78.75-3.52-118.13-5.29
		c10.75-6.03,21.5-12.07,32.25-18.1C373.04,231.61,408.03,233.61,443.02,235.61z"/>
	<path class="st16" d="M656.01,214.82c-5.37,4.81-10.75,9.62-16.12,14.43c-50.49-1.98-100.98-3.96-151.47-5.94
		c3.82-4.24,7.64-8.49,11.46-12.73C551.92,211.99,603.97,213.41,656.01,214.82z"/>
	<path class="st16" d="M628.43,240.7c-6.51,5.66-13.01,11.31-19.52,16.97c-50.91-1.56-101.83-3.11-152.74-4.67
		c6.36-6.65,12.73-13.29,19.09-19.94C526.32,235.61,577.38,238.16,628.43,240.7z"/>
	<path class="st4" d="M493.82,204.36c-6.36,5.8-12.73,11.6-19.09,17.4c-39.38-1.76-78.75-3.52-118.13-5.29
		c10.75-6.03,21.5-12.07,32.25-18.1C423.83,200.36,458.82,202.36,493.82,204.36z"/>
</g>
<g id="Layer_5">
	<g>
		<g>
			<path d="M372.93,332.47c54.64-47.82,109.28-95.64,163.92-143.46c5.41-4.73,4.84-13.96,0-18.8c-5.36-5.36-13.38-4.74-18.8,0
				c-54.64,47.82-109.28,95.64-163.92,143.46c-5.41,4.73-4.84,13.96,0,18.8C359.5,337.83,367.51,337.21,372.93,332.47L372.93,332.47
				z"/>
		</g>
	</g>
	<g>
		<g>
			<path d="M563.38,334.51c47.74-43.91,95.48-87.81,143.22-131.72c5.29-4.86,4.93-13.87,0-18.8c-5.26-5.26-13.5-4.87-18.8,0
				c-47.74,43.91-95.48,87.81-143.22,131.72c-5.29,4.86-4.93,13.87,0,18.8C549.84,339.77,558.08,339.38,563.38,334.51L563.38,334.51
				z"/>
		</g>
	</g>
	<g>
		<g>
			<path d="M288.16,248.18c9.62,0,9.64-14.96,0-14.96C278.54,233.22,278.52,248.18,288.16,248.18L288.16,248.18z"/>
		</g>
	</g>
	<g>
		<g>
			<path d="M787.11,259.25c-66.8-1.38-133.6-2.77-200.4-4.15c-66.8-1.38-133.6-2.77-200.4-4.15c-37.89-0.78-75.77-1.57-113.66-2.35
				c-9.63-0.2-9.63,14.76,0,14.96c66.8,1.38,133.6,2.77,200.4,4.15s133.6,2.77,200.4,4.15c37.89,0.78,75.77,1.57,113.66,2.35
				C796.74,274.4,796.74,259.45,787.11,259.25L787.11,259.25z"/>
		</g>
	</g>
	<g>
		<g>
			<path d="M840.63,235.6c-67.76-2.7-135.52-5.4-203.28-8.1c-68.09-2.71-136.19-5.42-204.28-8.14c-38.2-1.52-76.4-3.04-114.6-4.56
				c-9.62-0.38-9.61,14.57,0,14.96c67.76,2.7,135.52,5.4,203.28,8.1c68.09,2.71,136.19,5.42,204.28,8.14
				c38.2,1.52,76.4,3.04,114.6,4.56C850.25,250.94,850.24,235.98,840.63,235.6L840.63,235.6z"/>
		</g>
	</g>
</g>
<g id="Layer_3">
	<path class="st6" d="M770.91,217.51"/>
	<g>
		<g>
			<path d="M886.16,348.23c-41.76,41.4-83.53,82.79-125.29,124.19c-6.8,6.74-7.25,19.19,0,25.85c7.32,6.72,18.59,7.19,25.85,0
				c41.76-41.4,83.53-82.79,125.29-124.19c6.8-6.74,7.25-19.19,0-25.85C904.68,341.5,893.41,341.03,886.16,348.23L886.16,348.23z"/>
		</g>
	</g>
	<g>
		<g>
			<path d="M777.92,684.64c44.71-44.74,89.42-89.48,134.13-134.22c6.77-6.77,7.28-19.17,0-25.85c-7.29-6.7-18.63-7.23-25.85,0
				c-44.71,44.74-89.42,89.48-134.13,134.22c-6.77,6.77-7.28,19.17,0,25.85C759.37,691.34,770.7,691.87,777.92,684.64L777.92,684.64
				z"/>
		</g>
	</g>
	<g>
		<g>
			<path d="M793.32,274.64c0,71.1,0,142.19,0,213.29c0,71.43,0,142.86,0,214.28c0,40.2,0,80.4,0,120.6c0,16.04,24.93,16.07,24.93,0
				c0-71.1,0-142.19,0-213.29c0-71.43,0-142.86,0-214.28c0-40.2,0-80.4,0-120.6C818.25,258.61,793.32,258.58,793.32,274.64
				L793.32,274.64z"/>
		</g>
	</g>
	<g>
		<g>
			<path d="M835.75,244.1c0,70.25,0,140.51,0,210.76c0,70.59,0,141.17,0,211.76c0,39.62,0,79.24,0,118.86
				c0,16.04,24.93,16.07,24.93,0c0-70.25,0-140.51,0-210.76c0-70.59,0-141.17,0-211.76c0-39.62,0-79.24,0-118.86
				C860.67,228.06,835.75,228.03,835.75,244.1L835.75,244.1z"/>
		</g>
	</g>
</g>
</svg>
