<svg xmlns="http://www.w3.org/2000/svg" viewBox="0 0 466.53 110.84"><defs><style>.cls-1{font-size:72px;fill:#9370a5;font-family:MyriadPro-Regular, Myriad Pro;}.cls-2{letter-spacing:0em;}.cls-3{letter-spacing:0em;}.cls-4{letter-spacing:-0.01em;}.cls-5{fill:#d63350;}</style></defs><g id="Layer_1" data-name="Layer 1"><text class="cls-1" transform="translate(4.9 69.78)"><tspan xml:space="preserve">    </tspan><tspan class="cls-2" x="61.05" y="0">a</tspan><tspan class="cls-3" x="95.47" y="0" xml:space="preserve">than    a</tspan><tspan class="cls-2" x="329.68" y="0">n</tspan><tspan class="cls-4" x="369.35" y="0">t</tspan><tspan x="392.75" y="0">er</tspan></text></g><g id="Layer_2" data-name="Layer 2"><path class="cls-5" d="M74.34,18.4c1.74-6.95,30.05-6.08,30.05-6.08s21.25,1.74,27.34,26.08a91,91,0,0,1,0,44.35h-9.57s4.35-20.87-8.69-33-16.52,0-16.52,0v33H86.51v-53H75.75" transform="translate(-74.34 -11.05)"/><path class="cls-5" d="M334.57,12.33c-1.25-1.24-3.84-2.05-9.77-.19v69.2h11.64s.62-22,10.42-23.07c5.41-.6,13,8,13.48,16.48a15.73,15.73,0,0,1-.83,5.88h10.8c1-4.72,1.62-11.65-2.16-18.06-4.28-7.24-10.9-8.34-12.24-13.55-1-3.87.92-10.18,15.46-20.4l-6.13-16.48c-17.38,21.23-24,24.78-26.6,23.34-1.66-.92-2.08-4.11-2.71-8.85C334.83,18.32,336.8,14.56,334.57,12.33Z" transform="translate(-74.34 -11.05)"/><path class="cls-5" d="M329.47,241.09" transform="translate(-74.34 -11.05)"/></g></svg>